<svg width="10" height="6" viewBox="0 0 10 6" fill="none" xmlns="http://www.w3.org/2000/svg">
<path d="M5.02936 5.29774L5.02861 5.29775C4.96501 5.2981 4.90234 5.2863 4.84434 5.26341C4.78662 5.24063 4.73518 5.20755 4.69254 5.16683C4.69234 5.16664 4.69215 5.16645 4.69195 5.16626L0.832005 1.43689C0.745795 1.3536 0.700684 1.24437 0.700684 1.13426C0.700684 1.02416 0.745795 0.914927 0.832005 0.831635C0.918798 0.747777 1.04007 0.697754 1.16999 0.697754C1.2998 0.697754 1.42098 0.747697 1.50776 0.831433C1.50783 0.8315 1.5079 0.831567 1.50797 0.831635L4.68343 3.909L5.03087 4.2457L5.37882 3.90953L8.53845 0.856783C8.62543 0.789716 8.73732 0.7531 8.85394 0.757453C8.9761 0.762012 9.08884 0.810951 9.17052 0.88987C9.25172 0.968325 9.29622 1.0701 9.30036 1.17377C9.30431 1.27248 9.27165 1.37158 9.20462 1.45286L5.3612 5.16626C5.36101 5.16644 5.36081 5.16663 5.36062 5.16681C5.27516 5.24842 5.15652 5.29722 5.02936 5.29774Z" fill="white" stroke="white"/>
</svg>
