<svg width="22" height="22" viewBox="0 0 22 22" fill="none" xmlns="http://www.w3.org/2000/svg">
<path d="M14.3393 11.0002C14.3393 11.6606 14.1435 12.3062 13.7766 12.8553C13.4097 13.4045 12.8882 13.8324 12.278 14.0852C11.6679 14.3379 10.9965 14.404 10.3488 14.2752C9.70105 14.1463 9.10608 13.8283 8.63909 13.3613C8.1721 12.8943 7.85408 12.2994 7.72524 11.6516C7.5964 11.0039 7.66253 10.3325 7.91526 9.72238C8.16799 9.11224 8.59597 8.59074 9.14509 8.22383C9.69421 7.85692 10.3398 7.66108 11.0002 7.66108C11.885 7.66383 12.7327 8.01652 13.3583 8.64213C13.9839 9.26774 14.3366 10.1155 14.3393 11.0002ZM21.435 6.40891V15.5915C21.435 17.1413 20.8193 18.6276 19.7235 19.7235C18.6276 20.8193 17.1413 21.435 15.5915 21.435H6.40891C4.85912 21.435 3.37281 20.8193 2.27694 19.7235C1.18108 18.6276 0.56543 17.1413 0.56543 15.5915V6.40891C0.56543 4.85912 1.18108 3.37281 2.27694 2.27694C3.37281 1.18108 4.85912 0.56543 6.40891 0.56543H15.5915C17.1413 0.56543 18.6276 1.18108 19.7235 2.27694C20.8193 3.37281 21.435 4.85912 21.435 6.40891ZM16.0089 11.0002C16.0089 10.0096 15.7152 9.04121 15.1648 8.21753C14.6144 7.39385 13.8322 6.75188 12.917 6.37278C12.0017 5.99369 10.9947 5.8945 10.0231 6.08776C9.05147 6.28102 8.15901 6.75805 7.45853 7.45853C6.75805 8.15901 6.28102 9.05147 6.08776 10.0231C5.8945 10.9947 5.99369 12.0017 6.37278 12.917C6.75188 13.8322 7.39385 14.6144 8.21753 15.1648C9.04121 15.7152 10.0096 16.0089 11.0002 16.0089C12.3286 16.0089 13.6026 15.4812 14.5419 14.5419C15.4812 13.6026 16.0089 12.3286 16.0089 11.0002ZM17.6785 5.57413C17.6785 5.32647 17.605 5.08437 17.4674 4.87846C17.3299 4.67254 17.1343 4.51204 16.9055 4.41727C16.6767 4.32249 16.4249 4.2977 16.182 4.34601C15.9391 4.39433 15.716 4.51359 15.5409 4.6887C15.3658 4.86382 15.2465 5.08694 15.1982 5.32984C15.1499 5.57274 15.1747 5.82451 15.2694 6.05331C15.3642 6.28212 15.5247 6.47768 15.7306 6.61527C15.9365 6.75286 16.1786 6.8263 16.4263 6.8263C16.7584 6.8263 17.0769 6.69437 17.3117 6.45955C17.5465 6.22472 17.6785 5.90622 17.6785 5.57413Z" fill="white"/>
</svg>
