<svg width="22" height="22" viewBox="0 0 22 22" fill="none" xmlns="http://www.w3.org/2000/svg">
<path fill-rule="evenodd" clip-rule="evenodd" d="M8.31743 7.83743H12.1929V9.76786C12.7512 8.6576 14.1828 7.66004 16.3334 7.66004C20.4562 7.66004 21.435 9.87013 21.435 13.9251V21.435H17.2611V14.8486C17.2611 12.5393 16.7028 11.2371 15.2816 11.2371C13.3105 11.2371 12.4913 12.6406 12.4913 14.8475V21.435H8.31743V7.83743ZM1.16021 21.2576H5.33413V7.66004H1.16021V21.2576ZM5.93204 3.2263C5.93219 3.57615 5.86281 3.92254 5.72792 4.24535C5.59303 4.56815 5.39533 4.86092 5.1463 5.10665C4.64167 5.60817 3.95862 5.88889 3.24717 5.88717C2.53697 5.88669 1.85549 5.60668 1.35013 5.10769C1.102 4.86113 0.904963 4.56803 0.77031 4.24518C0.635657 3.92234 0.566034 3.5761 0.56543 3.2263C0.56543 2.51986 0.847169 1.84369 1.35117 1.34491C1.85609 0.845247 2.53785 0.565117 3.24821 0.56543C3.95986 0.56543 4.6423 0.846126 5.1463 1.34491C5.64926 1.84369 5.93204 2.51986 5.93204 3.2263Z" fill="white"/>
</svg>
