<svg width="22" height="20" viewBox="0 0 22 20" fill="none" xmlns="http://www.w3.org/2000/svg">
<path d="M21.435 3.01845C20.6669 3.39441 19.8389 3.64147 18.9809 3.75963C19.8588 3.19032 20.5372 2.28802 20.8564 1.20311C20.0284 1.74019 19.1106 2.11615 18.143 2.33099C17.3549 1.4072 16.2475 0.870117 14.9906 0.870117C12.6462 0.870117 10.7309 2.93252 10.7309 5.4783C10.7309 5.84352 10.7708 6.19799 10.8406 6.53099C7.28918 6.33764 4.12682 4.50081 2.02191 1.71871C1.6528 2.39544 1.44331 3.19032 1.44331 4.02817C1.44331 5.62868 2.1915 7.04659 3.3487 7.85221C2.64042 7.85221 1.98201 7.63738 1.4034 7.31513V7.34735C1.4034 9.58163 2.87984 11.4507 4.83511 11.8696C4.20736 12.0546 3.54832 12.0803 2.90976 11.9448C3.18072 12.8605 3.71136 13.6618 4.42711 14.2359C5.14286 14.8101 6.00773 15.1283 6.90012 15.1458C5.38741 16.4353 3.5123 17.1323 1.58297 17.1223C1.24379 17.1223 0.90461 17.1008 0.56543 17.0578C2.46085 18.3683 4.7154 19.131 7.12957 19.131C14.9906 19.131 19.3101 12.1059 19.3101 6.01539C19.3101 5.81129 19.3101 5.61794 19.3002 5.41385C20.1381 4.76935 20.8564 3.95298 21.435 3.01845Z" fill="white"/>
</svg>
