<svg width="22" height="16" viewBox="0 0 22 16" fill="none" xmlns="http://www.w3.org/2000/svg">
<path d="M8.91326 11.3549L14.3289 8.00089L8.91326 4.64685V11.3549ZM20.9759 2.60089C21.1115 3.12636 21.2054 3.8307 21.268 4.72511C21.3411 5.61952 21.3724 6.39095 21.3724 7.06176L21.435 8.00089C21.435 10.4493 21.268 12.2493 20.9759 13.4009C20.715 14.4071 20.1098 15.0555 19.1706 15.3351C18.6802 15.4804 17.7828 15.581 16.4054 15.6481C15.0489 15.7264 13.8072 15.7599 12.6593 15.7599L11.0002 15.827C6.62804 15.827 3.90456 15.6481 2.82978 15.3351C1.89065 15.0555 1.28543 14.4071 1.02456 13.4009C0.888908 12.8754 0.794995 12.1711 0.732386 11.2767C0.659343 10.3823 0.628038 9.61083 0.628038 8.94002L0.56543 8.00089C0.56543 5.55244 0.732386 3.75244 1.02456 2.60089C1.28543 1.59468 1.89065 0.946233 2.82978 0.66673C3.32021 0.521389 4.2176 0.420767 5.595 0.353687C6.95152 0.275426 8.19326 0.241885 9.34108 0.241885L11.0002 0.174805C15.3724 0.174805 18.0959 0.353687 19.1706 0.66673C20.1098 0.946233 20.715 1.59468 20.9759 2.60089Z" fill="white"/>
</svg>
