<svg width="20" height="20" viewBox="0 0 20 20" fill="none" xmlns="http://www.w3.org/2000/svg">
<path d="M17.5336 11.0667L16.7669 10.3167L10.3086 16.7667L11.0836 17.5416C11.7336 18.1916 12.4086 18.5166 13.0753 18.5166C13.7419 18.5166 14.4169 18.1916 15.0669 17.5416L17.5336 15.075C18.8586 13.7417 18.8586 12.4 17.5336 11.0667Z" fill="#1642C5"/>
<path d="M8.90846 2.4417C7.60013 1.13337 6.22513 1.13337 4.9168 2.4417L2.4418 4.90837C1.1418 6.2167 1.1418 7.5917 2.4418 8.90003L3.20846 9.6667L9.6668 3.20837L8.90846 2.4417Z" fill="#1642C5"/>
<path d="M18.1745 3.28333C17.0829 6.00833 14.5912 9.56666 12.2162 11.8917C11.8745 9.74166 10.1579 8.05833 7.99121 7.75833C10.3245 5.37499 13.9079 2.84999 16.6412 1.74999C17.1245 1.56666 17.6079 1.70833 17.9079 2.00833C18.2245 2.32499 18.3745 2.79999 18.1745 3.28333Z" fill="#1642C5"/>
<path d="M11.4829 12.575C11.3163 12.7166 11.1496 12.8583 10.9829 12.9916L9.49128 14.1833C9.49128 14.1583 9.48294 14.125 9.48294 14.0916C9.36628 13.2 8.94961 12.375 8.27461 11.7C7.59128 11.0166 6.74128 10.6 5.80794 10.4833C5.78294 10.4833 5.74961 10.475 5.72461 10.475L6.93294 8.94997C7.04961 8.79997 7.17461 8.6583 7.30794 8.5083L7.87461 8.5833C9.66628 8.8333 11.1079 10.2416 11.3913 12.025L11.4829 12.575Z" fill="#1642C5"/>
<path d="M8.6918 14.6834C8.6918 15.6001 8.3418 16.4751 7.67513 17.1334C7.1668 17.6501 6.48346 18.0001 5.65013 18.1001L3.60846 18.3251C2.4918 18.4501 1.53346 17.4917 1.65846 16.3667L1.88346 14.3167C2.08346 12.4917 3.60846 11.3251 5.22513 11.2917C5.38346 11.2834 5.55846 11.2917 5.72513 11.3084C6.43346 11.4001 7.1168 11.7251 7.6918 12.2917C8.25013 12.8501 8.5668 13.5084 8.65846 14.2001C8.67513 14.3667 8.6918 14.5251 8.6918 14.6834Z" fill="#1642C5"/>
</svg>
