<svg width="20" height="20" viewBox="0 0 20 20" fill="none" xmlns="http://www.w3.org/2000/svg">
<path d="M13.0964 10.0836C13.0065 10.8176 12.6764 11.5172 12.1327 12.0609C11.4717 12.7222 10.5479 13.0336 9.38775 12.9867C8.57407 12.9543 8.19829 13.1672 8.13657 13.2058C7.88735 13.4242 7.57094 13.5437 7.23695 13.5437C6.87172 13.5437 6.52835 13.4016 6.27015 13.1433C5.82444 12.6976 5.75257 12.0101 6.05687 11.4863L6.27523 11.1402C6.34945 10.9593 6.44984 10.6023 6.4264 10.0254C6.37992 8.86481 6.69125 7.94136 7.35219 7.28042C7.8936 6.7394 8.58579 6.40424 9.33423 6.31479C9.44009 5.8058 9.66939 5.32963 10.0002 4.92963H2.14942C1.28692 4.92963 0.584961 5.63119 0.584961 6.4937V14.2512H16.9054V6.54839L14.9222 8.97887C14.4557 9.54879 13.8081 9.93669 13.0964 10.0836Z" fill="#1642C5"/>
<path d="M0.585 15.923C0.585 16.7852 1.28696 17.4867 2.14946 17.4867H6.59554V18.8281H5.61007C5.28647 18.8281 5.02413 19.0905 5.02413 19.4141C5.02413 19.7377 5.28647 20 5.61007 20H11.8801C12.2037 20 12.4661 19.7377 12.4661 19.4141C12.4661 19.0905 12.2037 18.8281 11.8801 18.8281H10.8947V17.4867H15.3409C16.2034 17.4867 16.9054 16.7852 16.9054 15.923V15.423H0.584961V15.923H0.585Z" fill="#1642C5"/>
<path d="M7.11258 12.0248C7.11246 12.0249 7.11234 12.025 7.11227 12.0251C7.11219 12.0252 7.11215 12.0252 7.11211 12.0253L7.11195 12.0255C7.11188 12.0255 7.11184 12.0256 7.11176 12.0257C7.11172 12.0258 7.11168 12.0258 7.11156 12.0259L7.11152 12.0259C7.11148 12.026 7.11141 12.026 7.11133 12.0261C7.11133 12.0261 7.11133 12.0261 7.11129 12.0261C7.11125 12.0262 7.11117 12.0262 7.11113 12.0263C7.11113 12.0263 7.11113 12.0263 7.11109 12.0264C7.11102 12.0264 7.11098 12.0265 7.1109 12.0266C7.1109 12.0266 7.1109 12.0266 7.11086 12.0266L7.11066 12.0268C7.0366 12.1032 7.03734 12.2252 7.11285 12.3008C7.15102 12.3389 7.20098 12.358 7.25098 12.358C7.30051 12.358 7.35004 12.3393 7.38805 12.3018C7.4 12.2905 7.99168 11.7435 9.44926 11.8021C10.2693 11.8351 10.898 11.6387 11.3182 11.2185C12.1793 10.3575 12.1793 8.95644 11.3182 8.09538C10.9011 7.67827 10.3466 7.44855 9.75668 7.44855C9.1668 7.44855 8.61223 7.67824 8.19512 8.09538C7.77496 8.51554 7.57859 9.14437 7.61156 9.96437C7.67047 11.4299 7.11731 12.02 7.11285 12.0246C7.1127 12.0247 7.11266 12.0248 7.11258 12.0248Z" fill="#1642C5"/>
<path d="M13.0459 8.87881C13.4279 8.76435 13.7721 8.53779 14.0287 8.22412L14.7774 7.30662L12.1104 4.63959L11.1967 5.38584C10.8822 5.64209 10.6549 5.98584 10.54 6.36787C11.1439 6.50967 11.6979 6.81709 12.1475 7.2667C12.6076 7.72685 12.9072 8.2874 13.0459 8.87881Z" fill="#1642C5"/>
<path d="M19.0626 0.351846C18.6263 -0.0844819 17.9364 -0.119248 17.4583 0.271377L13.0225 3.89454L15.522 6.39403L19.1435 1.95579C19.5337 1.47802 19.4989 0.788174 19.0626 0.351846Z" fill="#1642C5"/>
</svg>
