<svg width="20" height="20" viewBox="0 0 20 20" fill="none" xmlns="http://www.w3.org/2000/svg">
<path d="M15.5585 1.66663H13.9752C12.1585 1.66663 11.2002 2.62496 11.2002 4.44163V6.02496C11.2002 7.84163 12.1585 8.79996 13.9752 8.79996H15.5585C17.3752 8.79996 18.3335 7.84163 18.3335 6.02496V4.44163C18.3335 2.62496 17.3752 1.66663 15.5585 1.66663Z" fill="#1642C5"/>
<path d="M6.03366 11.1917H4.45033C2.62533 11.1917 1.66699 12.15 1.66699 13.9667V15.55C1.66699 17.375 2.62533 18.3333 4.44199 18.3333H6.02533C7.84199 18.3333 8.80033 17.375 8.80033 15.5583V13.975C8.80866 12.15 7.85033 11.1917 6.03366 11.1917Z" fill="#1642C5"/>
<path d="M5.24199 8.81663C7.21641 8.81663 8.81699 7.21604 8.81699 5.24163C8.81699 3.26721 7.21641 1.66663 5.24199 1.66663C3.26757 1.66663 1.66699 3.26721 1.66699 5.24163C1.66699 7.21604 3.26757 8.81663 5.24199 8.81663Z" fill="#1642C5"/>
<path d="M14.7586 18.3333C16.733 18.3333 18.3336 16.7328 18.3336 14.7583C18.3336 12.7839 16.733 11.1833 14.7586 11.1833C12.7842 11.1833 11.1836 12.7839 11.1836 14.7583C11.1836 16.7328 12.7842 18.3333 14.7586 18.3333Z" fill="#1642C5"/>
</svg>
