<svg width="20" height="20" viewBox="0 0 20 20" fill="none" xmlns="http://www.w3.org/2000/svg">
<path d="M13.533 1.66663H6.46634C4.16634 1.66663 3.33301 2.49996 3.33301 4.84163V15.1583C3.33301 17.5 4.16634 18.3333 6.46634 18.3333H13.5247C15.833 18.3333 16.6663 17.5 16.6663 15.1583V4.84163C16.6663 2.49996 15.833 1.66663 13.533 1.66663ZM9.99967 16.0833C9.19967 16.0833 8.54134 15.425 8.54134 14.625C8.54134 13.825 9.19967 13.1666 9.99967 13.1666C10.7997 13.1666 11.458 13.825 11.458 14.625C11.458 15.425 10.7997 16.0833 9.99967 16.0833ZM11.6663 5.20829H8.33301C7.99134 5.20829 7.70801 4.92496 7.70801 4.58329C7.70801 4.24163 7.99134 3.95829 8.33301 3.95829H11.6663C12.008 3.95829 12.2913 4.24163 12.2913 4.58329C12.2913 4.92496 12.008 5.20829 11.6663 5.20829Z" fill="#1642C5"/>
</svg>
