<svg width="20" height="20" viewBox="0 0 20 20" fill="none" xmlns="http://www.w3.org/2000/svg">
<g clip-path="url(#clip0_547_13603)">
<path d="M17.2087 5.04167V14.9583C17.2087 15.6915 16.6137 16.2887 15.8809 16.2917C15.6946 16.2924 15.542 16.1443 15.542 15.9581V4.04187C15.542 3.85558 15.6947 3.70754 15.881 3.70833C16.6147 3.71137 17.2087 4.30717 17.2087 5.04167ZM14.8753 1.66667V18.3333C14.8753 19.2525 14.1278 20 13.2087 20H4.45866C3.53949 20 2.79199 19.2525 2.79199 18.3333V1.66667C2.79199 0.7475 3.53949 0 4.45866 0H13.2087C14.1278 0 14.8753 0.7475 14.8753 1.66667ZM6.00033 2.375C6.00033 2.55908 6.14958 2.70833 6.33366 2.70833H11.3337C11.5177 2.70833 11.667 2.55908 11.667 2.375C11.667 2.19092 11.5177 2.04167 11.3337 2.04167H6.33366C6.14958 2.04167 6.00033 2.19092 6.00033 2.375ZM7.08366 16.7083C7.08366 16.5243 6.93441 16.375 6.75033 16.375H5.91699C5.73291 16.375 5.58366 16.5243 5.58366 16.7083C5.58366 16.8924 5.73291 17.0417 5.91699 17.0417H6.75033C6.93441 17.0417 7.08366 16.8924 7.08366 16.7083ZM7.08366 14.625C7.08366 14.4409 6.93441 14.2917 6.75033 14.2917H5.91699C5.73291 14.2917 5.58366 14.4409 5.58366 14.625C5.58366 14.8091 5.73291 14.9583 5.91699 14.9583H6.75033C6.93441 14.9583 7.08366 14.8091 7.08366 14.625ZM7.08366 12.5417C7.08366 12.3576 6.93441 12.2083 6.75033 12.2083H5.91699C5.73291 12.2083 5.58366 12.3576 5.58366 12.5417C5.58366 12.7257 5.73291 12.875 5.91699 12.875H6.75033C6.93441 12.875 7.08366 12.7257 7.08366 12.5417ZM9.58366 16.7083C9.58366 16.5243 9.43441 16.375 9.25033 16.375H8.41699C8.23291 16.375 8.08366 16.5243 8.08366 16.7083C8.08366 16.8924 8.23291 17.0417 8.41699 17.0417H9.25033C9.43441 17.0417 9.58366 16.8924 9.58366 16.7083ZM9.58366 14.625C9.58366 14.4409 9.43441 14.2917 9.25033 14.2917H8.41699C8.23291 14.2917 8.08366 14.4409 8.08366 14.625C8.08366 14.8091 8.23291 14.9583 8.41699 14.9583H9.25033C9.43441 14.9583 9.58366 14.8091 9.58366 14.625ZM9.58366 12.5417C9.58366 12.3576 9.43441 12.2083 9.25033 12.2083H8.41699C8.23291 12.2083 8.08366 12.3576 8.08366 12.5417C8.08366 12.7257 8.23291 12.875 8.41699 12.875H9.25033C9.43441 12.875 9.58366 12.7257 9.58366 12.5417ZM12.0837 16.7083C12.0837 16.5243 11.9344 16.375 11.7503 16.375H10.917C10.7329 16.375 10.5837 16.5243 10.5837 16.7083C10.5837 16.8924 10.7329 17.0417 10.917 17.0417H11.7503C11.9344 17.0417 12.0837 16.8924 12.0837 16.7083ZM12.0837 14.625C12.0837 14.4409 11.9344 14.2917 11.7503 14.2917H10.917C10.7329 14.2917 10.5837 14.4409 10.5837 14.625C10.5837 14.8091 10.7329 14.9583 10.917 14.9583H11.7503C11.9344 14.9583 12.0837 14.8091 12.0837 14.625ZM12.0837 12.5417C12.0837 12.3576 11.9344 12.2083 11.7503 12.2083H10.917C10.7329 12.2083 10.5837 12.3576 10.5837 12.5417C10.5837 12.7257 10.7329 12.875 10.917 12.875H11.7503C11.9344 12.875 12.0837 12.7257 12.0837 12.5417ZM12.8337 4.91667C12.8337 4.36529 12.385 3.91667 11.8337 3.91667H5.83366C5.28228 3.91667 4.83366 4.36529 4.83366 4.91667V9.33333C4.83366 9.88471 5.28228 10.3333 5.83366 10.3333H11.8337C12.385 10.3333 12.8337 9.88471 12.8337 9.33333V4.91667ZM11.8337 4.58333H5.83366C5.64987 4.58333 5.50033 4.73288 5.50033 4.91667V9.33333C5.50033 9.51713 5.64987 9.66667 5.83366 9.66667H11.8337C12.0175 9.66667 12.167 9.51713 12.167 9.33333V4.91667C12.167 4.73288 12.0175 4.58333 11.8337 4.58333Z" fill="#1642C5"/>
</g>
<defs>
<clipPath id="clip0_547_13603">
<rect width="20" height="20" fill="white"/>
</clipPath>
</defs>
</svg>
