<svg width="64" height="64" viewBox="0 0 64 64" fill="none" xmlns="http://www.w3.org/2000/svg">
<rect width="64" height="64" rx="20" fill="#1642C5"/>
<path d="M49 32C50.6569 32 52.023 33.3506 51.7754 34.9888C51.3381 37.8826 50.2689 40.6578 48.6294 43.1114C46.4318 46.4004 43.3082 48.9638 39.6537 50.4776C35.9991 51.9913 31.9778 52.3874 28.0982 51.6157C24.2186 50.844 20.6549 48.9392 17.8579 46.1421C15.0608 43.3451 13.156 39.7814 12.3843 35.9018C11.6126 32.0222 12.0087 28.0009 13.5224 24.3463C15.0362 20.6918 17.5996 17.5682 20.8886 15.3706C23.3422 13.7311 26.1174 12.6619 29.0112 12.2246C30.6494 11.977 32 13.3431 32 15V15C32 16.6569 30.6418 17.9679 29.0229 18.3202C27.3175 18.6914 25.6878 19.38 24.222 20.3594C21.9197 21.8978 20.1253 24.0843 19.0657 26.6424C18.0061 29.2006 17.7288 32.0155 18.269 34.7313C18.8092 37.447 20.1426 39.9416 22.1005 41.8995C24.0584 43.8574 26.553 45.1908 29.2687 45.731C31.9845 46.2712 34.7994 45.9939 37.3576 44.9343C39.9157 43.8747 42.1022 42.0803 43.6406 39.778C44.62 38.3122 45.3086 36.6825 45.6798 34.9771C46.0321 33.3582 47.3431 32 49 32V32Z" fill="white"/>
<circle cx="45" cy="19" r="7" fill="white"/>
</svg>
