<svg width="64" height="64" viewBox="0 0 64 64" fill="none" xmlns="http://www.w3.org/2000/svg">
<rect width="64" height="64" rx="20" fill="#1642C5"/>
<path d="M44.0208 19.9792C45.1924 18.8076 47.1134 18.7966 48.0968 20.1301C49.8337 22.4855 51.04 25.2039 51.6157 28.0982C52.3874 31.9778 51.9913 35.9991 50.4776 39.6537C48.9638 43.3082 46.4004 46.4318 43.1114 48.6294C39.8224 50.827 35.9556 52 32 52C28.0444 52 24.1776 50.827 20.8886 48.6294C17.5996 46.4318 15.0362 43.3082 13.5224 39.6537C12.0087 35.9991 11.6126 31.9778 12.3843 28.0982C12.96 25.2039 14.1663 22.4855 15.9033 20.1301C16.8866 18.7966 18.8076 18.8076 19.9792 19.9792V19.9792C21.1508 21.1508 21.1174 23.0382 20.2218 24.4321C19.2784 25.9004 18.6129 27.5397 18.269 29.2687C17.7288 31.9845 18.0061 34.7994 19.0657 37.3576C20.1253 39.9157 21.9197 42.1022 24.222 43.6406C26.5243 45.1789 29.2311 46 32 46C34.7689 46 37.4757 45.1789 39.778 43.6406C42.0803 42.1022 43.8747 39.9157 44.9343 37.3576C45.9939 34.7994 46.2712 31.9845 45.731 29.2687C45.3871 27.5397 44.7216 25.9004 43.7782 24.4321C42.8826 23.0382 42.8492 21.1508 44.0208 19.9792V19.9792Z" fill="white"/>
<circle cx="32" cy="18" r="6" fill="white"/>
<circle cx="32" cy="34" r="4" fill="white"/>
</svg>
