<svg width="64" height="64" viewBox="0 0 64 64" fill="none" xmlns="http://www.w3.org/2000/svg">
<rect width="64" height="64" rx="20" fill="#1642C5"/>
<path d="M48.4207 36.3999C50.0211 36.8287 50.9912 38.4869 50.328 40.0053C48.9811 43.089 46.8705 45.7989 44.1752 47.8671C40.6823 50.5473 36.4027 52 32 52C27.5973 52 23.3177 50.5473 19.8248 47.8671C17.1295 45.7989 15.0189 43.089 13.672 40.0053C13.0088 38.4869 13.9789 36.8288 15.5793 36.3999V36.3999C17.1797 35.9711 18.7975 36.9437 19.5569 38.4163C20.4967 40.2388 21.8312 41.8438 23.4773 43.1069C25.9224 44.9831 28.9181 46 32 46C35.0819 46 38.0776 44.9831 40.5227 43.1069C42.1688 41.8438 43.5033 40.2388 44.4431 38.4163C45.2025 36.9437 46.8203 35.9711 48.4207 36.3999V36.3999Z" fill="white"/>
<path d="M15.5793 27.6001C13.9789 27.1713 13.0088 25.5131 13.672 23.9947C15.0189 20.911 17.1295 18.2011 19.8248 16.1329C23.3177 13.4528 27.5973 12 32 12C36.4027 12 40.6823 13.4527 44.1752 16.1329C46.8705 18.2011 48.9811 20.911 50.328 23.9947C50.9912 25.5131 50.0211 27.1712 48.4207 27.6001V27.6001C46.8203 28.0289 45.2025 27.0563 44.4431 25.5837C43.5033 23.7612 42.1688 22.1562 40.5227 20.8931C38.0776 19.0169 35.0819 18 32 18C28.9181 18 25.9224 19.0169 23.4773 20.8931C21.8312 22.1562 20.4967 23.7612 19.5569 25.5837C18.7975 27.0563 17.1797 28.0289 15.5793 27.6001V27.6001Z" fill="white"/>
<circle cx="32" cy="32" r="8" fill="white"/>
</svg>
