<svg width="362" height="244" viewBox="0 0 362 244" fill="none" xmlns="http://www.w3.org/2000/svg">
<g filter="url(#filter0_d_545_8410)">
<rect x="64" y="44" width="234" height="116" rx="24" fill="white"/>
</g>
<path d="M89.9766 136.416H90.9531V134.785C93.7852 134.629 95.7871 133.174 95.7871 130.703V130.684C95.7871 128.564 94.4395 127.451 91.7246 126.875L90.9531 126.719V123.33C92.1152 123.467 92.8281 124.053 92.9746 125.02L92.9941 125.107H95.6016L95.582 124.941C95.3867 122.686 93.6582 121.299 90.9531 121.133V119.492H89.9766V121.123C87.1934 121.26 85.3086 122.793 85.3086 125.078V125.098C85.3086 127.168 86.6367 128.379 89.2441 128.926L89.9766 129.082V132.578C88.5605 132.451 87.8965 131.807 87.7305 130.908L87.7109 130.801H85.1035L85.1133 130.947C85.2695 133.252 87.1738 134.639 89.9766 134.785V136.416ZM88.0332 124.883V124.863C88.0332 124.082 88.6875 123.438 89.9766 123.32V126.514C88.5703 126.201 88.0332 125.674 88.0332 124.883ZM93.0625 130.957V130.977C93.0625 131.855 92.418 132.49 90.9531 132.598V129.287C92.5742 129.639 93.0625 130.117 93.0625 130.957ZM103.443 135.244C106.803 135.244 109.117 133.574 109.117 131.152V131.133C109.117 129.307 107.76 127.959 105.875 127.588V127.529C107.496 127.129 108.609 125.947 108.609 124.443V124.424C108.609 122.246 106.48 120.664 103.443 120.664C100.396 120.664 98.2773 122.246 98.2773 124.424V124.443C98.2773 125.947 99.3809 127.129 101.012 127.529V127.588C99.1172 127.959 97.7598 129.307 97.7598 131.133V131.152C97.7598 133.574 100.084 135.244 103.443 135.244ZM103.443 126.641C102.115 126.641 101.188 125.85 101.188 124.717V124.697C101.188 123.574 102.125 122.793 103.443 122.793C104.762 122.793 105.689 123.574 105.689 124.697V124.717C105.689 125.85 104.771 126.641 103.443 126.641ZM103.443 133.096C101.9 133.096 100.816 132.197 100.816 130.957V130.938C100.816 129.688 101.891 128.779 103.443 128.779C104.996 128.779 106.061 129.688 106.061 130.938V130.957C106.061 132.197 104.977 133.096 103.443 133.096ZM110.162 137.939H112.135L113.57 132.539H110.875L110.162 137.939ZM115.602 135H125.846V132.656H119.459V132.539L122.408 129.844C124.84 127.607 125.65 126.494 125.65 124.785V124.766C125.65 122.363 123.6 120.664 120.621 120.664C117.643 120.664 115.436 122.529 115.436 125.186V125.264H118.17L118.18 125.176C118.219 123.906 119.195 122.959 120.641 122.959C121.891 122.959 122.77 123.779 122.779 124.932V124.951C122.779 125.928 122.398 126.621 120.582 128.32L115.602 132.979V135ZM128.404 135H131.5L137.379 123.281V120.908H127.301V123.252H134.469V123.311L128.404 135ZM144.762 135H147.564V132.412H149.42V130.059H147.564V120.908H143.404L137.75 129.951V132.412H144.762V135ZM140.318 130.137V130.059L144.752 123.037H144.82V130.137H140.318ZM152.408 135.166C153.287 135.166 153.99 134.463 153.99 133.584C153.99 132.695 153.287 132.002 152.408 132.002C151.52 132.002 150.826 132.695 150.826 133.584C150.826 134.463 151.52 135.166 152.408 135.166ZM158.561 135H161.48V120.908H158.551L154.908 123.438V126.055L158.502 123.613H158.561V135ZM170.143 135.244C173.502 135.244 175.816 133.574 175.816 131.152V131.133C175.816 129.307 174.459 127.959 172.574 127.588V127.529C174.195 127.129 175.309 125.947 175.309 124.443V124.424C175.309 122.246 173.18 120.664 170.143 120.664C167.096 120.664 164.977 122.246 164.977 124.424V124.443C164.977 125.947 166.08 127.129 167.711 127.529V127.588C165.816 127.959 164.459 129.307 164.459 131.133V131.152C164.459 133.574 166.783 135.244 170.143 135.244ZM170.143 126.641C168.814 126.641 167.887 125.85 167.887 124.717V124.697C167.887 123.574 168.824 122.793 170.143 122.793C171.461 122.793 172.389 123.574 172.389 124.697V124.717C172.389 125.85 171.471 126.641 170.143 126.641ZM170.143 133.096C168.6 133.096 167.516 132.197 167.516 130.957V130.938C167.516 129.688 168.59 128.779 170.143 128.779C171.695 128.779 172.76 129.688 172.76 130.938V130.957C172.76 132.197 171.676 133.096 170.143 133.096Z" fill="#1642C5"/>
<rect x="84" y="64" width="36" height="36" rx="8" fill="#E4EBFF"/>
<path d="M102.625 85.2666H103.167C103.708 85.2666 104.158 84.7833 104.158 84.1999C104.158 83.4749 103.9 83.3333 103.475 83.1833L102.633 82.8916V85.2666H102.625Z" fill="#1642C5"/>
<path d="M101.975 73.5833C97.3749 73.5999 93.6499 77.3416 93.6666 81.9416C93.6832 86.5416 97.4249 90.2666 102.025 90.2499C106.625 90.2333 110.35 86.4916 110.333 81.8916C110.317 77.2916 106.575 73.5749 101.975 73.5833ZM103.883 81.9999C104.533 82.2249 105.408 82.7083 105.408 84.1999C105.408 85.4833 104.4 86.5166 103.167 86.5166H102.625V86.9999C102.625 87.3416 102.342 87.6249 102 87.6249C101.658 87.6249 101.375 87.3416 101.375 86.9999V86.5166H101.075C99.7082 86.5166 98.5999 85.3666 98.5999 83.9499C98.5999 83.6083 98.8832 83.3249 99.2249 83.3249C99.5666 83.3249 99.8499 83.6083 99.8499 83.9499C99.8499 84.6749 100.4 85.2666 101.075 85.2666H101.375V82.4499L100.117 81.9999C99.4666 81.7749 98.5916 81.2916 98.5916 79.7999C98.5916 78.5166 99.5999 77.4833 100.833 77.4833H101.375V76.9999C101.375 76.6583 101.658 76.3749 102 76.3749C102.342 76.3749 102.625 76.6583 102.625 76.9999V77.4833H102.925C104.292 77.4833 105.4 78.6333 105.4 80.0499C105.4 80.3916 105.117 80.6749 104.775 80.6749C104.433 80.6749 104.15 80.3916 104.15 80.0499C104.15 79.3249 103.6 78.7333 102.925 78.7333H102.625V81.5499L103.883 81.9999Z" fill="#1642C5"/>
<path d="M99.8501 79.8084C99.8501 80.5334 100.108 80.6751 100.533 80.8251L101.375 81.1167V78.7334H100.833C100.292 78.7334 99.8501 79.2167 99.8501 79.8084Z" fill="#1642C5"/>
<path d="M137.161 87.0889C139.431 87.0889 141.105 85.6875 141.358 83.6641L141.372 83.5957H139.643L139.622 83.6641C139.301 84.8809 138.419 85.5576 137.161 85.5576C135.445 85.5576 134.338 84.1768 134.338 81.9824V81.9756C134.338 79.7881 135.438 78.4141 137.161 78.4141C138.446 78.4141 139.314 79.1182 139.602 80.2461L139.636 80.376H141.365L141.358 80.3076C141.099 78.2979 139.431 76.8828 137.161 76.8828C134.331 76.8828 132.533 78.8242 132.533 81.9756V81.9824C132.533 85.1338 134.324 87.0889 137.161 87.0889ZM144.653 87.041C145.61 87.041 146.417 86.5625 146.834 85.8037H146.875V86.918H148.577V81.9346C148.577 80.4785 147.408 79.5215 145.597 79.5215C143.758 79.5215 142.644 80.4854 142.541 81.7705L142.534 81.8525H144.113L144.127 81.791C144.236 81.2578 144.729 80.8818 145.535 80.8818C146.396 80.8818 146.875 81.3262 146.875 82.0576V82.5566L144.981 82.6729C143.225 82.7822 142.227 83.5547 142.227 84.8398V84.8535C142.227 86.1455 143.204 87.041 144.653 87.041ZM143.922 84.7852V84.7783C143.922 84.2041 144.38 83.8418 145.221 83.7871L146.875 83.6846V84.2314C146.875 85.0928 146.137 85.7422 145.159 85.7422C144.414 85.7422 143.922 85.3799 143.922 84.7852ZM149.951 86.918H151.653V82.4814C151.653 81.5996 152.228 80.957 153.048 80.957C153.841 80.957 154.333 81.4629 154.333 82.2764V86.918H155.987V82.4404C155.987 81.5654 156.548 80.957 157.368 80.957C158.202 80.957 158.667 81.4697 158.667 82.3652V86.918H160.369V81.9414C160.369 80.4922 159.433 79.5215 158.004 79.5215C156.958 79.5215 156.097 80.082 155.748 80.9844H155.707C155.44 80.0547 154.709 79.5215 153.697 79.5215C152.74 79.5215 151.995 80.041 151.688 80.834H151.653V79.6719H149.951V86.918ZM161.736 89.3105H163.438V85.6943H163.473C163.883 86.542 164.71 87.0615 165.742 87.0615C167.561 87.0615 168.723 85.626 168.723 83.3018V83.2949C168.723 80.957 167.561 79.5215 165.722 79.5215C164.683 79.5215 163.89 80.0547 163.473 80.9229H163.438V79.6719H161.736V89.3105ZM165.216 85.626C164.163 85.626 163.425 84.7168 163.425 83.3018V83.2949C163.425 81.873 164.163 80.957 165.216 80.957C166.303 80.957 166.986 81.8457 166.986 83.2949V83.3018C166.986 84.7305 166.303 85.626 165.216 85.626ZM171.956 87.041C172.913 87.041 173.72 86.5625 174.137 85.8037H174.178V86.918H175.88V81.9346C175.88 80.4785 174.711 79.5215 172.899 79.5215C171.061 79.5215 169.946 80.4854 169.844 81.7705L169.837 81.8525H171.416L171.43 81.791C171.539 81.2578 172.031 80.8818 172.838 80.8818C173.699 80.8818 174.178 81.3262 174.178 82.0576V82.5566L172.284 82.6729C170.527 82.7822 169.529 83.5547 169.529 84.8398V84.8535C169.529 86.1455 170.507 87.041 171.956 87.041ZM171.225 84.7852V84.7783C171.225 84.2041 171.683 83.8418 172.523 83.7871L174.178 83.6846V84.2314C174.178 85.0928 173.439 85.7422 172.462 85.7422C171.717 85.7422 171.225 85.3799 171.225 84.7852ZM178.156 78.6328C178.689 78.6328 179.1 78.209 179.1 77.7031C179.1 77.1836 178.689 76.7666 178.156 76.7666C177.623 76.7666 177.206 77.1836 177.206 77.7031C177.206 78.209 177.623 78.6328 178.156 78.6328ZM177.302 86.918H179.004V79.6719H177.302V86.918ZM183.721 89.4541C185.819 89.4541 187.139 88.3535 187.139 86.7129V79.6719H185.437V80.9023H185.396C184.985 80.0684 184.192 79.5215 183.167 79.5215C181.335 79.5215 180.152 80.9297 180.152 83.2197V83.2266C180.152 85.4824 181.321 86.877 183.14 86.877C184.179 86.877 184.999 86.3848 185.402 85.6123H185.437V86.6582C185.437 87.5811 184.828 88.1689 183.721 88.1689C182.832 88.1689 182.251 87.8545 182.066 87.4375L182.046 87.3828H180.371L180.385 87.4443C180.59 88.5791 181.8 89.4541 183.721 89.4541ZM183.673 85.5645C182.579 85.5645 181.889 84.6826 181.889 83.2539V83.2471C181.889 81.8389 182.579 80.957 183.673 80.957C184.726 80.957 185.443 81.8525 185.443 83.2539V83.2607C185.443 84.6689 184.732 85.5645 183.673 85.5645ZM188.533 86.918H190.235V82.7139C190.235 81.668 190.857 80.957 191.835 80.957C192.806 80.957 193.284 81.5381 193.284 82.5703V86.918H194.986V82.2285C194.986 80.5469 194.077 79.5215 192.484 79.5215C191.384 79.5215 190.646 80.0273 190.27 80.8066H190.235V79.6719H188.533V86.918ZM199.156 89.3105H200.858V85.6943H200.893C201.303 86.542 202.13 87.0615 203.162 87.0615C204.98 87.0615 206.143 85.626 206.143 83.3018V83.2949C206.143 80.957 204.98 79.5215 203.142 79.5215C202.103 79.5215 201.31 80.0547 200.893 80.9229H200.858V79.6719H199.156V89.3105ZM202.636 85.626C201.583 85.626 200.845 84.7168 200.845 83.3018V83.2949C200.845 81.873 201.583 80.957 202.636 80.957C203.723 80.957 204.406 81.8457 204.406 83.2949V83.3018C204.406 84.7305 203.723 85.626 202.636 85.626ZM210.422 87.0615C212.315 87.0615 213.382 85.9404 213.607 84.8262L213.628 84.751H212.035L212.021 84.7988C211.857 85.2842 211.304 85.7354 210.456 85.7354C209.349 85.7354 208.651 84.9834 208.624 83.7119H213.696V83.165C213.696 80.9775 212.411 79.5215 210.34 79.5215C208.269 79.5215 206.936 81.0254 206.936 83.3086V83.3154C206.936 85.6191 208.248 87.0615 210.422 87.0615ZM210.36 80.8545C211.263 80.8545 211.919 81.4287 212.042 82.5771H208.645C208.781 81.4629 209.458 80.8545 210.36 80.8545ZM214.797 86.918H216.499V82.7139C216.499 81.6406 217.08 81.0322 218.044 81.0322C218.331 81.0322 218.591 81.0732 218.734 81.1279V79.5898C218.604 79.5557 218.406 79.5215 218.194 79.5215C217.36 79.5215 216.759 80.0479 216.533 80.9229H216.499V79.6719H214.797V86.918ZM220.108 86.918H221.811V80.9844H223.232V79.6719H221.776V79.0293C221.776 78.4414 222.084 78.1338 222.747 78.1338C222.932 78.1338 223.123 78.1475 223.26 78.168V76.9785C223.048 76.9375 222.686 76.9102 222.351 76.9102C220.778 76.9102 220.108 77.5664 220.108 78.9814V79.6719H219.117V80.9844H220.108V86.918ZM226.985 87.0615C229.111 87.0615 230.492 85.6465 230.492 83.2949V83.2812C230.492 80.9434 229.091 79.5215 226.979 79.5215C224.873 79.5215 223.479 80.957 223.479 83.2812V83.2949C223.479 85.6396 224.853 87.0615 226.985 87.0615ZM226.992 85.6875C225.905 85.6875 225.215 84.8193 225.215 83.2949V83.2812C225.215 81.7773 225.919 80.9023 226.979 80.9023C228.059 80.9023 228.756 81.7705 228.756 83.2812V83.2949C228.756 84.8125 228.065 85.6875 226.992 85.6875ZM231.586 86.918H233.288V82.7139C233.288 81.6406 233.869 81.0322 234.833 81.0322C235.12 81.0322 235.38 81.0732 235.523 81.1279V79.5898C235.394 79.5557 235.195 79.5215 234.983 79.5215C234.149 79.5215 233.548 80.0479 233.322 80.9229H233.288V79.6719H231.586V86.918ZM236.398 86.918H238.101V82.4814C238.101 81.5996 238.675 80.957 239.495 80.957C240.288 80.957 240.78 81.4629 240.78 82.2764V86.918H242.435V82.4404C242.435 81.5654 242.995 80.957 243.815 80.957C244.649 80.957 245.114 81.4697 245.114 82.3652V86.918H246.816V81.9414C246.816 80.4922 245.88 79.5215 244.451 79.5215C243.405 79.5215 242.544 80.082 242.195 80.9844H242.154C241.888 80.0547 241.156 79.5215 240.145 79.5215C239.188 79.5215 238.442 80.041 238.135 80.834H238.101V79.6719H236.398V86.918ZM250.323 87.041C251.28 87.041 252.087 86.5625 252.504 85.8037H252.545V86.918H254.247V81.9346C254.247 80.4785 253.078 79.5215 251.267 79.5215C249.428 79.5215 248.313 80.4854 248.211 81.7705L248.204 81.8525H249.783L249.797 81.791C249.906 81.2578 250.398 80.8818 251.205 80.8818C252.066 80.8818 252.545 81.3262 252.545 82.0576V82.5566L250.651 82.6729C248.895 82.7822 247.896 83.5547 247.896 84.8398V84.8535C247.896 86.1455 248.874 87.041 250.323 87.041ZM249.592 84.7852V84.7783C249.592 84.2041 250.05 83.8418 250.891 83.7871L252.545 83.6846V84.2314C252.545 85.0928 251.807 85.7422 250.829 85.7422C250.084 85.7422 249.592 85.3799 249.592 84.7852ZM255.621 86.918H257.323V82.7139C257.323 81.668 257.945 80.957 258.923 80.957C259.894 80.957 260.372 81.5381 260.372 82.5703V86.918H262.074V82.2285C262.074 80.5469 261.165 79.5215 259.572 79.5215C258.472 79.5215 257.733 80.0273 257.357 80.8066H257.323V79.6719H255.621V86.918ZM266.641 87.0615C268.473 87.0615 269.696 85.9131 269.826 84.4023L269.833 84.3545H268.227L268.213 84.416C268.056 85.1748 267.509 85.6875 266.647 85.6875C265.574 85.6875 264.877 84.8125 264.877 83.3018V83.2949C264.877 81.8115 265.567 80.9023 266.641 80.9023C267.543 80.9023 268.062 81.4697 268.206 82.1738L268.22 82.2354H269.826L269.819 82.1807C269.717 80.7314 268.527 79.5215 266.62 79.5215C264.508 79.5215 263.141 80.9707 263.141 83.2812V83.2881C263.141 85.6123 264.487 87.0615 266.641 87.0615ZM274.037 87.0615C275.931 87.0615 276.997 85.9404 277.223 84.8262L277.243 84.751H275.65L275.637 84.7988C275.473 85.2842 274.919 85.7354 274.071 85.7354C272.964 85.7354 272.267 84.9834 272.239 83.7119H277.312V83.165C277.312 80.9775 276.026 79.5215 273.955 79.5215C271.884 79.5215 270.551 81.0254 270.551 83.3086V83.3154C270.551 85.6191 271.863 87.0615 274.037 87.0615ZM273.976 80.8545C274.878 80.8545 275.534 81.4287 275.657 82.5771H272.26C272.396 81.4629 273.073 80.8545 273.976 80.8545Z" fill="#1F293C"/>
<defs>
<filter id="filter0_d_545_8410" x="0" y="0" width="362" height="244" filterUnits="userSpaceOnUse" color-interpolation-filters="sRGB">
<feFlood flood-opacity="0" result="BackgroundImageFix"/>
<feColorMatrix in="SourceAlpha" type="matrix" values="0 0 0 0 0 0 0 0 0 0 0 0 0 0 0 0 0 0 127 0" result="hardAlpha"/>
<feOffset dy="20"/>
<feGaussianBlur stdDeviation="32"/>
<feColorMatrix type="matrix" values="0 0 0 0 0.121569 0 0 0 0 0.160784 0 0 0 0 0.235294 0 0 0 0.15 0"/>
<feBlend mode="normal" in2="BackgroundImageFix" result="effect1_dropShadow_545_8410"/>
<feBlend mode="normal" in="SourceGraphic" in2="effect1_dropShadow_545_8410" result="shape"/>
</filter>
</defs>
</svg>
