<svg width="253" height="252" viewBox="0 0 253 252" fill="none" xmlns="http://www.w3.org/2000/svg">
<g filter="url(#filter0_d_526_4576)">
<rect x="64" y="44" width="125" height="124" rx="24" fill="white"/>
</g>
<rect x="74" y="68" width="2" height="76" rx="1" fill="#ADC516"/>
<path d="M88.3701 76.1709C90.3936 76.1709 91.5693 74.9951 91.5693 72.9922V66.1357H89.8125V72.9785C89.8125 74.0518 89.3066 74.626 88.3496 74.626C87.4814 74.626 87.0166 74.0586 86.9688 73.2998L86.9619 73.2451H85.2393L85.2461 73.3203C85.3145 75.0156 86.4492 76.1709 88.3701 76.1709ZM96.375 76.1436C98.2686 76.1436 99.335 75.0225 99.5605 73.9082L99.5811 73.833H97.9883L97.9746 73.8809C97.8105 74.3662 97.2568 74.8174 96.4092 74.8174C95.3018 74.8174 94.6045 74.0654 94.5771 72.7939H99.6494V72.2471C99.6494 70.0596 98.3643 68.6035 96.293 68.6035C94.2217 68.6035 92.8887 70.1074 92.8887 72.3906V72.3975C92.8887 74.7012 94.2012 76.1436 96.375 76.1436ZM96.3135 69.9365C97.2158 69.9365 97.8721 70.5107 97.9951 71.6592H94.5977C94.7344 70.5449 95.4111 69.9365 96.3135 69.9365ZM100.75 76H102.452V71.7959C102.452 70.75 103.074 70.0391 104.052 70.0391C105.022 70.0391 105.501 70.6201 105.501 71.6523V76H107.203V71.3105C107.203 69.6289 106.294 68.6035 104.701 68.6035C103.601 68.6035 102.862 69.1094 102.486 69.8887H102.452V68.7539H100.75V76ZM108.57 76H110.272V71.7959C110.272 70.75 110.895 70.0391 111.872 70.0391C112.843 70.0391 113.321 70.6201 113.321 71.6523V76H115.023V71.3105C115.023 69.6289 114.114 68.6035 112.521 68.6035C111.421 68.6035 110.683 69.1094 110.307 69.8887H110.272V68.7539H108.57V76ZM117.334 78.4062C118.845 78.4062 119.692 77.8389 120.246 76.2461L122.851 68.7539H121.06L119.357 74.5508H119.31L117.614 68.7539H115.755L118.359 76.0068L118.257 76.3008C118.038 76.9092 117.676 77.0938 117.026 77.0938C116.787 77.0938 116.589 77.0596 116.459 77.0322V78.3311C116.664 78.3652 117.006 78.4062 117.334 78.4062ZM128.682 76H130.384L132.373 68.9248H132.414L134.403 76H136.105L138.751 66.1357H136.919L135.203 73.5801H135.169L133.193 66.1357H131.594L129.618 73.5801H129.584L127.868 66.1357H126.036L128.682 76ZM140.645 67.7148C141.178 67.7148 141.588 67.291 141.588 66.7852C141.588 66.2656 141.178 65.8486 140.645 65.8486C140.111 65.8486 139.694 66.2656 139.694 66.7852C139.694 67.291 140.111 67.7148 140.645 67.7148ZM139.79 76H141.492V68.7539H139.79V76ZM142.989 76H144.691V66.1357H142.989V76ZM148.971 76.1436C150.748 76.1436 152.013 75.2275 152.013 73.8604V73.8535C152.013 72.8008 151.432 72.2129 149.935 71.8779L148.725 71.6113C147.973 71.4404 147.692 71.167 147.692 70.75V70.7432C147.692 70.21 148.164 69.8613 148.916 69.8613C149.709 69.8613 150.174 70.2852 150.249 70.8662L150.256 70.9209H151.842L151.835 70.8457C151.773 69.5947 150.721 68.6035 148.916 68.6035C147.166 68.6035 146.011 69.499 146.011 70.8252V70.832C146.011 71.9053 146.708 72.582 148.096 72.8896L149.299 73.1562C150.051 73.3271 150.304 73.5732 150.304 74.0107V74.0176C150.304 74.5508 149.805 74.8857 148.978 74.8857C148.116 74.8857 147.645 74.5166 147.515 73.8945L147.501 73.833H145.826L145.833 73.8945C145.983 75.2412 147.07 76.1436 148.971 76.1436ZM156.306 76.1436C158.432 76.1436 159.812 74.7285 159.812 72.377V72.3633C159.812 70.0254 158.411 68.6035 156.299 68.6035C154.193 68.6035 152.799 70.0391 152.799 72.3633V72.377C152.799 74.7217 154.173 76.1436 156.306 76.1436ZM156.312 74.7695C155.226 74.7695 154.535 73.9014 154.535 72.377V72.3633C154.535 70.8594 155.239 69.9844 156.299 69.9844C157.379 69.9844 158.076 70.8525 158.076 72.3633V72.377C158.076 73.8945 157.386 74.7695 156.312 74.7695ZM160.906 76H162.608V71.7959C162.608 70.75 163.23 70.0391 164.208 70.0391C165.179 70.0391 165.657 70.6201 165.657 71.6523V76H167.359V71.3105C167.359 69.6289 166.45 68.6035 164.857 68.6035C163.757 68.6035 163.019 69.1094 162.643 69.8887H162.608V68.7539H160.906V76Z" fill="#1F293C"/>
<path d="M84.9951 99H85.8154V93.5557H85.8447L88.0957 99H88.8379L91.0889 93.5557H91.1182V99H91.9385V91.9541H90.9229L88.4814 97.8916H88.4521L86.0107 91.9541H84.9951V99ZM95.2637 99.0977C96.3721 99.0977 97.2021 98.4336 97.3682 97.5938L97.3779 97.5449H96.543L96.5283 97.5889C96.3818 98.0234 95.9277 98.3457 95.2832 98.3457C94.3799 98.3457 93.8037 97.7354 93.7842 96.6904H97.4414V96.3779C97.4414 94.8545 96.5967 93.8242 95.21 93.8242C93.8232 93.8242 92.9248 94.9033 92.9248 96.4756V96.4805C92.9248 98.0771 93.8037 99.0977 95.2637 99.0977ZM95.2051 94.5762C95.9473 94.5762 96.4941 95.04 96.5771 96.0264H93.7988C93.8916 95.0791 94.4678 94.5762 95.2051 94.5762ZM98.3008 99H99.1504V96.0117C99.1504 95.1475 99.6729 94.5762 100.474 94.5762C101.255 94.5762 101.641 95.0303 101.641 95.8555V99H102.49V95.7041C102.49 94.5469 101.846 93.8242 100.732 93.8242C99.9609 93.8242 99.4434 94.1709 99.1699 94.6445H99.1504V93.9219H98.3008V99ZM103.789 94.4395H104.404L104.502 91.9541H103.691L103.789 94.4395ZM107.72 99.0977C108.853 99.0977 109.692 98.4727 109.692 97.584V97.5791C109.692 96.8564 109.321 96.4512 108.296 96.2021L107.49 96.0068C106.929 95.8701 106.699 95.6309 106.699 95.2842V95.2793C106.699 94.8301 107.08 94.5322 107.695 94.5322C108.325 94.5322 108.701 94.8594 108.77 95.3525L108.774 95.3867H109.585L109.58 95.3232C109.517 94.4736 108.809 93.8242 107.695 93.8242C106.597 93.8242 105.83 94.4443 105.83 95.3184V95.3232C105.83 96.0557 106.294 96.5 107.251 96.7295L108.057 96.9248C108.633 97.0664 108.823 97.2715 108.823 97.6377V97.6426C108.823 98.1016 108.413 98.3896 107.725 98.3896C107.031 98.3896 106.655 98.0918 106.553 97.584L106.543 97.5352H105.693L105.698 97.5791C105.801 98.4873 106.523 99.0977 107.72 99.0977ZM112.671 99H113.521V96.0361C113.521 95.1719 114.043 94.5762 114.829 94.5762C115.62 94.5762 116.089 95.1182 116.089 96.0361V99H116.938V95.8896C116.938 94.6592 116.201 93.8242 115.122 93.8242C114.365 93.8242 113.813 94.1611 113.54 94.7324H113.521V91.9541H112.671V99ZM119.502 99.0977C120.181 99.0977 120.791 98.7314 121.089 98.1748H121.108V99H121.958V95.4893C121.958 94.4736 121.206 93.8242 120.005 93.8242C118.809 93.8242 118.081 94.498 118.008 95.333L118.003 95.3867H118.823L118.833 95.3428C118.931 94.8887 119.341 94.5762 119.995 94.5762C120.703 94.5762 121.108 94.9521 121.108 95.5723V95.9971L119.653 96.0801C118.486 96.1484 117.812 96.6904 117.812 97.5547V97.5645C117.812 98.4873 118.491 99.0977 119.502 99.0977ZM118.682 97.5645V97.5547C118.682 97.0811 119.072 96.7783 119.751 96.7393L121.108 96.6562V97.0713C121.108 97.8086 120.493 98.3604 119.692 98.3604C119.082 98.3604 118.682 98.0527 118.682 97.5645ZM123.516 93.0625C123.813 93.0625 124.048 92.8232 124.048 92.5303C124.048 92.2324 123.813 91.998 123.516 91.998C123.223 91.998 122.983 92.2324 122.983 92.5303C122.983 92.8232 123.223 93.0625 123.516 93.0625ZM123.091 99H123.94V93.9219H123.091V99ZM125.098 99H125.947V95.8652C125.947 95.0938 126.377 94.6348 127.036 94.6348C127.241 94.6348 127.422 94.6592 127.49 94.6836V93.8584C127.422 93.8486 127.295 93.8242 127.148 93.8242C126.577 93.8242 126.138 94.1953 125.967 94.7812H125.947V93.9219H125.098V99ZM130.044 99.0977C131.191 99.0977 132.026 98.3506 132.163 97.3838L132.168 97.3496H131.333L131.323 97.3887C131.182 97.9551 130.737 98.3457 130.044 98.3457C129.165 98.3457 128.56 97.6475 128.56 96.4658V96.4609C128.56 95.3086 129.15 94.5762 130.034 94.5762C130.781 94.5762 131.191 95.0254 131.318 95.5332L131.328 95.5723H132.158L132.153 95.5332C132.046 94.6641 131.299 93.8242 130.034 93.8242C128.623 93.8242 127.69 94.8496 127.69 96.4512V96.4561C127.69 98.0723 128.604 99.0977 130.044 99.0977ZM134.683 99.0977C135.454 99.0977 135.972 98.751 136.245 98.2773H136.265V99H137.114V93.9219H136.265V96.9102C136.265 97.7744 135.742 98.3457 134.941 98.3457C134.16 98.3457 133.774 97.8916 133.774 97.0664V93.9219H132.925V97.2178C132.925 98.375 133.569 99.0977 134.683 99.0977ZM139.873 99.0977C140.039 99.0977 140.22 99.0781 140.327 99.0635V98.375C140.254 98.3799 140.156 98.3945 140.054 98.3945C139.6 98.3945 139.36 98.2432 139.36 97.7012V94.625H140.327V93.9219H139.36V92.5498H138.481V93.9219H137.739V94.625H138.481V97.7061C138.481 98.6777 138.94 99.0977 139.873 99.0977Z" fill="#98A7C3"/>
<path d="M87.4688 117.85H88.1016V116.865C89.6836 116.771 90.8613 115.928 90.8613 114.475V114.463C90.8613 113.209 90.0469 112.559 88.459 112.201L88.1016 112.125V109.857C88.8281 109.945 89.3027 110.344 89.3906 110.982L89.3965 111.035H90.7617L90.7559 110.941C90.6504 109.629 89.6191 108.785 88.1016 108.68V107.695H87.4688V108.68C85.9043 108.779 84.8203 109.67 84.8203 111V111.012C84.8203 112.225 85.6172 112.922 87.1406 113.262L87.4688 113.332V115.693C86.5605 115.6 86.1504 115.148 86.0449 114.562L86.0332 114.498H84.668L84.6738 114.58C84.7676 115.934 85.8984 116.771 87.4688 116.865V117.85ZM86.2324 110.906V110.9C86.2324 110.396 86.6543 109.939 87.4688 109.852V111.984C86.5723 111.779 86.2324 111.422 86.2324 110.906ZM89.4551 114.592V114.604C89.4551 115.184 89.0566 115.629 88.1016 115.699V113.473C89.1504 113.713 89.4551 114.041 89.4551 114.592ZM96.7441 117H98.2266V108.545H96.7324L94.5234 110.098V111.486L96.709 109.986H96.7441V117ZM103.412 117.146C105.48 117.146 106.734 115.465 106.734 112.775V112.764C106.734 110.074 105.48 108.398 103.412 108.398C101.338 108.398 100.09 110.074 100.09 112.764V112.775C100.09 115.465 101.338 117.146 103.412 117.146ZM103.412 115.91C102.27 115.91 101.613 114.727 101.613 112.775V112.764C101.613 110.812 102.27 109.641 103.412 109.641C104.549 109.641 105.211 110.812 105.211 112.764V112.775C105.211 114.727 104.549 115.91 103.412 115.91ZM111.064 117.146C113.133 117.146 114.387 115.465 114.387 112.775V112.764C114.387 110.074 113.133 108.398 111.064 108.398C108.99 108.398 107.742 110.074 107.742 112.764V112.775C107.742 115.465 108.99 117.146 111.064 117.146ZM111.064 115.91C109.922 115.91 109.266 114.727 109.266 112.775V112.764C109.266 110.812 109.922 109.641 111.064 109.641C112.201 109.641 112.863 110.812 112.863 112.764V112.775C112.863 114.727 112.201 115.91 111.064 115.91ZM116.01 117.094C116.484 117.094 116.854 116.719 116.854 116.244C116.854 115.775 116.484 115.4 116.01 115.4C115.535 115.4 115.16 115.775 115.16 116.244C115.16 116.719 115.535 117.094 116.01 117.094ZM121.107 117.146C123.176 117.146 124.43 115.465 124.43 112.775V112.764C124.43 110.074 123.176 108.398 121.107 108.398C119.033 108.398 117.785 110.074 117.785 112.764V112.775C117.785 115.465 119.033 117.146 121.107 117.146ZM121.107 115.91C119.965 115.91 119.309 114.727 119.309 112.775V112.764C119.309 110.812 119.965 109.641 121.107 109.641C122.244 109.641 122.906 110.812 122.906 112.764V112.775C122.906 114.727 122.244 115.91 121.107 115.91ZM128.76 117.146C130.828 117.146 132.082 115.465 132.082 112.775V112.764C132.082 110.074 130.828 108.398 128.76 108.398C126.686 108.398 125.438 110.074 125.438 112.764V112.775C125.438 115.465 126.686 117.146 128.76 117.146ZM128.76 115.91C127.617 115.91 126.961 114.727 126.961 112.775V112.764C126.961 110.812 127.617 109.641 128.76 109.641C129.896 109.641 130.559 110.812 130.559 112.764V112.775C130.559 114.727 129.896 115.91 128.76 115.91Z" fill="#1642C5"/>
<rect x="84" y="132" width="70" height="16" rx="8" fill="#98A7C3" fill-opacity="0.2"/>
<path d="M94.5234 143.098C95.8125 143.098 96.7148 142.426 96.7148 141.465V141.457C96.7148 140.742 96.1914 140.188 95.4453 140.035V140.012C96.0859 139.84 96.5078 139.371 96.5078 138.77V138.762C96.5078 137.898 95.6875 137.266 94.5234 137.266C93.3633 137.266 92.5391 137.898 92.5391 138.762V138.77C92.5391 139.371 92.9609 139.84 93.6016 140.012V140.035C92.8555 140.188 92.3359 140.742 92.3359 141.457V141.465C92.3359 142.426 93.2344 143.098 94.5234 143.098ZM94.5234 139.691C93.9375 139.691 93.5352 139.352 93.5352 138.863V138.855C93.5352 138.367 93.9414 138.027 94.5234 138.027C95.1055 138.027 95.5117 138.367 95.5117 138.855V138.863C95.5117 139.352 95.1094 139.691 94.5234 139.691ZM94.5234 142.328C93.8516 142.328 93.3711 141.941 93.3711 141.402V141.395C93.3711 140.852 93.8438 140.461 94.5234 140.461C95.2031 140.461 95.6758 140.852 95.6758 141.395V141.402C95.6758 141.941 95.1992 142.328 94.5234 142.328ZM97.9727 139.312C98.2891 139.312 98.5352 139.062 98.5352 138.746C98.5352 138.43 98.2891 138.184 97.9727 138.184C97.6562 138.184 97.4062 138.43 97.4062 138.746C97.4062 139.062 97.6562 139.312 97.9727 139.312ZM97.9727 142.18C98.2891 142.18 98.5352 141.93 98.5352 141.613C98.5352 141.297 98.2891 141.051 97.9727 141.051C97.6562 141.051 97.4062 141.297 97.4062 141.613C97.4062 141.93 97.6562 142.18 97.9727 142.18ZM101.328 143.098C102.574 143.098 103.434 142.41 103.434 141.43V141.422C103.434 140.641 102.883 140.148 102.051 140.07V140.051C102.727 139.91 103.234 139.445 103.234 138.746V138.738C103.234 137.863 102.48 137.266 101.316 137.266C100.18 137.266 99.4102 137.898 99.3281 138.852L99.3242 138.898H100.262L100.266 138.859C100.316 138.375 100.723 138.066 101.316 138.066C101.922 138.066 102.266 138.363 102.266 138.871V138.879C102.266 139.371 101.852 139.723 101.23 139.723H100.586V140.473H101.254C101.973 140.473 102.41 140.801 102.41 141.395V141.402C102.41 141.914 101.977 142.273 101.324 142.273C100.664 142.273 100.227 141.941 100.172 141.484L100.168 141.441H99.2031L99.207 141.488C99.2852 142.434 100.09 143.098 101.328 143.098ZM106.348 143.098C107.727 143.098 108.562 141.977 108.562 140.184V140.176C108.562 138.383 107.727 137.266 106.348 137.266C104.965 137.266 104.133 138.383 104.133 140.176V140.184C104.133 141.977 104.965 143.098 106.348 143.098ZM106.348 142.273C105.586 142.273 105.148 141.484 105.148 140.184V140.176C105.148 138.875 105.586 138.094 106.348 138.094C107.105 138.094 107.547 138.875 107.547 140.176V140.184C107.547 141.484 107.105 142.273 106.348 142.273ZM110.984 141.145H113.504V140.277H110.984V141.145ZM118.102 137.266C116.887 137.266 115.992 138.082 115.992 139.219V139.227C115.992 140.285 116.758 141.066 117.844 141.066C118.605 141.066 119.168 140.676 119.391 140.16H119.414C119.414 140.223 119.41 140.281 119.406 140.34C119.367 141.406 118.988 142.273 118.082 142.273C117.578 142.273 117.234 142.023 117.082 141.637L117.07 141.602H116.07L116.078 141.645C116.254 142.496 117.035 143.098 118.078 143.098C119.516 143.098 120.379 141.984 120.379 140.121V140.113C120.379 138.137 119.344 137.266 118.102 137.266ZM118.102 140.289C117.461 140.289 116.984 139.832 116.984 139.191V139.184C116.984 138.574 117.488 138.09 118.113 138.09C118.746 138.09 119.238 138.578 119.238 139.203V139.207C119.238 139.836 118.746 140.289 118.102 140.289ZM121.637 139.312C121.953 139.312 122.199 139.062 122.199 138.746C122.199 138.43 121.953 138.184 121.637 138.184C121.32 138.184 121.07 138.43 121.07 138.746C121.07 139.062 121.32 139.312 121.637 139.312ZM121.637 142.18C121.953 142.18 122.199 141.93 122.199 141.613C122.199 141.297 121.953 141.051 121.637 141.051C121.32 141.051 121.07 141.297 121.07 141.613C121.07 141.93 121.32 142.18 121.637 142.18ZM124.992 143.098C126.238 143.098 127.098 142.41 127.098 141.43V141.422C127.098 140.641 126.547 140.148 125.715 140.07V140.051C126.391 139.91 126.898 139.445 126.898 138.746V138.738C126.898 137.863 126.145 137.266 124.98 137.266C123.844 137.266 123.074 137.898 122.992 138.852L122.988 138.898H123.926L123.93 138.859C123.98 138.375 124.387 138.066 124.98 138.066C125.586 138.066 125.93 138.363 125.93 138.871V138.879C125.93 139.371 125.516 139.723 124.895 139.723H124.25V140.473H124.918C125.637 140.473 126.074 140.801 126.074 141.395V141.402C126.074 141.914 125.641 142.273 124.988 142.273C124.328 142.273 123.891 141.941 123.836 141.484L123.832 141.441H122.867L122.871 141.488C122.949 142.434 123.754 143.098 124.992 143.098ZM130.012 143.098C131.391 143.098 132.227 141.977 132.227 140.184V140.176C132.227 138.383 131.391 137.266 130.012 137.266C128.629 137.266 127.797 138.383 127.797 140.176V140.184C127.797 141.977 128.629 143.098 130.012 143.098ZM130.012 142.273C129.25 142.273 128.812 141.484 128.812 140.184V140.176C128.812 138.875 129.25 138.094 130.012 138.094C130.77 138.094 131.211 138.875 131.211 140.176V140.184C131.211 141.484 130.77 142.273 130.012 142.273ZM135.785 143.07C136.332 143.07 136.793 142.797 137.031 142.363H137.055V143H138.027V140.152C138.027 139.32 137.359 138.773 136.324 138.773C135.273 138.773 134.637 139.324 134.578 140.059L134.574 140.105H135.477L135.484 140.07C135.547 139.766 135.828 139.551 136.289 139.551C136.781 139.551 137.055 139.805 137.055 140.223V140.508L135.973 140.574C134.969 140.637 134.398 141.078 134.398 141.812V141.82C134.398 142.559 134.957 143.07 135.785 143.07ZM135.367 141.781V141.777C135.367 141.449 135.629 141.242 136.109 141.211L137.055 141.152V141.465C137.055 141.957 136.633 142.328 136.074 142.328C135.648 142.328 135.367 142.121 135.367 141.781ZM138.812 143H139.785V140.465C139.785 139.961 140.113 139.594 140.582 139.594C141.035 139.594 141.316 139.883 141.316 140.348V143H142.262V140.441C142.262 139.941 142.582 139.594 143.051 139.594C143.527 139.594 143.793 139.887 143.793 140.398V143H144.766V140.156C144.766 139.328 144.23 138.773 143.414 138.773C142.816 138.773 142.324 139.094 142.125 139.609H142.102C141.949 139.078 141.531 138.773 140.953 138.773C140.406 138.773 139.98 139.07 139.805 139.523H139.785V138.859H138.812V143Z" fill="#1F293C"/>
<defs>
<filter id="filter0_d_526_4576" x="0" y="0" width="253" height="252" filterUnits="userSpaceOnUse" color-interpolation-filters="sRGB">
<feFlood flood-opacity="0" result="BackgroundImageFix"/>
<feColorMatrix in="SourceAlpha" type="matrix" values="0 0 0 0 0 0 0 0 0 0 0 0 0 0 0 0 0 0 127 0" result="hardAlpha"/>
<feOffset dy="20"/>
<feGaussianBlur stdDeviation="32"/>
<feColorMatrix type="matrix" values="0 0 0 0 0.121569 0 0 0 0 0.160784 0 0 0 0 0.235294 0 0 0 0.15 0"/>
<feBlend mode="normal" in2="BackgroundImageFix" result="effect1_dropShadow_526_4576"/>
<feBlend mode="normal" in="SourceGraphic" in2="effect1_dropShadow_526_4576" result="shape"/>
</filter>
</defs>
</svg>
