<svg width="261" height="213" viewBox="0 0 261 213" fill="none" xmlns="http://www.w3.org/2000/svg">
<g filter="url(#filter0_d_526_4563)">
<rect x="48" y="33" width="165" height="117" rx="18" fill="white"/>
</g>
<rect x="63" y="117" width="52.5" height="18" rx="4.5" fill="#E4EBFF"/>
<path d="M74.095 121H69.905C68.085 121 67 122.085 67 123.905V128.09C67 129.915 68.085 131 69.905 131H74.09C75.91 131 76.995 129.915 76.995 128.095V123.905C77 122.085 75.915 121 74.095 121ZM74.44 125.765C74.44 125.96 74.285 126.115 74.09 126.115C73.895 126.115 73.74 125.96 73.74 125.765V125.675L72.38 127.035C72.305 127.11 72.205 127.145 72.1 127.135C71.995 127.125 71.9 127.07 71.845 126.98L71.335 126.22L70.145 127.41C70.075 127.48 69.99 127.51 69.9 127.51C69.81 127.51 69.72 127.475 69.655 127.41C69.52 127.275 69.52 127.055 69.655 126.915L71.145 125.425C71.22 125.35 71.32 125.315 71.425 125.325C71.53 125.335 71.625 125.39 71.68 125.48L72.19 126.24L73.245 125.185H73.155C72.96 125.185 72.805 125.03 72.805 124.835C72.805 124.64 72.96 124.485 73.155 124.485H74.085C74.13 124.485 74.175 124.495 74.22 124.51C74.305 124.545 74.375 124.615 74.41 124.7C74.43 124.745 74.435 124.79 74.435 124.835V125.765H74.44Z" fill="#1642C5"/>
<path d="M83.0347 128.75H84.3486V122.409H83.0303L81.3911 123.547V124.725L83.0083 123.626H83.0347V128.75ZM85.7725 128.75H90.3823V127.695H87.5083V127.643L88.8354 126.43C89.9297 125.423 90.2944 124.922 90.2944 124.153V124.145C90.2944 123.063 89.3716 122.299 88.0312 122.299C86.6909 122.299 85.6978 123.138 85.6978 124.333V124.369H86.9282L86.9326 124.329C86.9502 123.758 87.3896 123.332 88.04 123.332C88.6025 123.332 88.998 123.701 89.0024 124.219V124.228C89.0024 124.667 88.8311 124.979 88.0137 125.744L85.7725 127.84V128.75ZM91.8413 128.825C92.2368 128.825 92.5532 128.508 92.5532 128.113C92.5532 127.713 92.2368 127.401 91.8413 127.401C91.4414 127.401 91.1294 127.713 91.1294 128.113C91.1294 128.508 91.4414 128.825 91.8413 128.825ZM95.7744 128.86C97.2246 128.86 98.2266 127.959 98.2266 126.632V126.623C98.2266 125.428 97.3564 124.562 96.1523 124.562C95.5107 124.562 94.9878 124.821 94.7241 125.248H94.6978L94.8516 123.463H97.8442V122.409H93.7969L93.5068 126.131H94.6626C94.7373 125.999 94.8384 125.876 94.9658 125.779C95.1812 125.608 95.458 125.511 95.7832 125.511C96.4688 125.511 96.9565 125.981 96.9609 126.649V126.658C96.9609 127.335 96.4731 127.81 95.7788 127.81C95.168 127.81 94.7241 127.44 94.6318 126.961L94.623 126.931H93.397L93.4014 126.997C93.4805 128.056 94.3945 128.86 95.7744 128.86ZM100.358 125.674C101.268 125.674 101.826 125.037 101.826 124.013V124.008C101.826 122.989 101.268 122.352 100.358 122.352C99.4438 122.352 98.8857 122.989 98.8857 124.008V124.013C98.8857 125.037 99.4438 125.674 100.358 125.674ZM101.013 128.75L105.016 122.409H104.041L100.033 128.75H101.013ZM100.358 124.944C100.002 124.944 99.8042 124.615 99.8042 124.013V124.008C99.8042 123.411 100.002 123.081 100.358 123.081C100.709 123.081 100.903 123.411 100.903 124.008V124.013C100.903 124.615 100.709 124.944 100.358 124.944ZM104.695 128.807C105.605 128.807 106.163 128.17 106.163 127.146V127.142C106.163 126.122 105.605 125.485 104.695 125.485C103.781 125.485 103.223 126.122 103.223 127.142V127.146C103.223 128.17 103.781 128.807 104.695 128.807ZM104.695 128.078C104.339 128.078 104.142 127.748 104.142 127.146V127.142C104.142 126.544 104.339 126.214 104.695 126.214C105.047 126.214 105.24 126.544 105.24 127.142V127.146C105.24 127.748 105.047 128.078 104.695 128.078Z" fill="#1642C5"/>
<path d="M124.753 127.278C124.804 128.234 125.595 128.838 126.767 128.838C128.019 128.838 128.807 128.219 128.807 127.23C128.807 126.458 128.356 126.022 127.272 125.765L126.69 125.623C126.009 125.454 125.73 125.234 125.73 124.861C125.73 124.392 126.166 124.07 126.803 124.07C127.441 124.07 127.876 124.388 127.924 124.916H128.722C128.697 124.004 127.931 123.378 126.814 123.378C125.687 123.378 124.892 124.004 124.892 124.916C124.892 125.652 125.342 126.106 126.313 126.34L126.998 126.505C127.682 126.674 127.972 126.919 127.972 127.329C127.972 127.802 127.492 128.146 126.825 128.146C126.13 128.146 125.621 127.802 125.562 127.278H124.753ZM129.473 128.75H130.264V124.897H129.473V128.75ZM129.869 124.333C130.125 124.333 130.33 124.132 130.33 123.883C130.33 123.63 130.125 123.429 129.869 123.429C129.616 123.429 129.411 123.63 129.411 123.883C129.411 124.132 129.616 124.333 129.869 124.333ZM131.073 128.75H131.865V126.505C131.865 125.908 132.223 125.513 132.78 125.513C133.329 125.513 133.6 125.831 133.6 126.41V128.75H134.395V126.256C134.395 125.374 133.908 124.832 133.058 124.832C132.465 124.832 132.055 125.103 131.846 125.542H131.828V124.897H131.073V128.75ZM138.467 126.223C138.398 125.465 137.793 124.828 136.801 124.828C135.706 124.828 134.988 125.601 134.988 126.824C134.988 128.069 135.706 128.823 136.808 128.823C137.735 128.823 138.39 128.267 138.475 127.446H137.713C137.621 127.893 137.303 128.16 136.816 128.16C136.2 128.16 135.794 127.67 135.794 126.824C135.794 125.996 136.197 125.487 136.808 125.487C137.325 125.487 137.632 125.813 137.713 126.223H138.467ZM140.646 125.465C141.199 125.465 141.573 125.879 141.591 126.469H139.665C139.705 125.886 140.093 125.465 140.646 125.465ZM141.587 127.618C141.481 127.955 141.148 128.182 140.698 128.182C140.064 128.182 139.661 127.739 139.661 127.069V127.021H142.382V126.75C142.382 125.582 141.716 124.828 140.646 124.828C139.559 124.828 138.863 125.634 138.863 126.842C138.863 128.058 139.548 128.823 140.679 128.823C141.562 128.823 142.228 128.322 142.338 127.618H141.587ZM145.876 128.75H146.678V123.466H145.868L144.477 124.454V125.26L145.857 124.279H145.876V128.75ZM149.893 128.849C151.16 128.849 151.904 127.783 151.904 126.099C151.904 124.425 151.156 123.367 149.893 123.367C148.633 123.367 147.875 124.429 147.875 126.102C147.875 127.787 148.626 128.849 149.893 128.849ZM149.893 128.16C149.139 128.16 148.707 127.377 148.707 126.102C148.707 124.846 149.146 124.055 149.893 124.055C150.64 124.055 151.076 124.843 151.076 126.102C151.076 127.38 150.647 128.16 149.893 128.16ZM153.053 128.79C153.321 128.79 153.533 128.578 153.533 128.311C153.533 128.043 153.321 127.831 153.053 127.831C152.786 127.831 152.574 128.043 152.574 128.311C152.574 128.578 152.786 128.79 153.053 128.79ZM156.331 128.849C157.598 128.849 158.342 127.783 158.342 126.099C158.342 124.425 157.594 123.367 156.331 123.367C155.071 123.367 154.313 124.429 154.313 126.102C154.313 127.787 155.064 128.849 156.331 128.849ZM156.331 128.16C155.577 128.16 155.145 127.377 155.145 126.102C155.145 124.846 155.584 124.055 156.331 124.055C157.078 124.055 157.514 124.843 157.514 126.102C157.514 127.38 157.085 128.16 156.331 128.16ZM161.066 128.853C162.187 128.853 162.996 128.083 162.996 127.025C162.996 126.022 162.249 125.278 161.242 125.278C160.583 125.278 160.022 125.623 159.792 126.135H159.777C159.781 124.806 160.264 124.052 161.095 124.052C161.579 124.052 161.974 124.333 162.103 124.766H162.923C162.762 123.923 162.037 123.363 161.103 123.363C159.781 123.363 158.99 124.41 158.99 126.179C158.99 126.798 159.1 127.318 159.316 127.739C159.66 128.453 160.286 128.853 161.066 128.853ZM161.059 128.16C160.429 128.16 159.942 127.662 159.942 127.036C159.942 126.41 160.422 125.948 161.066 125.948C161.714 125.948 162.179 126.41 162.179 127.051C162.179 127.67 161.681 128.16 161.059 128.16ZM164.238 128.79C164.505 128.79 164.717 128.578 164.717 128.311C164.717 128.043 164.505 127.831 164.238 127.831C163.97 127.831 163.758 128.043 163.758 128.311C163.758 128.578 163.97 128.79 164.238 128.79ZM165.589 125.015V125.022H166.365V125.011C166.365 124.462 166.801 124.044 167.38 124.044C167.929 124.044 168.354 124.418 168.354 124.886C168.354 125.3 168.185 125.579 167.541 126.249L165.633 128.193V128.75H169.247V128.058H166.739V128.04L168.061 126.71C168.833 125.919 169.163 125.461 169.163 124.846C169.163 124.008 168.412 123.367 167.405 123.367C166.354 123.367 165.589 124.062 165.589 125.015ZM171.902 128.849C173.169 128.849 173.913 127.783 173.913 126.099C173.913 124.425 173.166 123.367 171.902 123.367C170.643 123.367 169.885 124.429 169.885 126.102C169.885 127.787 170.635 128.849 171.902 128.849ZM171.902 128.16C171.148 128.16 170.716 127.377 170.716 126.102C170.716 124.846 171.155 124.055 171.902 124.055C172.649 124.055 173.085 124.843 173.085 126.102C173.085 127.38 172.657 128.16 171.902 128.16ZM174.546 125.015V125.022H175.323V125.011C175.323 124.462 175.759 124.044 176.337 124.044C176.886 124.044 177.311 124.418 177.311 124.886C177.311 125.3 177.143 125.579 176.498 126.249L174.59 128.193V128.75H178.205V128.058H175.696V128.04L177.018 126.71C177.791 125.919 178.121 125.461 178.121 124.846C178.121 124.008 177.37 123.367 176.363 123.367C175.312 123.367 174.546 124.062 174.546 125.015ZM178.89 125.015V125.022H179.666V125.011C179.666 124.462 180.102 124.044 180.68 124.044C181.23 124.044 181.655 124.418 181.655 124.886C181.655 125.3 181.486 125.579 180.842 126.249L178.934 128.193V128.75H182.548V128.058H180.04V128.04L181.362 126.71C182.134 125.919 182.464 125.461 182.464 124.846C182.464 124.008 181.713 123.367 180.706 123.367C179.655 123.367 178.89 124.062 178.89 125.015Z" fill="#98A7C3"/>
<rect x="63" y="48" width="27" height="27" rx="6" fill="#E4EBFF"/>
<path d="M76.9688 63.9501H77.375C77.7812 63.9501 78.1188 63.5876 78.1188 63.1501C78.1188 62.6063 77.925 62.5001 77.6063 62.3876L76.975 62.1688V63.9501H76.9688Z" fill="#1642C5"/>
<path d="M76.4813 55.1875C73.0313 55.2 70.2375 58.0063 70.25 61.4563C70.2625 64.9063 73.0688 67.7 76.5188 67.6875C79.9688 67.675 82.7625 64.8688 82.75 61.4188C82.7375 57.9688 79.9313 55.1813 76.4813 55.1875ZM77.9125 61.5C78.4 61.6688 79.0563 62.0313 79.0563 63.15C79.0563 64.1125 78.3 64.8875 77.375 64.8875H76.9688V65.25C76.9688 65.5063 76.7563 65.7188 76.5 65.7188C76.2438 65.7188 76.0313 65.5063 76.0313 65.25V64.8875H75.8063C74.7813 64.8875 73.95 64.025 73.95 62.9625C73.95 62.7063 74.1625 62.4938 74.4188 62.4938C74.675 62.4938 74.8875 62.7063 74.8875 62.9625C74.8875 63.5063 75.3 63.95 75.8063 63.95H76.0313V61.8375L75.0875 61.5C74.6 61.3313 73.9438 60.9688 73.9438 59.85C73.9438 58.8875 74.7 58.1125 75.625 58.1125H76.0313V57.75C76.0313 57.4938 76.2438 57.2813 76.5 57.2813C76.7563 57.2813 76.9688 57.4938 76.9688 57.75V58.1125H77.1938C78.2188 58.1125 79.05 58.975 79.05 60.0375C79.05 60.2938 78.8375 60.5063 78.5813 60.5063C78.325 60.5063 78.1125 60.2938 78.1125 60.0375C78.1125 59.4938 77.7 59.05 77.1938 59.05H76.9688V61.1625L77.9125 61.5Z" fill="#1642C5"/>
<path d="M74.8877 59.8562C74.8877 60.3999 75.0814 60.5062 75.4002 60.6187L76.0314 60.8374V59.0499H75.6252C75.2189 59.0499 74.8877 59.4124 74.8877 59.8562Z" fill="#1642C5"/>
<path d="M67.4824 102.062H68.2148V100.839C70.3389 100.722 71.8403 99.6304 71.8403 97.7773V97.7627C71.8403 96.1733 70.8296 95.3384 68.7935 94.9062L68.2148 94.7891V92.2476C69.0864 92.3501 69.6211 92.7896 69.731 93.5146L69.7456 93.5806H71.7012L71.6865 93.4561C71.54 91.7642 70.2437 90.7241 68.2148 90.5996V89.3691H67.4824V90.5923C65.395 90.6948 63.9814 91.8447 63.9814 93.5586V93.5732C63.9814 95.126 64.9775 96.0342 66.9331 96.4443L67.4824 96.5615V99.1836C66.4204 99.0884 65.9224 98.605 65.7979 97.9312L65.7832 97.8506H63.8276L63.835 97.9604C63.9521 99.689 65.3804 100.729 67.4824 100.839V102.062ZM66.0249 93.4121V93.3975C66.0249 92.8115 66.5156 92.3281 67.4824 92.2402V94.6353C66.4277 94.4009 66.0249 94.0054 66.0249 93.4121ZM69.7969 97.9678V97.9824C69.7969 98.6416 69.3135 99.1177 68.2148 99.1982V96.7153C69.4307 96.979 69.7969 97.3379 69.7969 97.9678ZM76.103 101H78.293V90.4312H76.0957L73.3638 92.3281V94.291L76.0591 92.46H76.103V101ZM84.7236 101.183C87.1406 101.183 88.8105 99.6816 88.8105 97.4697V97.4551C88.8105 95.4629 87.3604 94.02 85.3535 94.02C84.2842 94.02 83.4126 94.4521 82.9731 95.1626H82.9292L83.1855 92.189H88.1733V90.4312H81.4277L80.9443 96.6348H82.8706C82.9951 96.415 83.1636 96.21 83.376 96.0488C83.7349 95.7632 84.1963 95.6021 84.7383 95.6021C85.8809 95.6021 86.6938 96.3857 86.7012 97.499V97.5137C86.7012 98.6416 85.8882 99.4326 84.731 99.4326C83.7129 99.4326 82.9731 98.8174 82.8193 98.019L82.8047 97.9678H80.7612L80.7686 98.0776C80.9004 99.8428 82.4238 101.183 84.7236 101.183ZM89.5063 103.205H90.9858L92.0625 99.1543H90.041L89.5063 103.205ZM97.3726 101.183C99.8408 101.183 101.481 99.9087 101.481 98.019V98.0044C101.481 96.5688 100.456 95.6606 98.8887 95.5142V95.4702C100.126 95.2139 101.093 94.3569 101.093 93.0386V93.0239C101.093 91.3613 99.6284 90.248 97.3506 90.248C95.1313 90.248 93.6445 91.4492 93.498 93.2803L93.4907 93.3682H95.5195L95.5269 93.3022C95.6147 92.4819 96.3179 91.9473 97.3506 91.9473C98.3906 91.9473 98.9985 92.46 98.9985 93.3169V93.3315C98.9985 94.1885 98.2808 94.7744 97.1748 94.7744H95.9956V96.3491H97.2041C98.4785 96.3491 99.2329 96.9058 99.2329 97.9165V97.9312C99.2329 98.7954 98.5005 99.4033 97.3652 99.4033C96.2227 99.4033 95.4756 98.8394 95.3804 98.085L95.3657 98.0044H93.2563L93.2637 98.0996C93.4102 99.9233 94.9775 101.183 97.3726 101.183ZM107.019 101.183C109.699 101.183 111.325 99.0811 111.325 95.7192V95.7046C111.325 92.3428 109.699 90.248 107.019 90.248C104.338 90.248 102.712 92.3428 102.712 95.7046V95.7192C102.712 99.0811 104.338 101.183 107.019 101.183ZM107.019 99.4106C105.7 99.4106 104.946 98.041 104.946 95.7192V95.7046C104.946 93.3828 105.7 92.0205 107.019 92.0205C108.337 92.0205 109.091 93.3828 109.091 95.7046V95.7192C109.091 98.041 108.337 99.4106 107.019 99.4106ZM112.614 101H120.297V99.2422H115.507V99.1543L117.719 97.1328C119.543 95.4556 120.151 94.6206 120.151 93.3389V93.3242C120.151 91.5225 118.613 90.248 116.379 90.248C114.145 90.248 112.49 91.647 112.49 93.6392V93.6978H114.541L114.548 93.6318C114.577 92.6797 115.31 91.9692 116.394 91.9692C117.331 91.9692 117.99 92.5845 117.998 93.4487V93.4634C117.998 94.1958 117.712 94.7158 116.35 95.9902L112.614 99.4839V101ZM122.729 101.125C123.388 101.125 123.916 100.597 123.916 99.938C123.916 99.2715 123.388 98.7515 122.729 98.7515C122.062 98.7515 121.542 99.2715 121.542 99.938C121.542 100.597 122.062 101.125 122.729 101.125ZM129.24 101.183C131.921 101.183 133.547 99.0811 133.547 95.7192V95.7046C133.547 92.3428 131.921 90.248 129.24 90.248C126.56 90.248 124.934 92.3428 124.934 95.7046V95.7192C124.934 99.0811 126.56 101.183 129.24 101.183ZM129.24 99.4106C127.922 99.4106 127.167 98.041 127.167 95.7192V95.7046C127.167 93.3828 127.922 92.0205 129.24 92.0205C130.559 92.0205 131.313 93.3828 131.313 95.7046V95.7192C131.313 98.041 130.559 99.4106 129.24 99.4106ZM134.836 101H142.519V99.2422H137.729V99.1543L139.941 97.1328C141.765 95.4556 142.373 94.6206 142.373 93.3389V93.3242C142.373 91.5225 140.834 90.248 138.601 90.248C136.367 90.248 134.711 91.647 134.711 93.6392V93.6978H136.762L136.77 93.6318C136.799 92.6797 137.531 91.9692 138.615 91.9692C139.553 91.9692 140.212 92.5845 140.219 93.4487V93.4634C140.219 94.1958 139.934 94.7158 138.571 95.9902L134.836 99.4839V101Z" fill="#1F293C"/>
<path d="M101.461 64.75H102.779V58.4644H104.988V57.3518H99.2461V58.4644H101.461V64.75ZM106.901 64.8577C108.495 64.8577 109.531 63.7964 109.531 62.0327V62.0225C109.531 60.269 108.48 59.2026 106.896 59.2026C105.316 59.2026 104.271 60.2793 104.271 62.0225V62.0327C104.271 63.7913 105.301 64.8577 106.901 64.8577ZM106.906 63.8271C106.091 63.8271 105.573 63.176 105.573 62.0327V62.0225C105.573 60.8945 106.101 60.2383 106.896 60.2383C107.706 60.2383 108.229 60.8894 108.229 62.0225V62.0327C108.229 63.1709 107.711 63.8271 106.906 63.8271ZM112.371 64.8577C112.627 64.8577 112.853 64.832 113.002 64.8115V63.8528C112.915 63.8579 112.817 63.8733 112.694 63.8733C112.228 63.8733 111.992 63.7041 111.992 63.1709V60.2998H113.002V59.3154H111.992V57.9363H110.695V59.3154H109.926V60.2998H110.695V63.2786C110.695 64.3962 111.233 64.8577 112.371 64.8577ZM115.411 64.8423C116.129 64.8423 116.734 64.4834 117.047 63.9143H117.078V64.75H118.354V61.0125C118.354 59.9204 117.478 59.2026 116.119 59.2026C114.74 59.2026 113.904 59.9255 113.827 60.8894L113.822 60.9509H115.006L115.017 60.9048C115.099 60.5049 115.468 60.2229 116.073 60.2229C116.719 60.2229 117.078 60.5562 117.078 61.1047V61.479L115.657 61.5662C114.34 61.6482 113.591 62.2275 113.591 63.1914V63.2017C113.591 64.1707 114.324 64.8423 115.411 64.8423ZM114.863 63.1504V63.1453C114.863 62.7146 115.206 62.4429 115.837 62.4019L117.078 62.325V62.7351C117.078 63.3811 116.524 63.8682 115.791 63.8682C115.232 63.8682 114.863 63.5964 114.863 63.1504ZM119.421 64.75H120.697V57.3518H119.421V64.75ZM126.614 64.8782C128.418 64.8782 129.505 64.0015 129.505 62.6223V62.6172C129.505 61.4636 128.834 60.8381 127.296 60.5203L126.496 60.3562C125.604 60.1716 125.199 59.864 125.199 59.3411V59.3359C125.199 58.7463 125.737 58.3413 126.604 58.3362C127.434 58.3362 128.003 58.7207 128.09 59.3667L128.101 59.4282H129.367L129.362 59.3411C129.285 58.0747 128.229 57.2236 126.614 57.2236C125.019 57.2236 123.876 58.1055 123.871 59.4077V59.4128C123.871 60.5151 124.589 61.1919 126.045 61.4944L126.839 61.6584C127.793 61.8584 128.177 62.1558 128.177 62.7095V62.7146C128.177 63.3503 127.593 63.7656 126.66 63.7656C125.732 63.7656 125.081 63.3708 124.983 62.7351L124.973 62.6736H123.707L123.712 62.7505C123.799 64.0784 124.917 64.8782 126.614 64.8782ZM131.971 64.8423C132.689 64.8423 133.294 64.4834 133.607 63.9143H133.638V64.75H134.914V61.0125C134.914 59.9204 134.038 59.2026 132.679 59.2026C131.3 59.2026 130.464 59.9255 130.387 60.8894L130.382 60.9509H131.566L131.577 60.9048C131.659 60.5049 132.028 60.2229 132.633 60.2229C133.279 60.2229 133.638 60.5562 133.638 61.1047V61.479L132.218 61.5662C130.9 61.6482 130.151 62.2275 130.151 63.1914V63.2017C130.151 64.1707 130.885 64.8423 131.971 64.8423ZM131.423 63.1504V63.1453C131.423 62.7146 131.766 62.4429 132.397 62.4019L133.638 62.325V62.7351C133.638 63.3811 133.084 63.8682 132.351 63.8682C131.792 63.8682 131.423 63.5964 131.423 63.1504ZM135.981 64.75H137.257V57.3518H135.981V64.75ZM140.733 64.8577C142.154 64.8577 142.953 64.0168 143.123 63.1812L143.138 63.1248H141.943L141.933 63.1606C141.81 63.5247 141.395 63.863 140.759 63.863C139.928 63.863 139.406 63.2991 139.385 62.3455H143.189V61.9353C143.189 60.2947 142.225 59.2026 140.672 59.2026C139.118 59.2026 138.119 60.3306 138.119 62.043V62.0481C138.119 63.7759 139.103 64.8577 140.733 64.8577ZM140.687 60.2024C141.364 60.2024 141.856 60.6331 141.948 61.4944H139.4C139.503 60.6587 140.01 60.2024 140.687 60.2024ZM146.137 64.8577C147.47 64.8577 148.419 64.1707 148.419 63.1453V63.1401C148.419 62.3506 147.983 61.9097 146.86 61.6584L145.953 61.4585C145.389 61.3303 145.178 61.1252 145.178 60.8125V60.8074C145.178 60.4075 145.532 60.146 146.096 60.146C146.691 60.146 147.04 60.4639 147.096 60.8997L147.101 60.9407H148.291L148.285 60.8843C148.239 59.946 147.45 59.2026 146.096 59.2026C144.784 59.2026 143.917 59.8743 143.917 60.8689V60.874C143.917 61.679 144.44 62.1865 145.481 62.4172L146.383 62.6172C146.947 62.7454 147.137 62.9299 147.137 63.2581V63.2632C147.137 63.6631 146.763 63.9143 146.142 63.9143C145.496 63.9143 145.143 63.6375 145.045 63.1709L145.035 63.1248H143.779L143.784 63.1709C143.897 64.1809 144.712 64.8577 146.137 64.8577Z" fill="#1F293C"/>
<defs>
<filter id="filter0_d_526_4563" x="0" y="0" width="261" height="213" filterUnits="userSpaceOnUse" color-interpolation-filters="sRGB">
<feFlood flood-opacity="0" result="BackgroundImageFix"/>
<feColorMatrix in="SourceAlpha" type="matrix" values="0 0 0 0 0 0 0 0 0 0 0 0 0 0 0 0 0 0 127 0" result="hardAlpha"/>
<feOffset dy="15"/>
<feGaussianBlur stdDeviation="24"/>
<feColorMatrix type="matrix" values="0 0 0 0 0.121569 0 0 0 0 0.160784 0 0 0 0 0.235294 0 0 0 0.15 0"/>
<feBlend mode="normal" in2="BackgroundImageFix" result="effect1_dropShadow_526_4563"/>
<feBlend mode="normal" in="SourceGraphic" in2="effect1_dropShadow_526_4563" result="shape"/>
</filter>
</defs>
</svg>
