<svg width="339" height="313" viewBox="0 0 339 313" fill="none" xmlns="http://www.w3.org/2000/svg">
<g filter="url(#filter0_d_661_4012)">
<rect x="64" y="44" width="211" height="184.717" rx="24" fill="white"/>
<path d="M91.6741 81.367C92.4645 81.367 93.1451 81.2418 93.7159 80.9916C94.2911 80.7369 94.7323 80.3812 95.0397 79.9246C95.3514 79.4636 95.5073 78.9191 95.5073 78.2912V78.2846C95.5073 77.5426 95.2768 76.9586 94.8158 76.5327C94.3591 76.1068 93.628 75.7906 92.6225 75.5843L91.6149 75.3801C91.0572 75.2659 90.6533 75.1123 90.403 74.9191C90.1571 74.7215 90.0342 74.469 90.0342 74.1617V74.1551C90.0342 73.918 90.1022 73.7138 90.2383 73.5425C90.3744 73.3669 90.5654 73.2308 90.8113 73.1342C91.0572 73.0376 91.3426 72.9893 91.6675 72.9893C92.0012 72.9893 92.2932 73.0398 92.5435 73.1408C92.7982 73.2374 93.0002 73.3713 93.1494 73.5425C93.3031 73.7138 93.3997 73.9136 93.4392 74.1419L93.4524 74.2209H95.3229L95.3163 74.1353C95.2768 73.604 95.1077 73.132 94.8092 72.7193C94.5106 72.3021 94.0957 71.975 93.5644 71.7379C93.0375 71.4964 92.4052 71.3757 91.6675 71.3757C90.965 71.3757 90.3415 71.4986 89.7971 71.7445C89.2526 71.986 88.8245 72.3263 88.5127 72.7654C88.201 73.2045 88.0451 73.7182 88.0451 74.3065V74.3131C88.0451 75.0332 88.269 75.6238 88.7169 76.0848C89.1648 76.5459 89.8827 76.8774 90.8706 77.0793L91.8717 77.2835C92.4645 77.4065 92.886 77.5623 93.1363 77.7511C93.3909 77.9399 93.5183 78.1902 93.5183 78.502V78.5086C93.5183 78.7501 93.4414 78.9652 93.2878 79.154C93.1385 79.3384 92.9299 79.4833 92.6621 79.5887C92.3942 79.6941 92.0825 79.7468 91.7268 79.7468C91.358 79.7468 91.0309 79.6963 90.7455 79.5953C90.4601 79.4943 90.2317 79.356 90.0605 79.1804C89.8937 79.0003 89.7971 78.7918 89.7707 78.5547L89.7641 78.4888H87.8475L87.8541 78.5942C87.8936 79.1562 88.0715 79.6458 88.3876 80.0629C88.7081 80.4756 89.1472 80.7962 89.7048 81.0245C90.2625 81.2528 90.9189 81.367 91.6741 81.367ZM98.9356 81.2353C99.2517 81.2353 99.5437 81.1935 99.8115 81.1101C100.084 81.0223 100.321 80.8994 100.523 80.7413C100.729 80.5788 100.894 80.3856 101.017 80.1617H101.135V81.1233H103.032V76.1705C103.032 75.6567 102.914 75.2176 102.677 74.8532C102.444 74.4844 102.104 74.2034 101.656 74.0102C101.208 73.8126 100.663 73.7138 100.022 73.7138C99.4164 73.7138 98.8829 73.8016 98.4218 73.9772C97.9652 74.1529 97.6008 74.3988 97.3285 74.7149C97.0607 75.031 96.9004 75.4021 96.8477 75.828L96.8412 75.8872H98.6194L98.6326 75.8609C98.7072 75.6457 98.8521 75.4811 99.0673 75.3669C99.2868 75.2484 99.57 75.1891 99.9169 75.1891C100.312 75.1891 100.613 75.2747 100.819 75.446C101.03 75.6128 101.135 75.8543 101.135 76.1705V78.4822C101.135 78.7369 101.067 78.9674 100.931 79.1738C100.795 79.3757 100.611 79.536 100.378 79.6546C100.145 79.7731 99.8796 79.8324 99.581 79.8324C99.2473 79.8324 98.9751 79.7534 98.7643 79.5953C98.5536 79.4372 98.4482 79.2199 98.4482 78.9433V78.9301C98.4482 78.6666 98.5492 78.4581 98.7512 78.3044C98.9531 78.1507 99.2605 78.0629 99.6732 78.0409L102.084 77.8829V76.7105L99.3834 76.8752C98.4833 76.9279 97.7896 77.1408 97.3022 77.514C96.8148 77.8829 96.5711 78.3944 96.5711 79.0486V79.0618C96.5711 79.5009 96.6721 79.8851 96.8741 80.2144C97.0761 80.5393 97.3549 80.7918 97.7105 80.9718C98.0706 81.1474 98.4789 81.2353 98.9356 81.2353ZM104.847 81.1233H106.77V71.0991H104.847V81.1233ZM111.812 81.2748C112.343 81.2748 112.802 81.2089 113.188 81.0772C113.579 80.9411 113.904 80.7654 114.163 80.5503C114.427 80.3351 114.633 80.1046 114.782 79.8587C114.932 79.6085 115.035 79.3692 115.092 79.1408L115.105 79.075H113.314L113.294 79.1145C113.25 79.2067 113.166 79.3099 113.044 79.424C112.925 79.5338 112.767 79.6304 112.569 79.7138C112.372 79.7973 112.132 79.839 111.851 79.839C111.505 79.839 111.206 79.7621 110.956 79.6085C110.705 79.4548 110.512 79.233 110.376 78.9433C110.24 78.6535 110.172 78.3044 110.172 77.896V77.1189C110.172 76.6973 110.24 76.3417 110.376 76.0519C110.517 75.7577 110.705 75.536 110.943 75.3867C111.184 75.233 111.458 75.1562 111.766 75.1562C112.078 75.1562 112.35 75.2308 112.582 75.3801C112.82 75.525 113.004 75.7423 113.136 76.0321C113.272 76.3219 113.34 76.6842 113.34 77.1189V77.8895L114.242 76.75H109.23V77.9553H115.164V77.356C115.164 76.6227 115.026 75.9838 114.749 75.4394C114.473 74.8949 114.078 74.4712 113.564 74.1682C113.05 73.8653 112.44 73.7138 111.733 73.7138C111.03 73.7138 110.418 73.8697 109.895 74.1814C109.377 74.4932 108.975 74.9322 108.69 75.4987C108.409 76.0651 108.269 76.7325 108.269 77.5009V77.5075C108.269 78.2846 108.411 78.9542 108.697 79.5163C108.982 80.0783 109.388 80.513 109.915 80.8203C110.446 81.1233 111.079 81.2748 111.812 81.2748ZM119.488 81.2748C120.107 81.2748 120.656 81.1782 121.135 80.985C121.613 80.7874 121.989 80.5108 122.261 80.1551C122.533 79.7995 122.669 79.3823 122.669 78.9037V78.8971C122.669 78.3615 122.496 77.9356 122.149 77.6194C121.802 77.3033 121.267 77.0662 120.542 76.9081L119.337 76.6512C118.964 76.5722 118.7 76.4712 118.546 76.3483C118.393 76.2253 118.316 76.0673 118.316 75.8741V75.8675C118.316 75.705 118.364 75.5645 118.461 75.446C118.562 75.3274 118.698 75.2352 118.869 75.1693C119.04 75.1035 119.236 75.0706 119.455 75.0706C119.815 75.0706 120.101 75.1474 120.312 75.3011C120.522 75.4504 120.654 75.6238 120.707 75.8214L120.713 75.8543H122.498V75.828C122.472 75.4372 122.338 75.0837 122.096 74.7676C121.859 74.4471 121.519 74.1924 121.076 74.0036C120.632 73.8104 120.094 73.7138 119.462 73.7138C118.86 73.7138 118.331 73.8082 117.875 73.997C117.422 74.1858 117.069 74.4514 116.814 74.7939C116.564 75.132 116.439 75.5294 116.439 75.986V75.9926C116.439 76.5327 116.61 76.974 116.953 77.3165C117.299 77.6589 117.818 77.9048 118.507 78.0541L119.719 78.311C120.088 78.3944 120.351 78.4998 120.509 78.6271C120.667 78.7544 120.746 78.9147 120.746 79.1079V79.1211C120.746 79.2791 120.694 79.4175 120.588 79.536C120.483 79.6546 120.338 79.749 120.153 79.8192C119.969 79.8851 119.754 79.918 119.508 79.918C119.13 79.918 118.83 79.8456 118.606 79.7007C118.386 79.5558 118.237 79.3714 118.158 79.1474L118.145 79.1211H116.254L116.261 79.1474C116.305 79.5602 116.456 79.9268 116.715 80.2473C116.979 80.5679 117.341 80.8203 117.802 81.0047C118.268 81.1848 118.83 81.2748 119.488 81.2748ZM126.964 81.1233H129.052L131.377 73.5162H131.956V71.6194H130.264L126.964 81.1233ZM128.729 78.8181H134.097L133.609 77.3296H129.216L128.729 78.8181ZM133.814 81.1233H135.908L132.602 71.6194H131.495V73.5162L133.814 81.1233ZM137.196 81.1233H139.119V76.9279C139.119 76.5986 139.176 76.3132 139.29 76.0717C139.409 75.8302 139.573 75.6436 139.784 75.5118C139.999 75.3757 140.254 75.3077 140.548 75.3077C141.005 75.3077 141.341 75.4394 141.556 75.7028C141.771 75.9663 141.879 76.3549 141.879 76.8686V81.1233H143.802V76.4339C143.802 75.5645 143.589 74.8949 143.163 74.4251C142.741 73.9509 142.127 73.7138 141.319 73.7138C140.801 73.7138 140.366 73.828 140.015 74.0563C139.663 74.2846 139.404 74.5963 139.237 74.9915H139.119V73.8719H137.196V81.1233ZM147.507 81.2353C147.823 81.2353 148.115 81.1935 148.383 81.1101C148.655 81.0223 148.892 80.8994 149.094 80.7413C149.3 80.5788 149.465 80.3856 149.588 80.1617H149.706V81.1233H151.603V76.1705C151.603 75.6567 151.485 75.2176 151.248 74.8532C151.015 74.4844 150.675 74.2034 150.227 74.0102C149.779 73.8126 149.234 73.7138 148.593 73.7138C147.987 73.7138 147.454 73.8016 146.993 73.9772C146.536 74.1529 146.172 74.3988 145.9 74.7149C145.632 75.031 145.471 75.4021 145.419 75.828L145.412 75.8872H147.19L147.204 75.8609C147.278 75.6457 147.423 75.4811 147.638 75.3669C147.858 75.2484 148.141 75.1891 148.488 75.1891C148.883 75.1891 149.184 75.2747 149.39 75.446C149.601 75.6128 149.706 75.8543 149.706 76.1705V78.4822C149.706 78.7369 149.638 78.9674 149.502 79.1738C149.366 79.3757 149.182 79.536 148.949 79.6546C148.716 79.7731 148.451 79.8324 148.152 79.8324C147.818 79.8324 147.546 79.7534 147.335 79.5953C147.125 79.4372 147.019 79.2199 147.019 78.9433V78.9301C147.019 78.6666 147.12 78.4581 147.322 78.3044C147.524 78.1507 147.832 78.0629 148.244 78.0409L150.655 77.8829V76.7105L147.954 76.8752C147.054 76.9279 146.361 77.1408 145.873 77.514C145.386 77.8829 145.142 78.3944 145.142 79.0486V79.0618C145.142 79.5009 145.243 79.8851 145.445 80.2144C145.647 80.5393 145.926 80.7918 146.282 80.9718C146.642 81.1474 147.05 81.2353 147.507 81.2353ZM153.418 81.1233H155.341V71.0991H153.418V81.1233ZM158.058 83.6787C158.655 83.6787 159.167 83.5975 159.593 83.4351C160.018 83.277 160.381 83.0091 160.679 82.6315C160.978 82.2583 161.235 81.7534 161.45 81.1167L163.92 73.8719H161.891L160.159 80.1288L160.581 79.3648H160.008L160.449 80.1288L158.717 73.8719H156.602L159.151 81.1233L159.085 81.3999C159.02 81.6809 158.886 81.8895 158.684 82.0256C158.482 82.1617 158.209 82.2298 157.867 82.2298C157.779 82.2298 157.689 82.2276 157.597 82.2232C157.509 82.2232 157.432 82.2188 157.366 82.21V83.659C157.481 83.6634 157.597 83.6678 157.716 83.6722C157.834 83.6766 157.948 83.6787 158.058 83.6787ZM168.132 81.1496C168.321 81.1496 168.498 81.1409 168.665 81.1233C168.832 81.1057 168.975 81.086 169.093 81.064V79.6348C169.001 79.6436 168.913 79.6524 168.83 79.6611C168.751 79.6655 168.65 79.6677 168.527 79.6677C168.202 79.6677 167.965 79.5931 167.816 79.4438C167.671 79.2901 167.598 79.0508 167.598 78.7259V75.3208H169.093V73.8719H167.598V72.1397H165.655V73.8719H164.536V75.3208H165.655V79.1672C165.655 79.8697 165.849 80.3769 166.235 80.6886C166.621 80.996 167.254 81.1496 168.132 81.1496ZM170.572 81.1233H172.495V73.8719H170.572V81.1233ZM171.54 72.7588C171.839 72.7588 172.093 72.6556 172.304 72.4492C172.515 72.2385 172.62 71.986 172.62 71.6918C172.62 71.3932 172.515 71.1408 172.304 70.9344C172.093 70.7236 171.839 70.6183 171.54 70.6183C171.246 70.6183 170.991 70.7236 170.776 70.9344C170.561 71.1408 170.454 71.3932 170.454 71.6918C170.454 71.986 170.561 72.2385 170.776 72.4492C170.991 72.6556 171.246 72.7588 171.54 72.7588ZM177.491 81.2748C178.123 81.2748 178.668 81.1694 179.124 80.9586C179.581 80.7435 179.943 80.4405 180.211 80.0497C180.479 79.659 180.648 79.2023 180.718 78.6798V78.6337L178.94 78.6403L178.927 78.66C178.843 79.0289 178.683 79.3055 178.446 79.4899C178.209 79.6743 177.893 79.7665 177.498 79.7665C177.155 79.7665 176.865 79.6787 176.628 79.5031C176.391 79.3274 176.209 79.0706 176.082 78.7325C175.959 78.39 175.897 77.9751 175.897 77.4877V77.4745C175.897 76.9871 175.959 76.5766 176.082 76.2429C176.205 75.9092 176.385 75.6567 176.622 75.4855C176.863 75.3099 177.155 75.222 177.498 75.222C177.91 75.222 178.235 75.3296 178.472 75.5448C178.714 75.7555 178.868 76.0365 178.933 76.3878L178.94 76.401H180.725V76.3812C180.668 75.8411 180.505 75.3713 180.237 74.9718C179.97 74.5722 179.605 74.2626 179.144 74.0431C178.683 73.8236 178.132 73.7138 177.491 73.7138C176.736 73.7138 176.093 73.8631 175.561 74.1617C175.034 74.4558 174.633 74.8817 174.356 75.4394C174.079 75.997 173.941 76.6754 173.941 77.4745V77.4877C173.941 78.2912 174.079 78.9762 174.356 79.5426C174.633 80.1046 175.034 80.5349 175.561 80.8335C176.093 81.1277 176.736 81.2748 177.491 81.2748ZM184.976 81.2748C185.596 81.2748 186.144 81.1782 186.623 80.985C187.102 80.7874 187.477 80.5108 187.749 80.1551C188.021 79.7995 188.158 79.3823 188.158 78.9037V78.8971C188.158 78.3615 187.984 77.9356 187.637 77.6194C187.29 77.3033 186.755 77.0662 186.03 76.9081L184.825 76.6512C184.452 76.5722 184.188 76.4712 184.035 76.3483C183.881 76.2253 183.804 76.0673 183.804 75.8741V75.8675C183.804 75.705 183.852 75.5645 183.949 75.446C184.05 75.3274 184.186 75.2352 184.357 75.1693C184.529 75.1035 184.724 75.0706 184.943 75.0706C185.304 75.0706 185.589 75.1474 185.8 75.3011C186.01 75.4504 186.142 75.6238 186.195 75.8214L186.201 75.8543H187.986V75.828C187.96 75.4372 187.826 75.0837 187.585 74.7676C187.347 74.4471 187.007 74.1924 186.564 74.0036C186.12 73.8104 185.582 73.7138 184.95 73.7138C184.349 73.7138 183.819 73.8082 183.363 73.997C182.911 74.1858 182.557 74.4514 182.302 74.7939C182.052 75.132 181.927 75.5294 181.927 75.986V75.9926C181.927 76.5327 182.098 76.974 182.441 77.3165C182.788 77.6589 183.306 77.9048 183.995 78.0541L185.207 78.311C185.576 78.3944 185.839 78.4998 185.997 78.6271C186.155 78.7544 186.234 78.9147 186.234 79.1079V79.1211C186.234 79.2791 186.182 79.4175 186.076 79.536C185.971 79.6546 185.826 79.749 185.642 79.8192C185.457 79.8851 185.242 79.918 184.996 79.918C184.619 79.918 184.318 79.8456 184.094 79.7007C183.874 79.5558 183.725 79.3714 183.646 79.1474L183.633 79.1211H181.743L181.749 79.1474C181.793 79.5602 181.945 79.9268 182.204 80.2473C182.467 80.5679 182.829 80.8203 183.29 81.0047C183.756 81.1848 184.318 81.2748 184.976 81.2748Z" fill="#1F293C"/>
<path fill-rule="evenodd" clip-rule="evenodd" d="M120.074 101.539H87.123V102.502H120.074H153.024H185.975H218.926H251.876V101.539H218.926H185.975H153.024H120.074ZM120.074 127.874H87.123V128.837H120.074H153.024H185.975H218.926H251.876V127.874H218.926H185.975H153.024H120.074ZM87.123 154.208H120.074H153.024H185.975H218.926H251.876V155.171H218.926H185.975H153.024H120.074H87.123V154.208ZM120.074 180.543H87.123V181.507H120.074H153.024H185.975H218.926H251.876V180.543H218.926H185.975H153.024H120.074Z" fill="url(#paint0_linear_661_4012)"/>
<path d="M87.123 181.78L111.004 161.438C115.536 157.578 122.32 158.032 126.297 162.463V162.463C131.71 168.493 141.565 166.785 144.633 159.285L147.815 151.508C152.623 139.755 169.146 139.422 174.423 150.972V150.972C179.724 162.572 196.34 162.171 201.075 150.329L211.001 125.503C214.135 117.664 220.888 111.84 229.102 109.891L252.123 104.429" stroke="#1F293C" stroke-width="1.92694" stroke-linecap="round"/>
<path d="M86.1597 169.014L104.483 153.708C112.608 146.921 124.417 146.891 132.576 153.637V153.637C144.116 163.176 161.608 158.637 167.053 144.69L173.416 128.395C179.085 113.874 198.458 111.148 207.914 123.541V123.541C215.329 133.257 229.651 134.1 238.153 125.32L252.123 110.896" stroke="#1642C5" stroke-width="2.89041" stroke-linecap="round"/>
<rect x="87.123" y="196.922" width="17.3425" height="8.67123" rx="4.33562" fill="#1642C5"/>
<rect x="108.319" y="196.922" width="57.3265" height="8.67123" rx="4.33562" fill="#E3E2F1"/>
<rect x="173.354" y="196.922" width="17.3425" height="8.67123" rx="4.33562" fill="#1F293C"/>
<rect x="194.55" y="196.922" width="57.3265" height="8.67123" rx="4.33562" fill="#E3E2F1"/>
</g>
<defs>
<filter id="filter0_d_661_4012" x="0" y="0" width="339" height="312.717" filterUnits="userSpaceOnUse" color-interpolation-filters="sRGB">
<feFlood flood-opacity="0" result="BackgroundImageFix"/>
<feColorMatrix in="SourceAlpha" type="matrix" values="0 0 0 0 0 0 0 0 0 0 0 0 0 0 0 0 0 0 127 0" result="hardAlpha"/>
<feOffset dy="20"/>
<feGaussianBlur stdDeviation="32"/>
<feColorMatrix type="matrix" values="0 0 0 0 0.121569 0 0 0 0 0.160784 0 0 0 0 0.235294 0 0 0 0.15 0"/>
<feBlend mode="normal" in2="BackgroundImageFix" result="effect1_dropShadow_661_4012"/>
<feBlend mode="normal" in="SourceGraphic" in2="effect1_dropShadow_661_4012" result="shape"/>
</filter>
<linearGradient id="paint0_linear_661_4012" x1="169.5" y1="101.539" x2="169.5" y2="181.507" gradientUnits="userSpaceOnUse">
<stop stop-color="#E3E2F1" stop-opacity="0"/>
<stop offset="1" stop-color="#E3E2F1"/>
</linearGradient>
</defs>
</svg>
