<svg width="121" height="140" viewBox="0 0 121 140" fill="none" xmlns="http://www.w3.org/2000/svg">
<g opacity="0.2">
<path fill-rule="evenodd" clip-rule="evenodd" d="M240.201 -69.3906L122.315 -137.452C121.662 -137.829 120.858 -137.829 120.206 -137.452L2.3196 -69.3906C1.66716 -69.0139 1.26523 -68.3177 1.26523 -67.5643V68.559C1.26523 69.3124 1.66716 70.0086 2.3196 70.3853L120.206 138.447C120.858 138.824 121.662 138.824 122.315 138.447L240.201 70.3853C240.853 70.0086 241.255 69.3124 241.255 68.559V-67.5643C241.255 -68.3177 240.853 -69.0139 240.201 -69.3906ZM122.947 -138.548C121.903 -139.151 120.617 -139.151 119.573 -138.548L1.68698 -70.4863C0.643073 -69.8836 0 -68.7697 0 -67.5643V68.559C0 69.7644 0.643076 70.8783 1.68698 71.481L119.573 139.543C120.617 140.145 121.903 140.145 122.947 139.543L240.834 71.481C241.878 70.8783 242.521 69.7644 242.521 68.559V-67.5643C242.521 -68.7697 241.878 -69.8836 240.834 -70.4863L122.947 -138.548Z" fill="white"/>
<path fill-rule="evenodd" clip-rule="evenodd" d="M239.805 66.2581L123.699 -135.569C122.615 -137.453 119.905 -137.453 118.821 -135.569L2.71511 66.2581C1.63102 68.1426 2.98613 70.4982 5.1543 70.4982H237.366C239.534 70.4982 240.889 68.1426 239.805 66.2581ZM125.163 -136.417C123.428 -139.432 119.092 -139.432 117.357 -136.417L1.25159 65.4101C-0.482951 68.4253 1.68522 72.1942 5.1543 72.1942H237.366C240.835 72.1942 243.003 68.4253 241.269 65.4101L125.163 -136.417Z" fill="white"/>
<path fill-rule="evenodd" clip-rule="evenodd" d="M2.71533 -65.263L118.821 136.564C119.905 138.448 122.615 138.448 123.7 136.564L239.805 -65.263C240.89 -67.1475 239.534 -69.5031 237.366 -69.5031L5.15454 -69.5031C2.98638 -69.5031 1.63126 -67.1475 2.71533 -65.263ZM117.358 137.412C119.092 140.427 123.429 140.427 125.163 137.412L241.269 -64.415C243.003 -67.4302 240.835 -71.1991 237.366 -71.1991L5.15454 -71.1991C1.68546 -71.1991 -0.482724 -67.4302 1.25183 -64.415L117.358 137.412Z" fill="white"/>
</g>
</svg>
