<svg width="305" height="157" viewBox="0 0 305 157" fill="none" xmlns="http://www.w3.org/2000/svg">
<g filter="url(#filter0_d_632_7537)">
<rect x="37" y="67.3418" width="174.73" height="172" rx="24" transform="rotate(-10 37 67.3418)" fill="white" shape-rendering="crispEdges"/>
<path d="M69.266 101.379L67.8239 93.2009L67.8932 93.1887L75.0902 100.352L76.6444 100.078L74.6868 88.9762L73.0095 89.272L74.453 97.4582L74.3914 97.469L67.193 90.2976L65.6311 90.573L67.5888 101.675L69.266 101.379ZM80.667 92.2532C81.8287 92.0483 82.7668 92.7793 83.0237 94.0113L78.9767 94.7248C78.8457 93.4866 79.5052 92.458 80.667 92.2532ZM83.442 96.4285C83.3437 97.1756 82.7276 97.7761 81.7813 97.943C80.4503 98.1777 79.4398 97.396 79.1915 95.988L79.1739 95.888L84.8904 94.88L84.79 94.3107C84.3572 91.8563 82.6775 90.5183 80.4309 90.9144C78.1458 91.3174 76.9825 93.2678 77.4302 95.8067C77.8806 98.3611 79.6028 99.7154 81.9802 99.2962C83.8344 98.9692 85.0489 97.6683 85.0192 96.1504L83.442 96.4285ZM85.543 88.1884L85.8808 90.1042L84.7037 90.3118L84.9357 91.6274L86.1128 91.4198L86.9322 96.0669C87.2076 97.6287 87.9561 98.1393 89.5949 97.8504C89.9642 97.7853 90.328 97.6894 90.5045 97.6107L90.2726 96.295C90.1689 96.3371 89.9024 96.4 89.7331 96.4298C89.056 96.5492 88.6927 96.288 88.5692 95.5879L87.7824 91.1255L89.3211 90.8541L89.0891 89.5385L87.5504 89.8098L87.2126 87.8941L85.543 88.1884ZM94.2487 93.7852C94.7105 95.7743 96.5962 96.7507 99.0582 96.3166C101.69 95.8526 103.114 94.2607 102.748 92.1834C102.462 90.56 101.354 89.8113 98.9818 89.6743L97.7055 89.5899C96.2121 89.4883 95.546 89.1298 95.4076 88.345C95.2339 87.3602 96.0301 86.5217 97.3688 86.2857C98.7076 86.0496 99.7411 86.5576 100.037 87.6478L101.714 87.3521C101.322 85.4458 99.4821 84.4137 97.1355 84.8275C94.7658 85.2453 93.3282 86.8554 93.666 88.7711C93.9387 90.3176 95.0533 91.1047 97.179 91.2376L98.6788 91.3302C100.18 91.4304 100.879 91.8387 101.031 92.7004C101.206 93.6929 100.325 94.5939 98.9249 94.8408C97.4631 95.0985 96.2661 94.5639 95.949 93.4854L94.2487 93.7852ZM107.281 93.4625C106.389 93.6199 105.723 93.2614 105.598 92.5535C105.476 91.8611 105.96 91.3235 106.94 91.0792L108.911 90.6048L109.024 91.2434C109.21 92.2974 108.443 93.2577 107.281 93.4625ZM107.052 94.8595C108.113 94.6723 109.036 93.9226 109.347 92.9396L109.385 92.9328L109.62 94.2639L111.213 93.9831L110.229 88.405C109.943 86.7816 108.506 85.9641 106.544 86.3101C104.543 86.6628 103.487 87.9597 103.652 89.4378L105.222 89.161C105.24 88.412 105.759 87.8446 106.721 87.675C107.737 87.4959 108.439 87.9273 108.598 88.8275L108.708 89.4507L106.515 89.9722C104.611 90.4191 103.679 91.4798 103.929 92.8954C104.185 94.3496 105.467 95.139 107.052 94.8595ZM112.89 93.6873L114.552 93.3943L112.594 82.2921L110.932 82.5851L112.89 93.6873ZM118.428 85.5948C119.59 85.39 120.528 86.121 120.785 87.3529L116.738 88.0665C116.607 86.8283 117.266 85.7997 118.428 85.5948ZM121.203 89.7702C121.105 90.5173 120.489 91.1178 119.543 91.2847C118.211 91.5194 117.201 90.7376 116.953 89.3297L116.935 89.2296L122.652 88.2217L122.551 87.6523C122.118 85.198 120.439 83.86 118.192 84.2561C115.907 84.659 114.744 86.6094 115.191 89.1484C115.642 91.7027 117.364 93.0571 119.741 92.6379C121.596 92.3109 122.81 91.01 122.78 89.492L121.203 89.7702ZM123.415 85.8499C123.615 86.9809 124.488 87.6123 126.012 87.7085L127.521 87.8073C128.405 87.8735 128.763 88.104 128.854 88.6194C128.969 89.2734 128.427 89.7974 127.427 89.9738C126.411 90.1528 125.735 89.8278 125.467 89.0738L123.821 89.3641C124.214 90.826 125.658 91.5946 127.574 91.2568C129.559 90.9068 130.757 89.6484 130.496 88.1712C130.286 86.9786 129.562 86.4717 127.862 86.3669L126.444 86.2916C125.569 86.2317 125.109 85.9637 125.021 85.4636C124.909 84.825 125.431 84.2807 126.332 84.1219C127.262 83.9578 127.935 84.3073 128.141 85.0246L129.703 84.7492C129.395 83.32 127.956 82.5346 126.155 82.852C124.263 83.1857 123.16 84.4034 123.415 85.8499ZM139.735 89.0966C141.789 88.7344 142.828 86.8853 142.375 84.3156C141.923 81.7536 140.307 80.3726 138.268 80.7321C137.122 80.9342 136.299 81.6663 135.98 82.6905L135.941 82.6972L135.168 78.3118L133.506 78.6048L135.464 89.707L137.079 89.4221L136.836 88.0449L136.867 88.0395C137.533 88.8899 138.55 89.3055 139.735 89.0966ZM138.061 82.2124C139.369 81.9818 140.367 82.9164 140.667 84.6168C140.969 86.3325 140.348 87.5367 139.04 87.7673C137.779 87.9898 136.701 87.0533 136.404 85.3683C136.11 83.6988 136.799 82.4349 138.061 82.2124ZM145.505 91.0462C147.19 90.749 147.871 89.9784 148.218 87.8944L149.755 78.8415L148.001 79.1508L147.108 86.0989L147.085 86.103L143.869 79.8793L142.069 80.1968L146.421 87.7828C146.422 87.7905 146.36 88.2933 146.363 88.3087C146.256 89.1844 145.905 89.5794 145.128 89.7165C144.989 89.7409 144.712 89.7897 144.584 89.7806L144.821 91.1271C144.948 91.1284 145.374 91.0692 145.505 91.0462ZM70.024 118.365C70.4857 120.354 72.3715 121.331 74.8335 120.897C77.4648 120.433 78.8897 118.841 78.5234 116.763C78.2371 115.14 77.1293 114.391 74.757 114.254L73.4808 114.17C71.9873 114.068 71.3212 113.71 71.1828 112.925C71.0092 111.94 71.8054 111.102 73.1441 110.866C74.4828 110.63 75.5164 111.138 75.8118 112.228L77.489 111.932C77.0974 110.026 75.2574 108.994 72.9108 109.408C70.5411 109.825 69.1035 111.435 69.4413 113.351C69.714 114.898 70.8285 115.685 72.9542 115.818L74.454 115.91C75.9552 116.01 76.6539 116.419 76.8058 117.28C76.9808 118.273 76.1004 119.174 74.7002 119.421C73.2383 119.679 72.0414 119.144 71.7243 118.065L70.024 118.365ZM82.6012 112.221C83.7629 112.016 84.701 112.747 84.9579 113.979L80.9109 114.692C80.7799 113.454 81.4394 112.425 82.6012 112.221ZM85.3762 116.396C85.2779 117.143 84.6618 117.744 83.7155 117.91C82.3845 118.145 81.374 117.363 81.1257 115.955L81.1081 115.855L86.8246 114.847L86.7242 114.278C86.2914 111.824 84.6117 110.486 82.3651 110.882C80.08 111.285 78.9167 113.235 79.3644 115.774C79.8148 118.329 81.537 119.683 83.9144 119.264C85.7686 118.937 86.9831 117.636 86.9534 116.118L85.3762 116.396ZM88.7575 118.251L90.4193 117.958L89.5647 113.111C89.3625 111.965 89.898 111.132 90.9675 110.944C91.2906 110.887 91.5898 110.874 91.7301 110.904L91.4574 109.358C91.3302 109.357 91.1157 109.355 90.8772 109.397C89.9231 109.565 89.299 110.254 89.1965 111.248L89.1581 111.255L88.9152 109.878L87.3303 110.157L88.7575 118.251ZM99.4096 108.027L97.6708 108.334L96.7806 115.162L96.7498 115.168L93.5777 109.056L91.8081 109.368L96.1512 116.947L97.9362 116.633L99.4096 108.027ZM101.845 115.943L103.507 115.65L102.079 107.556L100.417 107.85L101.845 115.943ZM101.039 106.518C101.578 106.423 101.934 105.924 101.842 105.401C101.748 104.87 101.243 104.523 100.704 104.618C100.174 104.711 99.8173 105.211 99.9109 105.741C100.003 106.265 100.509 106.612 101.039 106.518ZM111.218 108.817C110.791 107.25 109.286 106.135 107.201 106.503C104.9 106.908 103.679 108.798 104.132 111.367C104.593 113.983 106.38 115.302 108.696 114.894C110.643 114.551 111.814 113.138 111.687 111.384L110.086 111.666C110.06 112.639 109.489 113.318 108.466 113.499C107.173 113.727 106.138 112.846 105.824 111.069C105.518 109.33 106.175 108.111 107.46 107.885C108.545 107.694 109.312 108.264 109.633 109.096L111.218 108.817ZM115.515 106.417C116.677 106.212 117.615 106.943 117.872 108.175L113.825 108.889C113.694 107.65 114.354 106.622 115.515 106.417ZM118.29 110.592C118.192 111.339 117.576 111.94 116.63 112.107C115.299 112.342 114.288 111.56 114.04 110.152L114.022 110.052L119.739 109.044L119.638 108.474C119.206 106.02 117.526 104.682 115.279 105.078C112.994 105.481 111.831 107.432 112.278 109.971C112.729 112.525 114.451 113.879 116.829 113.46C118.683 113.133 119.897 111.832 119.868 110.314L118.29 110.592Z" fill="#1F293C"/>
<path d="M169.209 139.968C170.343 146.398 169.443 153.022 166.636 158.917C163.829 164.813 159.254 169.686 153.547 172.86C147.841 176.033 141.287 177.348 134.798 176.622C128.309 175.896 122.208 173.165 117.343 168.809C112.479 164.453 109.094 158.689 107.659 152.319C106.225 145.949 106.811 139.29 109.338 133.27C111.865 127.249 116.206 122.166 121.758 118.728C127.309 115.29 133.794 113.668 140.31 114.088L138.289 145.42L169.209 139.968Z" fill="#1642C5"/>
<path d="M173.058 135.593C171.838 128.676 168.335 122.369 163.108 117.678C157.881 112.987 151.232 110.184 144.224 109.718L142.138 141.045L173.058 135.593Z" fill="#1F293C"/>
</g>
<defs>
<filter id="filter0_d_632_7537" x="-3.04233" y="-3.04233" width="311.149" height="308.935" filterUnits="userSpaceOnUse" color-interpolation-filters="sRGB">
<feFlood flood-opacity="0" result="BackgroundImageFix"/>
<feColorMatrix in="SourceAlpha" type="matrix" values="0 0 0 0 0 0 0 0 0 0 0 0 0 0 0 0 0 0 127 0" result="hardAlpha"/>
<feOffset dx="14.5608" dy="14.5608"/>
<feGaussianBlur stdDeviation="27.3016"/>
<feComposite in2="hardAlpha" operator="out"/>
<feColorMatrix type="matrix" values="0 0 0 0 0.192157 0 0 0 0 0.180392 0 0 0 0 0.505882 0 0 0 0.15 0"/>
<feBlend mode="normal" in2="BackgroundImageFix" result="effect1_dropShadow_632_7537"/>
<feBlend mode="normal" in="SourceGraphic" in2="effect1_dropShadow_632_7537" result="shape"/>
</filter>
</defs>
</svg>
