<svg width="380" height="412" viewBox="0 0 380 412" fill="none" xmlns="http://www.w3.org/2000/svg">
<g filter="url(#filter0_d_627_7341)">
<rect x="-61.3091" y="209" width="292.59" height="194.017" rx="25.0345" transform="rotate(10 -61.3091 209)" fill="white"/>
<rect x="-60.6745" y="209.906" width="291.026" height="192.453" rx="24.2522" transform="rotate(10 -60.6745 209.906)" stroke="#ACC516" stroke-width="1.56466"/>
</g>
<path d="M184.33 284.617C178.67 283.619 173.244 287.419 172.246 293.079C171.248 298.739 175.047 304.165 180.708 305.163C186.368 306.161 191.793 302.362 192.791 296.701C193.789 291.041 189.99 285.616 184.33 284.617ZM187.846 293.393L180.994 298.191C180.825 298.309 180.615 298.357 180.41 298.321C180.204 298.284 180.024 298.168 179.905 297.999L177.511 294.579C177.265 294.229 177.352 293.735 177.703 293.49C178.053 293.245 178.546 293.332 178.792 293.682L180.738 296.461L186.949 292.112C187.299 291.867 187.792 291.954 188.038 292.304C188.283 292.655 188.198 293.138 187.846 293.393Z" fill="#ACC516"/>
<path d="M-36.3233 264.342L-26.7064 266.038L-26.3033 263.752L-33.2027 262.536L-30.9256 249.622L-33.6432 249.142L-36.3233 264.342ZM-21.2575 267.227C-19.5721 267.524 -18.2865 266.947 -17.4973 265.859L-17.4447 265.868L-17.753 267.617L-15.1302 268.079L-13.1614 256.914L-15.7842 256.451L-16.9246 262.919C-17.2106 264.541 -18.3605 265.457 -19.8668 265.191C-21.3625 264.927 -21.942 263.902 -21.6634 262.322L-20.4821 255.623L-23.1049 255.16L-24.3772 262.376C-24.8341 264.967 -23.7117 266.794 -21.2575 267.227ZM-8.08019 269.55C-5.25725 270.048 -3.05974 268.611 -2.44914 266.318L-2.4256 266.246L-4.90095 265.81L-4.93873 265.901C-5.38716 267.027 -6.36913 267.669 -7.69634 267.435C-9.35008 267.143 -10.1868 265.606 -9.77628 263.278L-9.77442 263.267C-9.37139 260.981 -8.06049 259.768 -6.40675 260.06C-5.01634 260.305 -4.36996 261.32 -4.34006 262.444L-4.33571 262.543L-1.86037 262.979L-1.85604 262.893C-1.62029 260.632 -3.12435 258.444 -6.06317 257.926C-9.31799 257.352 -11.8184 259.214 -12.4462 262.774L-12.448 262.785C-13.0795 266.366 -11.3982 268.965 -8.08019 269.55ZM1.7109 271.244C3.18557 271.504 4.55852 270.986 5.40722 269.93L5.47042 269.941L5.16768 271.658L7.79049 272.121L9.14448 264.442C9.54009 262.198 7.9989 260.406 5.20756 259.914C2.37407 259.414 0.39525 260.596 -0.111927 262.549L-0.144749 262.673L2.28846 263.102L2.32625 263.011C2.63965 262.219 3.50021 261.774 4.74315 261.993C6.07036 262.227 6.68697 263.042 6.48823 264.169L6.35265 264.938L3.40333 264.602C0.666528 264.294 -1.08122 265.213 -1.4304 267.193L-1.43411 267.214C-1.78515 269.205 -0.522183 270.85 1.7109 271.244ZM1.19674 267.569L1.1986 267.559C1.35461 266.674 2.15879 266.24 3.46925 266.384L6.04619 266.676L5.89761 267.518C5.66358 268.846 4.34953 269.646 2.84326 269.38C1.69512 269.178 1.03515 268.486 1.19674 267.569ZM14.2295 273.484C16.9682 273.967 19.1658 272.899 19.5372 270.792L19.5391 270.782C19.8251 269.16 19.0895 268.096 16.8737 267.173L15.0817 266.433C13.9695 265.966 13.6119 265.468 13.7252 264.826L13.7271 264.815C13.8719 263.994 14.6935 263.585 15.8521 263.789C17.074 264.004 17.6751 264.784 17.6331 265.7L17.6288 265.786L20.0725 266.217L20.0824 266.099C20.3275 264.155 18.9747 262.341 16.1939 261.851C13.4973 261.375 11.4739 262.441 11.1136 264.485L11.1117 264.495C10.8201 266.149 11.7106 267.381 13.7653 268.232L15.5468 268.97C16.659 269.438 16.9819 269.886 16.863 270.56L16.8612 270.57C16.7163 271.392 15.8563 271.772 14.5818 271.548C13.2546 271.314 12.6281 270.617 12.597 269.623L12.5926 269.524L10.0119 269.069L10.0058 269.166C9.8716 271.282 11.3012 272.968 14.2295 273.484ZM25.2127 275.193L31.5854 276.316C34.8297 276.888 37.0892 275.592 37.5572 272.938L37.561 272.917C37.9138 270.916 36.724 269.164 34.6191 268.597L34.6284 268.544C36.3001 268.611 37.7907 267.364 38.0786 265.731L38.0823 265.71C38.489 263.404 36.9726 261.594 34.2023 261.105L27.8928 259.993L25.2127 275.193ZM33.1443 263.102C34.756 263.386 35.5634 264.289 35.3312 265.605L35.3275 265.626C35.0749 267.059 33.8804 267.674 31.9212 267.328L29.4775 266.897L30.2371 262.589L33.1443 263.102ZM32.0058 269.374C34.1335 269.749 35.0878 270.743 34.8185 272.27L34.8148 272.292C34.5455 273.819 33.3281 274.44 31.3373 274.089L28.3037 273.555L29.1302 268.867L32.0058 269.374ZM38.4743 277.531L41.0971 277.993L42.2393 271.515C42.5309 269.862 43.5916 269.082 45.0768 269.344C45.5192 269.422 45.9083 269.556 46.1146 269.679L46.5325 267.309C46.3417 267.221 46.0455 267.114 45.719 267.057C44.4339 266.83 43.3639 267.478 42.7786 268.765L42.7259 268.756L43.0658 266.828L40.443 266.366L38.4743 277.531ZM49.5312 266.317C50.3528 266.462 51.1 265.92 51.2374 265.141C51.3786 264.34 50.8599 263.586 50.0383 263.442C49.2167 263.297 48.4609 263.826 48.3197 264.626C48.1823 265.406 48.7096 266.172 49.5312 266.317ZM45.9635 278.851L48.5863 279.314L50.5551 268.149L47.9323 267.686L45.9635 278.851ZM55.1653 284.503C58.399 285.074 60.731 283.736 61.1768 281.208L63.0898 270.359L60.467 269.896L60.1327 271.792L60.0695 271.781C59.6641 270.385 58.5908 269.327 57.0108 269.048C54.1878 268.55 51.9829 270.399 51.3607 273.927L51.3589 273.938C50.746 277.414 52.1683 279.88 54.9702 280.374C56.5712 280.657 57.969 280.121 58.8003 279.041L58.853 279.05L58.5688 280.661C58.3181 282.083 57.2209 282.824 55.5145 282.523C54.1451 282.282 53.3352 281.639 53.1641 280.947L53.1474 280.857L50.5667 280.402L50.571 280.5C50.5787 282.304 52.2054 283.981 55.1653 284.503ZM56.1484 278.497C54.463 278.2 53.6387 276.653 54.0269 274.452L54.0288 274.441C54.4114 272.271 55.7149 271.1 57.4002 271.397C59.0223 271.683 59.885 273.258 59.5043 275.418L59.5024 275.428C59.1198 277.598 57.781 278.785 56.1484 278.497ZM67.5917 282.893C70.3304 283.376 72.5279 282.308 72.8994 280.202L72.9012 280.191C73.1873 278.569 72.4517 277.505 70.2359 276.582L68.4439 275.843C67.3316 275.375 66.9741 274.878 67.0874 274.235L67.0892 274.224C67.2341 273.403 68.0556 272.994 69.2143 273.198C70.4362 273.414 71.0373 274.193 70.9953 275.109L70.9909 275.195L73.4347 275.626L73.4446 275.508C73.6897 273.564 72.3368 271.75 69.556 271.26C66.8595 270.785 64.836 271.851 64.4757 273.894L64.4739 273.905C64.1823 275.558 65.0728 276.791 67.1275 277.642L68.9089 278.379C70.0212 278.847 70.344 279.295 70.2252 279.969L70.2233 279.979C70.0784 280.801 69.2185 281.182 67.944 280.957C66.6167 280.723 65.9902 280.026 65.9591 279.032L65.9548 278.934L63.3741 278.479L63.3679 278.575C63.2338 280.691 64.6634 282.377 67.5917 282.893ZM78.104 284.747C78.6307 284.84 79.1034 284.869 79.4163 284.88L79.7636 282.911C79.5827 282.89 79.377 282.886 79.1242 282.841C78.1657 282.672 77.7424 282.239 77.9356 281.144L78.9757 275.245L81.0508 275.611L81.4074 273.589L79.3323 273.223L79.8319 270.389L77.167 269.919L76.6673 272.753L75.0873 272.474L74.7307 274.497L76.3107 274.775L75.2316 280.895C74.8267 283.191 75.7656 284.334 78.104 284.747ZM85.8987 286.121C88.8165 286.636 90.7643 285.198 91.4146 283.542L91.4666 283.432L89.0124 282.999L88.9783 283.069C88.5936 283.773 87.6178 284.317 86.3117 284.087C84.6053 283.786 83.7352 282.438 84.0385 280.471L91.8543 281.849L92.0029 281.007C92.5972 277.636 91.0126 275.043 87.8209 274.481C84.6293 273.918 82.1667 275.873 81.5463 279.391L81.5445 279.402C80.9186 282.951 82.5491 285.531 85.8987 286.121ZM87.4904 276.54C88.8808 276.785 89.736 277.848 89.6135 279.651L84.3784 278.728C84.8918 277.049 86.0999 276.295 87.4904 276.54ZM92.6791 287.089L95.3019 287.551L96.4441 281.073C96.7357 279.419 97.7964 278.64 99.2816 278.902C99.724 278.98 100.113 279.113 100.319 279.237L100.737 276.867C100.547 276.779 100.25 276.672 99.9238 276.615C98.6387 276.388 97.5688 277.036 96.9834 278.323L96.9308 278.313L97.2707 276.386L94.6478 275.923L92.6791 287.089Z" fill="#1F293C"/>
<path d="M-43.9562 299.228L-42.6922 299.451L-41.213 291.062L-41.1678 291.07L-39.1786 300.071L-38.0349 300.273L-33.0872 292.495L-33.0421 292.503L-34.5213 300.892L-33.2573 301.115L-31.3429 290.258L-32.9079 289.982L-38.283 298.468L-38.3282 298.46L-40.4769 288.647L-42.0418 288.372L-43.9562 299.228ZM-28.1601 302.169C-26.4522 302.47 -24.9927 301.672 -24.5087 300.423L-24.4804 300.351L-25.767 300.124L-25.8015 300.188C-26.1453 300.817 -26.9325 301.191 -27.9257 301.016C-29.3176 300.77 -30.0396 299.673 -29.7858 298.058L-24.1504 299.051L-24.0655 298.57C-23.6516 296.222 -24.6733 294.405 -26.8101 294.029C-28.9468 293.652 -30.6244 295.07 -31.0516 297.493L-31.0529 297.501C-31.4867 299.961 -30.4097 301.772 -28.1601 302.169ZM-27.0219 295.186C-25.8783 295.388 -25.1616 296.251 -25.3017 297.793L-29.5828 297.038C-29.1824 295.604 -28.158 294.986 -27.0219 295.186ZM-23.4537 302.844L-22.1446 303.074L-21.3327 298.47C-21.0978 297.138 -20.1376 296.4 -18.9037 296.617C-17.6998 296.83 -17.2288 297.634 -17.453 298.906L-18.3074 303.751L-16.9983 303.982L-16.1028 298.903C-15.7883 297.12 -16.5851 295.831 -18.3006 295.529C-19.4894 295.319 -20.3811 295.713 -20.9311 296.368L-20.9612 296.363L-20.7648 295.25L-22.074 295.019L-23.4537 302.844ZM-13.7578 297.307L-12.8098 297.475L-11.9841 293.672L-13.233 293.451L-13.7578 297.307ZM-8.96675 305.553C-7.22121 305.861 -5.7573 305.126 -5.51585 303.757L-5.51452 303.749C-5.31817 302.636 -5.77987 301.91 -7.29222 301.248L-8.48059 300.728C-9.30869 300.365 -9.5973 299.934 -9.50311 299.4L-9.50178 299.392C-9.37973 298.7 -8.71194 298.345 -7.76394 298.512C-6.79336 298.683 -6.30291 299.289 -6.33157 300.068L-6.33333 300.122L-5.08438 300.342L-5.07465 300.243C-4.94162 298.916 -5.85614 297.723 -7.57157 297.421C-9.26444 297.122 -10.6142 297.87 -10.8516 299.216L-10.853 299.224C-11.052 300.352 -10.4579 301.163 -9.04561 301.777L-7.85724 302.297C-7.0079 302.671 -6.77019 303.039 -6.86969 303.603L-6.87101 303.611C-6.99572 304.318 -7.70599 304.651 -8.76686 304.464C-9.83524 304.275 -10.3337 303.714 -10.3537 302.904L-10.3555 302.826L-11.6646 302.595L-11.669 302.664C-11.7578 304.091 -10.8101 305.228 -8.96675 305.553ZM-1.31103 306.748L-0.00187967 306.979L0.803402 302.412C1.03822 301.08 2.00512 300.304 3.21646 300.518C4.43533 300.733 5.01036 301.695 4.76095 303.11L3.95567 307.677L5.26481 307.907L6.1099 303.115C6.44421 301.219 5.53497 299.732 3.8722 299.439C2.706 299.233 1.76427 299.602 1.18771 300.408L1.15762 300.403L1.91249 296.122L0.603338 295.891L-1.31103 306.748ZM9.1883 308.754C10.2341 308.939 11.2741 308.54 11.8843 307.764L11.9144 307.769L11.6902 309.04L12.9993 309.271L13.9532 303.862C14.2291 302.297 13.2469 301.092 11.396 300.765C9.55271 300.44 8.24857 301.281 7.90886 302.548L7.88674 302.629L9.15075 302.852L9.17773 302.787C9.45159 302.114 10.1685 301.744 11.1767 301.921C12.2677 302.114 12.79 302.803 12.6215 303.759L12.5061 304.413L10.2414 304.146C8.42464 303.934 7.23909 304.586 7.00427 305.918L7.00162 305.933C6.75088 307.355 7.63086 308.48 9.1883 308.754ZM8.34087 306.169L8.34352 306.154C8.4722 305.424 9.15637 305.064 10.2128 305.188L12.327 305.429L12.2142 306.068C12.0139 307.205 10.916 307.888 9.68206 307.67C8.74158 307.504 8.2082 306.921 8.34087 306.169ZM17.0127 300.545C17.4716 300.626 17.8978 300.321 17.9774 299.87C18.0583 299.411 17.7608 298.986 17.3019 298.905C16.8504 298.826 16.4181 299.122 16.3372 299.581C16.2576 300.032 16.5612 300.466 17.0127 300.545ZM14.7449 309.579L16.054 309.81L17.4337 301.985L16.1246 301.754L14.7449 309.579ZM17.8372 310.124L19.1463 310.355L19.998 305.525C20.2076 304.336 20.9944 303.746 22.0102 303.925C22.3262 303.98 22.5979 304.067 22.6966 304.123L22.9208 302.852C22.8181 302.818 22.6292 302.746 22.4034 302.706C21.5232 302.551 20.7452 303.003 20.3226 303.86L20.2925 303.855L20.526 302.53L19.2169 302.299L17.8372 310.124ZM25.4323 311.619C27.2004 311.93 28.69 311.006 29.1633 309.554L29.1801 309.502L27.8935 309.275L27.8679 309.333C27.4958 310.167 26.705 310.648 25.6366 310.46C24.2823 310.221 23.5391 308.981 23.8601 307.16L23.8614 307.152C24.1745 305.377 25.2839 304.409 26.6457 304.649C27.7969 304.852 28.3068 305.656 28.3645 306.473L28.3689 306.535L29.648 306.761L29.6511 306.699C29.7217 305.331 28.7987 303.834 26.85 303.49C24.6756 303.107 22.96 304.433 22.5248 306.901L22.5235 306.909C22.0844 309.399 23.2128 311.227 25.4323 311.619ZM32.5799 312.879C33.7687 313.089 34.6604 312.695 35.2105 312.04L35.2406 312.045L35.0442 313.158L36.3534 313.389L37.7331 305.564L36.4239 305.334L35.612 309.938C35.3772 311.27 34.4169 312.008 33.183 311.791C31.9792 311.578 31.5082 310.774 31.7324 309.502L32.5868 304.657L31.2776 304.426L30.3821 309.505C30.0677 311.288 30.8645 312.577 32.5799 312.879ZM40.5778 314.289C40.8336 314.334 41.1173 314.353 41.2868 314.36L41.4739 313.299C41.3597 313.287 41.2052 313.283 41.0472 313.255C40.3475 313.131 40.02 312.833 40.1672 311.998L41.003 307.258L42.4927 307.521L42.6838 306.437L41.1941 306.175L41.5668 304.06L40.2126 303.822L39.8398 305.936L38.6961 305.734L38.5051 306.818L39.6487 307.019L38.8116 311.767C38.5476 313.264 39.1407 314.036 40.5778 314.289Z" fill="#98A7C3"/>
<path d="M-45.3475 329.946L-44.3724 330.118L-44.105 328.602C-41.6418 328.887 -39.5978 327.907 -39.2029 325.668L-39.1998 325.65C-38.8591 323.718 -39.9373 322.494 -42.287 321.512L-42.817 321.297L-42.2009 317.803C-41.1053 318.136 -40.4822 318.879 -40.5203 319.887L-40.5256 319.97L-38.4219 320.341L-38.4055 320.195C-38.2114 318.144 -39.5712 316.563 -41.8809 315.989L-41.6135 314.472L-42.5886 314.3L-42.856 315.817C-45.2937 315.545 -47.206 316.623 -47.5674 318.672L-47.5706 318.69C-47.9001 320.559 -46.8617 321.85 -44.6066 322.788L-44.1201 322.985L-44.7616 326.624C-46.1356 326.233 -46.645 325.426 -46.6483 324.494L-46.6489 324.392L-48.7526 324.021L-48.7658 324.149C-48.9891 326.26 -47.4742 327.858 -45.08 328.43L-45.3475 329.946ZM-45.366 318.912L-45.3644 318.903C-45.2275 318.126 -44.4533 317.536 -43.1744 317.622L-43.7539 320.909C-45.0796 320.349 -45.5061 319.706 -45.366 318.912ZM-41.4017 325.466L-41.4048 325.484C-41.5624 326.378 -42.2974 326.956 -43.7881 326.805L-43.1832 323.374C-41.6323 324.029 -41.252 324.617 -41.4017 325.466ZM-30.8244 331.157L-28.5401 331.56L-26.2429 318.532L-28.5452 318.126L-32.3708 319.918L-32.7481 322.058L-28.9729 320.341L-28.9187 320.35L-30.8244 331.157ZM-20.8334 333.152C-17.9532 333.66 -15.6867 332.421 -15.2872 330.155L-15.284 330.137C-14.9656 328.331 -16.038 326.969 -17.9293 326.449L-17.9213 326.404C-16.3021 326.354 -14.9389 325.487 -14.6539 323.871L-14.6507 323.853C-14.2941 321.83 -15.7931 320.142 -18.4836 319.667C-21.1109 319.204 -23.1475 320.353 -23.7255 322.523L-23.7537 322.629L-21.5868 323.011L-21.5618 322.923C-21.2471 321.824 -20.1823 321.276 -18.81 321.518C-17.4105 321.765 -16.737 322.591 -16.944 323.765L-16.9471 323.783C-17.1477 324.921 -18.248 325.564 -19.6836 325.311L-21.1733 325.049L-21.479 326.782L-19.9351 327.054C-18.2738 327.347 -17.3963 328.284 -17.6383 329.656L-17.6415 329.674C-17.8501 330.857 -18.9987 331.511 -20.5065 331.245C-22.0323 330.976 -22.9082 330.03 -22.8483 328.952L-22.8399 328.851L-25.0699 328.458L-25.08 328.568C-25.2847 330.784 -23.6954 332.647 -20.8334 333.152ZM-9.31284 335.183C-6.43271 335.691 -4.09457 334.204 -3.62175 331.523L-3.61856 331.505C-3.18236 329.031 -4.65322 326.919 -7.13609 326.481C-8.44524 326.25 -9.61039 326.575 -10.3336 327.351L-10.3788 327.343L-9.3251 323.479L-3.18564 324.562L-2.84973 322.657L-10.8491 321.246L-12.8077 328.711L-10.7763 329.07C-10.5719 328.808 -10.3106 328.593 -10.0318 328.437C-9.462 328.11 -8.78117 327.997 -8.04082 328.128C-6.51499 328.397 -5.61038 329.655 -5.87306 331.144L-5.87624 331.162C-6.14529 332.688 -7.40755 333.564 -8.96047 333.29C-10.3328 333.048 -11.1779 332.034 -11.1749 330.908L-11.1728 330.843L-13.3577 330.458L-13.3694 330.577C-13.5783 332.765 -12.0214 334.706 -9.31284 335.183ZM-1.70545 336.441C-0.974129 336.57 -0.303438 336.092 -0.174487 335.361C-0.047128 334.639 -0.514044 333.96 -1.24536 333.832C-1.97668 333.703 -2.6564 334.178 -2.78376 334.901C-2.91271 335.632 -2.43676 336.312 -1.70545 336.441ZM6.13512 337.907C9.32223 338.469 11.7113 336.219 12.442 332.074L12.4452 332.056C13.1759 327.912 11.6991 324.989 8.51196 324.427C5.31583 323.864 2.93743 326.107 2.20671 330.251L2.20352 330.269C1.4728 334.413 2.93899 337.344 6.13512 337.907ZM6.47103 336.002C4.71045 335.692 4.02083 333.69 4.55096 330.683L4.55415 330.665C5.08428 327.658 6.41388 326.031 8.17446 326.341C9.92602 326.65 10.6279 328.636 10.0977 331.642L10.0945 331.66C9.5644 334.667 8.22259 336.311 6.47103 336.002ZM17.9265 339.986C21.1136 340.548 23.5026 338.298 24.2334 334.154L24.2365 334.135C24.9673 329.991 23.4904 327.068 20.3033 326.506C17.1072 325.943 14.7288 328.186 13.9981 332.33L13.9949 332.348C13.2642 336.492 14.7304 339.423 17.9265 339.986ZM18.2624 338.081C16.5018 337.771 15.8122 335.769 16.3423 332.762L16.3455 332.744C16.8757 329.738 18.2053 328.11 19.9658 328.421C21.7174 328.729 22.4192 330.715 21.8891 333.722L21.8859 333.74C21.3558 336.746 20.014 338.39 18.2624 338.081Z" fill="#1642C5"/>
<rect x="-54.4019" y="350.031" width="104.832" height="25.0345" rx="12.5172" transform="rotate(10 -54.4019 350.031)" fill="#98A7C3" fill-opacity="0.2"/>
<path d="M-43.9357 369.27L-42.3106 369.557L-37.2935 362.82L-37.0653 361.526L-43.1084 360.461L-43.3324 361.731L-38.8181 362.527L-38.8234 362.557L-43.9357 369.27ZM-35.8193 364.843C-35.3317 364.929 -34.8846 364.61 -34.7986 364.123C-34.7127 363.635 -35.025 363.189 -35.5125 363.103C-36.0001 363.017 -36.4522 363.329 -36.5381 363.816C-36.6241 364.304 -36.3068 364.757 -35.8193 364.843ZM-36.5983 369.261C-36.1107 369.347 -35.6636 369.028 -35.5776 368.541C-35.4917 368.053 -35.804 367.607 -36.2916 367.521C-36.7791 367.435 -37.2312 367.747 -37.3172 368.234C-37.4031 368.722 -37.0858 369.175 -36.5983 369.261ZM-32.5596 371.276L-31.0368 371.545L-29.5053 362.859L-31.0402 362.589L-33.5906 363.783L-33.8422 365.21L-31.3254 364.065L-31.2892 364.071L-32.5596 371.276ZM-25.7365 372.634C-23.6117 373.009 -22.019 371.509 -21.5319 368.746L-21.5298 368.734C-21.0426 365.971 -22.0272 364.023 -24.1519 363.648C-26.2827 363.272 -27.8683 364.768 -28.3554 367.53L-28.3575 367.542C-28.8447 370.305 -27.8672 372.259 -25.7365 372.634ZM-25.5125 371.364C-26.6862 371.157 -27.146 369.823 -26.7926 367.818L-26.7905 367.806C-26.437 365.802 -25.5506 364.717 -24.3769 364.924C-23.2092 365.13 -22.7413 366.454 -23.0947 368.458L-23.0969 368.47C-23.4503 370.474 -24.3448 371.57 -25.5125 371.364ZM-18.0612 370.885L-14.1789 371.569L-13.9432 370.233L-17.8255 369.548L-18.0612 370.885ZM-7.60098 375.832C-5.61468 376.182 -4.04173 375.392 -3.78064 373.912L-3.77852 373.9C-3.5843 372.798 -4.24015 371.801 -5.3484 371.364L-5.34203 371.328C-4.3082 371.237 -3.53078 370.629 -3.36734 369.702L-3.36522 369.69C-3.13066 368.36 -4.22274 367.162 -6.01642 366.846C-7.80409 366.531 -9.24605 367.282 -9.4806 368.612L-9.48272 368.624C-9.64617 369.551 -9.12347 370.388 -8.18304 370.827L-8.1894 370.863C-9.38044 370.895 -10.3317 371.608 -10.5259 372.71L-10.528 372.722C-10.7891 374.203 -9.58728 375.482 -7.60098 375.832ZM-6.6755 370.584C-7.57837 370.424 -8.106 369.791 -7.97333 369.039L-7.97121 369.027C-7.83854 368.275 -7.12022 367.861 -6.22338 368.019C-5.32654 368.178 -4.79289 368.812 -4.92555 369.564L-4.92768 369.576C-5.06034 370.328 -5.77264 370.743 -6.6755 370.584ZM-7.3919 374.646C-8.42718 374.464 -9.06246 373.737 -8.91599 372.907L-8.91387 372.895C-8.76635 372.058 -7.93191 371.585 -6.88459 371.769C-5.83727 371.954 -5.21509 372.684 -5.36261 373.521L-5.36474 373.533C-5.5112 374.364 -6.3506 374.83 -7.3919 374.646ZM-1.25771 370.937C-0.770164 371.023 -0.323037 370.704 -0.237069 370.217C-0.151102 369.729 -0.463441 369.283 -0.950986 369.197C-1.43853 369.111 -1.89062 369.423 -1.97658 369.91C-2.06255 370.398 -1.74525 370.851 -1.25771 370.937ZM-2.03672 375.355C-1.54918 375.441 -1.10205 375.123 -1.01608 374.635C-0.930115 374.147 -1.24245 373.701 -1.73 373.615C-2.21754 373.529 -2.66963 373.841 -2.7556 374.328C-2.84156 374.816 -2.52427 375.269 -2.03672 375.355ZM2.00191 377.37L3.52473 377.639L5.05623 368.953L3.52136 368.683L0.970918 369.878L0.719384 371.304L3.2362 370.159L3.27231 370.165L2.00191 377.37ZM8.82509 378.729C10.9498 379.103 12.5425 377.603 13.0297 374.84L13.0318 374.828C13.5189 372.065 12.5344 370.117 10.4096 369.742C8.27889 369.366 6.69329 370.862 6.20614 373.625L6.20402 373.637C5.71687 376.399 6.69433 378.353 8.82509 378.729ZM9.04903 377.459C7.87531 377.252 7.41556 375.917 7.76898 373.913L7.7711 373.9C8.12452 371.896 9.01093 370.811 10.1846 371.018C11.3523 371.224 11.8202 372.548 11.4668 374.552L11.4647 374.564C11.1113 376.569 10.2167 377.664 9.04903 377.459ZM17.7287 380.255C18.5714 380.404 19.3559 380.108 19.8409 379.504L19.877 379.511L19.704 380.492L21.2028 380.756L21.9765 376.368C22.2025 375.086 21.3219 374.062 19.7268 373.781C18.1077 373.495 16.9769 374.171 16.6871 375.286L16.6683 375.358L18.0588 375.603L18.0803 375.551C18.2594 375.098 18.7512 374.844 19.4614 374.969C20.2198 375.103 20.5722 375.568 20.4586 376.212L20.3811 376.652L18.6958 376.46C17.1319 376.283 16.1332 376.809 15.9337 377.94L15.9316 377.952C15.731 379.09 16.4527 380.03 17.7287 380.255ZM17.4349 378.155L17.436 378.149C17.5251 377.644 17.9847 377.396 18.7335 377.478L20.206 377.645L20.1211 378.126C19.9874 378.885 19.2365 379.342 18.3758 379.19C17.7197 379.074 17.3426 378.679 17.4349 378.155ZM22.4126 380.969L23.9114 381.234L24.6002 377.327C24.7371 376.551 25.3424 376.074 26.0647 376.201C26.7629 376.325 27.1178 376.846 26.9915 377.563L26.2708 381.65L27.7275 381.906L28.4226 377.964C28.5585 377.193 29.1465 376.745 29.8688 376.872C30.6031 377.002 30.9328 377.525 30.7938 378.314L30.0869 382.322L31.5857 382.587L32.3583 378.205C32.5833 376.929 31.9094 375.929 30.6514 375.707C29.7305 375.544 28.8851 375.904 28.438 376.645L28.4019 376.638C28.3115 375.778 27.7502 375.195 26.8594 375.038C26.0167 374.89 25.28 375.231 24.886 375.882L24.8559 375.877L25.0364 374.853L23.5376 374.589L22.4126 380.969Z" fill="#1F293C"/>
<defs>
<filter id="filter0_d_627_7341" x="-134.847" y="0.169807" width="514.186" height="446.745" filterUnits="userSpaceOnUse" color-interpolation-filters="sRGB">
<feFlood flood-opacity="0" result="BackgroundImageFix"/>
<feColorMatrix in="SourceAlpha" type="matrix" values="0 0 0 0 0 0 0 0 0 0 0 0 0 0 0 0 0 0 127 0" result="hardAlpha"/>
<feOffset dx="56.3276" dy="-112.655"/>
<feGaussianBlur stdDeviation="50.069"/>
<feColorMatrix type="matrix" values="0 0 0 0 0.121569 0 0 0 0 0.160784 0 0 0 0 0.235294 0 0 0 0.15 0"/>
<feBlend mode="normal" in2="BackgroundImageFix" result="effect1_dropShadow_627_7341"/>
<feBlend mode="normal" in="SourceGraphic" in2="effect1_dropShadow_627_7341" result="shape"/>
</filter>
</defs>
</svg>
