<svg width="122" height="140" viewBox="0 0 122 140" fill="none" xmlns="http://www.w3.org/2000/svg">
<path fill-rule="evenodd" clip-rule="evenodd" d="M119.201 -69.3906L1.31465 -137.452C0.66221 -137.829 -0.141638 -137.829 -0.794077 -137.452L-118.68 -69.3906C-119.333 -69.0139 -119.735 -68.3177 -119.735 -67.5643V68.559C-119.735 69.3124 -119.333 70.0086 -118.68 70.3853L-0.794077 138.447C-0.141638 138.824 0.66221 138.824 1.31465 138.447L119.201 70.3853C119.853 70.0086 120.255 69.3124 120.255 68.559V-67.5643C120.255 -68.3177 119.853 -69.0139 119.201 -69.3906ZM1.94727 -138.548C0.903354 -139.151 -0.382795 -139.151 -1.42669 -138.548L-119.313 -70.4863C-120.357 -69.8836 -121 -68.7697 -121 -67.5643V68.559C-121 69.7644 -120.357 70.8783 -119.313 71.481L-1.42669 139.543C-0.382783 140.145 0.903367 140.145 1.94727 139.543L119.834 71.481C120.878 70.8783 121.521 69.7644 121.521 68.559V-67.5643C121.521 -68.7697 120.878 -69.8836 119.834 -70.4863L1.94727 -138.548Z" fill="white"/>
</svg>
