<svg width="257" height="316" viewBox="0 0 257 316" fill="none" xmlns="http://www.w3.org/2000/svg">
<g filter="url(#filter0_d_627_7319)">
<rect x="90" y="138.148" width="260" height="203" rx="24" transform="rotate(-10 90 138.148)" fill="white"/>
</g>
<path d="M131.223 252.269L132.691 260.596L133.983 260.368L133.482 257.523L135.271 257.207C136.904 256.919 137.854 255.598 137.568 253.97C137.282 252.349 135.96 251.434 134.344 251.718L131.223 252.269ZM132.707 253.132L134.196 252.869C135.316 252.672 136.062 253.159 136.247 254.209C136.432 255.259 135.899 255.978 134.773 256.176L133.29 256.438L132.707 253.132ZM143.669 252.401L142.423 252.62L143.046 256.158C143.213 257.104 142.781 257.823 141.88 257.982C141.021 258.133 140.495 257.714 140.332 256.791L139.682 253.104L138.435 253.323L139.128 257.253C139.373 258.644 140.333 259.361 141.654 259.128C142.583 258.964 143.128 258.446 143.335 257.66L143.364 257.655L143.545 258.682L144.739 258.471L143.669 252.401ZM145.097 253.922C145.247 254.77 145.902 255.244 147.045 255.316L148.176 255.39C148.84 255.44 149.108 255.612 149.176 255.999C149.263 256.489 148.856 256.882 148.106 257.015C147.344 257.149 146.837 256.905 146.636 256.34L145.401 256.557C145.696 257.654 146.779 258.23 148.216 257.977C149.705 257.714 150.603 256.771 150.408 255.663C150.25 254.768 149.707 254.388 148.432 254.31L147.369 254.253C146.713 254.208 146.368 254.007 146.302 253.632C146.217 253.153 146.609 252.745 147.284 252.626C147.983 252.503 148.487 252.765 148.641 253.303L149.813 253.096C149.582 252.024 148.502 251.435 147.152 251.673C145.733 251.924 144.906 252.837 145.097 253.922ZM151.733 257.238L152.979 257.018L152.361 253.51C152.192 252.552 152.645 251.817 153.569 251.655C154.446 251.5 154.99 251.957 155.148 252.852L155.795 256.522L157.047 256.301L156.358 252.388C156.115 251.015 155.162 250.267 153.829 250.502C152.906 250.665 152.315 251.191 152.105 251.96L152.077 251.965L151.5 248.693L150.265 248.911L151.733 257.238ZM162.062 255.417L160.98 249.283L161.032 249.274L166.43 254.646L167.596 254.441L166.127 246.114L164.87 246.336L165.952 252.476L165.906 252.484L160.507 247.105L159.336 247.312L160.804 255.638L162.062 255.417ZM171.615 253.851C173.352 253.545 174.284 252.149 173.939 250.193C173.595 248.242 172.236 247.25 170.505 247.556C168.774 247.861 167.836 249.258 168.18 251.208C168.525 253.164 169.878 254.157 171.615 253.851ZM171.434 252.824C170.459 252.996 169.687 252.335 169.449 250.984C169.212 249.64 169.711 248.755 170.686 248.583C171.661 248.411 172.432 249.072 172.669 250.417C172.907 251.767 172.415 252.651 171.434 252.824ZM174.477 245.487L174.731 246.924L173.848 247.079L174.022 248.066L174.905 247.91L175.519 251.396C175.726 252.567 176.287 252.95 177.516 252.733C177.793 252.684 178.066 252.612 178.199 252.553L178.025 251.567C177.947 251.598 177.747 251.645 177.62 251.668C177.112 251.757 176.84 251.561 176.747 251.036L176.157 247.69L177.311 247.486L177.137 246.499L175.983 246.703L175.73 245.266L174.477 245.487ZM179.275 252.381L180.521 252.162L179.451 246.091L178.204 246.311L179.275 252.381ZM178.671 245.313C179.075 245.241 179.342 244.867 179.273 244.475C179.203 244.076 178.824 243.816 178.42 243.887C178.022 243.957 177.754 244.332 177.825 244.73C177.894 245.122 178.273 245.383 178.671 245.313ZM182.16 251.873L183.412 251.652L182.516 246.568L183.728 246.355L183.556 245.379L182.327 245.596L182.226 245.025C182.131 244.488 182.337 244.172 182.88 244.077C183.047 244.047 183.216 244.029 183.342 244.031L183.179 243.108C183.012 243.107 182.724 243.128 182.47 243.173C181.236 243.391 180.779 244.042 180.987 245.22L181.092 245.814L180.255 245.961L180.427 246.937L181.264 246.789L182.16 251.873ZM185.645 251.258L186.892 251.038L185.821 244.968L184.575 245.188L185.645 251.258ZM185.041 244.189C185.445 244.118 185.713 243.744 185.643 243.351C185.573 242.953 185.194 242.693 184.79 242.764C184.392 242.834 184.125 243.209 184.195 243.607C184.264 243.999 184.643 244.259 185.041 244.189ZM192.676 245.913C192.355 244.738 191.226 243.902 189.662 244.178C187.937 244.482 187.021 245.899 187.361 247.826C187.707 249.788 189.047 250.777 190.784 250.471C192.244 250.214 193.122 249.154 193.027 247.838L191.827 248.05C191.807 248.78 191.379 249.289 190.611 249.425C189.642 249.596 188.865 248.935 188.63 247.602C188.4 246.298 188.893 245.384 189.857 245.214C190.671 245.071 191.246 245.499 191.487 246.123L192.676 245.913ZM196.24 248.48C195.57 248.598 195.071 248.329 194.977 247.798C194.886 247.279 195.249 246.876 195.984 246.692L197.462 246.336L197.547 246.815C197.686 247.606 197.111 248.326 196.24 248.48ZM196.068 249.528C196.864 249.387 197.556 248.825 197.789 248.088L197.818 248.083L197.994 249.081L199.188 248.87L198.451 244.687C198.236 243.469 197.158 242.856 195.687 243.115C194.186 243.38 193.394 244.353 193.518 245.461L194.695 245.254C194.709 244.692 195.098 244.266 195.82 244.139C196.581 244.005 197.108 244.328 197.227 245.004L197.31 245.471L195.665 245.862C194.237 246.197 193.538 246.993 193.725 248.054C193.918 249.145 194.879 249.737 196.068 249.528ZM199.44 241.085L199.693 242.522L198.81 242.678L198.984 243.664L199.867 243.509L200.482 246.994C200.688 248.165 201.25 248.548 202.479 248.332C202.756 248.283 203.029 248.211 203.161 248.152L202.987 247.165C202.909 247.197 202.709 247.244 202.583 247.266C202.075 247.356 201.802 247.16 201.71 246.635L201.119 243.288L202.274 243.084L202.1 242.098L200.945 242.301L200.692 240.864L199.44 241.085ZM204.237 247.98L205.484 247.76L204.413 241.69L203.167 241.909L204.237 247.98ZM203.634 240.911C204.037 240.84 204.305 240.465 204.235 240.073C204.165 239.675 203.786 239.414 203.382 239.486C202.984 239.556 202.717 239.93 202.787 240.328C202.856 240.721 203.235 240.981 203.634 240.911ZM209.388 247.191C211.125 246.885 212.056 245.489 211.712 243.532C211.368 241.582 210.009 240.59 208.278 240.895C206.546 241.201 205.609 242.598 205.953 244.548C206.298 246.504 207.651 247.497 209.388 247.191ZM209.207 246.164C208.231 246.336 207.46 245.674 207.222 244.324C206.985 242.98 207.483 242.094 208.459 241.922C209.434 241.75 210.205 242.412 210.442 243.756C210.68 245.107 210.187 245.991 209.207 246.164ZM213.21 246.398L214.457 246.178L213.833 242.641C213.667 241.7 214.123 240.977 215 240.823C215.865 240.67 216.381 241.097 216.542 242.008L217.192 245.696L218.444 245.475L217.751 241.545C217.506 240.155 216.588 239.436 215.249 239.672C214.314 239.837 213.743 240.378 213.537 241.128L213.508 241.133L213.329 240.118L212.14 240.327L213.21 246.398ZM225.739 244.331C227.655 243.994 228.781 242.754 228.795 240.978L227.508 241.205C227.426 242.255 226.705 242.995 225.545 243.199C224.016 243.469 222.83 242.411 222.487 240.466C222.147 238.539 222.91 237.125 224.422 236.859C225.553 236.659 226.564 237.201 226.983 238.228L228.264 238.002C227.739 236.304 226.109 235.395 224.222 235.728C221.897 236.138 220.701 238.062 221.166 240.699C221.634 243.354 223.402 244.743 225.739 244.331ZM232.235 242.133C231.566 242.251 231.066 241.982 230.973 241.451C230.881 240.932 231.244 240.529 231.98 240.345L233.458 239.99L233.542 240.468C233.682 241.259 233.107 241.979 232.235 242.133ZM232.063 243.181C232.859 243.04 233.552 242.478 233.785 241.741L233.813 241.736L233.989 242.734L235.184 242.523L234.446 238.34C234.232 237.122 233.154 236.509 231.682 236.768C230.182 237.033 229.39 238.006 229.514 239.114L230.691 238.907C230.705 238.345 231.094 237.919 231.815 237.792C232.577 237.658 233.104 237.981 233.223 238.657L233.305 239.124L231.661 239.515C230.232 239.85 229.534 240.646 229.721 241.707C229.913 242.798 230.874 243.39 232.063 243.181ZM236.396 242.31L237.642 242.09L236.981 238.339C236.843 237.56 237.267 236.89 238.005 236.76C238.709 236.636 239.232 237.002 239.355 237.7L240.054 241.664L241.277 241.449L240.609 237.658C240.474 236.89 240.89 236.251 241.629 236.121C242.368 235.991 242.868 236.367 243.007 237.152L243.689 241.023L244.942 240.803L244.206 236.631C243.993 235.425 243.068 234.767 241.868 234.978C241.002 235.131 240.366 235.707 240.185 236.501L240.156 236.506C239.78 235.793 239.092 235.468 238.25 235.616C237.43 235.761 236.875 236.323 236.723 237.046L236.694 237.051L236.514 236.03L235.325 236.239L236.396 242.31ZM248.222 233.864C247.345 234.019 246.725 234.586 246.49 235.347L246.467 235.351L246.283 234.307L245.077 234.52L246.502 242.598L247.748 242.378L247.218 239.372L247.247 239.367C247.712 239.981 248.48 240.286 249.351 240.132C250.874 239.864 251.67 238.468 251.331 236.546C250.992 234.625 249.763 233.592 248.222 233.864ZM248.813 239.138C247.855 239.307 247.076 238.6 246.853 237.336C246.632 236.084 247.126 235.14 248.078 234.972C249.065 234.798 249.826 235.503 250.05 236.772C250.275 238.048 249.8 238.964 248.813 239.138ZM254.797 238.154C254.128 238.273 253.628 238.004 253.535 237.473C253.443 236.953 253.807 236.55 254.542 236.367L256.02 236.011L256.104 236.49C256.244 237.281 255.669 238.001 254.797 238.154ZM254.625 239.202C255.422 239.062 256.114 238.5 256.347 237.762L256.375 237.757L256.552 238.756L257.746 238.545L257.008 234.361C256.794 233.144 255.716 232.531 254.244 232.79C252.744 233.055 251.952 234.027 252.076 235.136L253.253 234.928C253.267 234.367 253.656 233.941 254.377 233.814C255.139 233.68 255.666 234.003 255.785 234.678L255.867 235.146L254.223 235.537C252.794 235.872 252.096 236.667 252.283 237.729C252.475 238.82 253.437 239.412 254.625 239.202ZM258.998 238.324L260.245 238.104L259.174 232.034L257.928 232.254L258.998 238.324ZM258.394 231.255C258.798 231.184 259.065 230.81 258.996 230.417C258.926 230.019 258.547 229.759 258.143 229.83C257.745 229.9 257.478 230.274 257.548 230.673C257.617 231.065 257.996 231.325 258.394 231.255ZM263.927 236.414C262.969 236.583 262.209 235.919 261.986 234.65C261.763 233.386 262.245 232.474 263.202 232.305C264.178 232.133 264.963 232.84 265.182 234.086C265.403 235.338 264.902 236.242 263.927 236.414ZM264.519 239.707C266.25 239.401 267.203 238.258 266.948 236.809L265.897 230.849L264.685 231.062L264.868 232.101L264.845 232.105C264.351 231.466 263.571 231.157 262.711 231.309C261.153 231.584 260.373 232.959 260.709 234.869C261.043 236.762 262.251 237.774 263.774 237.506C264.64 237.353 265.279 236.794 265.504 236.076L265.527 236.072L265.703 237.071C265.849 237.901 265.37 238.557 264.395 238.729C263.685 238.854 263.072 238.617 262.803 238.141L261.551 238.362C261.892 239.385 263.088 239.959 264.519 239.707ZM268.202 236.701L269.448 236.481L268.825 232.944C268.659 232.004 269.114 231.281 269.991 231.126C270.857 230.973 271.372 231.4 271.533 232.312L272.183 235.999L273.436 235.778L272.743 231.849C272.497 230.458 271.579 229.739 270.241 229.975C269.306 230.14 268.735 230.681 268.528 231.432L268.499 231.437L268.32 230.421L267.131 230.631L268.202 236.701ZM273.765 231.234C273.914 232.082 274.569 232.556 275.712 232.628L276.844 232.702C277.507 232.752 277.776 232.925 277.844 233.311C277.93 233.802 277.523 234.195 276.773 234.327C276.012 234.461 275.505 234.218 275.304 233.652L274.069 233.87C274.363 234.966 275.447 235.543 276.884 235.289C278.372 235.027 279.271 234.083 279.076 232.975C278.918 232.081 278.375 231.701 277.1 231.622L276.036 231.565C275.38 231.521 275.035 231.32 274.969 230.945C274.885 230.466 275.277 230.057 275.952 229.938C276.65 229.815 277.154 230.077 277.309 230.615L278.48 230.409C278.25 229.337 277.17 228.748 275.82 228.986C274.4 229.236 273.573 230.149 273.765 231.234ZM281.3 234.457C281.721 234.383 281.997 233.989 281.923 233.568C281.849 233.147 281.455 232.871 281.034 232.945C280.612 233.02 280.337 233.413 280.411 233.834C280.485 234.256 280.879 234.531 281.3 234.457ZM280.558 230.251C280.98 230.176 281.256 229.788 281.181 229.361C281.107 228.94 280.713 228.664 280.292 228.739C279.871 228.813 279.595 229.207 279.669 229.628C279.745 230.055 280.137 230.325 280.558 230.251Z" fill="#98A7C3"/>
<path d="M136.427 283.946C136.773 285.438 138.188 286.17 140.034 285.844C142.008 285.497 143.076 284.303 142.802 282.745C142.587 281.527 141.756 280.966 139.977 280.863L139.02 280.799C137.9 280.723 137.4 280.454 137.296 279.866C137.166 279.127 137.763 278.498 138.767 278.321C139.771 278.144 140.546 278.525 140.768 279.343L142.026 279.121C141.732 277.691 140.352 276.917 138.592 277.228C136.815 277.541 135.737 278.749 135.99 280.185C136.195 281.345 137.031 281.936 138.625 282.035L139.75 282.105C140.875 282.18 141.4 282.486 141.513 283.132C141.645 283.877 140.984 284.552 139.934 284.738C138.838 284.931 137.94 284.53 137.702 283.721L136.427 283.946ZM152.808 283.449L151.34 275.123L149.84 275.387L148.31 282.434L148.264 282.442L144.41 276.345L142.916 276.608L144.384 284.935L145.561 284.727L144.48 278.599L144.521 278.592L148.106 284.213L149.064 284.044L150.505 277.537L150.545 277.53L151.626 283.658L152.808 283.449ZM153.565 280.924C153.911 282.416 155.326 283.148 157.172 282.823C159.146 282.475 160.214 281.281 159.94 279.723C159.725 278.505 158.894 277.944 157.115 277.841L156.158 277.778C155.038 277.701 154.538 277.433 154.434 276.844C154.304 276.105 154.901 275.476 155.905 275.299C156.909 275.122 157.684 275.503 157.906 276.321L159.164 276.099C158.87 274.67 157.49 273.895 155.73 274.206C153.953 274.519 152.875 275.727 153.128 277.163C153.333 278.323 154.168 278.914 155.763 279.013L156.888 279.083C158.013 279.158 158.537 279.464 158.651 280.11C158.783 280.855 158.122 281.531 157.072 281.716C155.976 281.909 155.078 281.508 154.84 280.699L153.565 280.924ZM167.461 281.008C169.377 280.671 170.503 279.431 170.517 277.655L169.23 277.882C169.147 278.932 168.427 279.672 167.267 279.876C165.738 280.146 164.552 279.088 164.209 277.143C163.869 275.216 164.631 273.802 166.143 273.536C167.274 273.336 168.286 273.878 168.705 274.905L169.986 274.679C169.46 272.981 167.831 272.072 165.944 272.405C163.618 272.815 162.423 274.739 162.888 277.376C163.356 280.031 165.124 281.421 167.461 281.008ZM173.957 278.81C173.288 278.928 172.788 278.659 172.694 278.128C172.603 277.609 172.966 277.206 173.701 277.022L175.18 276.667L175.264 277.146C175.403 277.936 174.828 278.656 173.957 278.81ZM173.785 279.858C174.581 279.717 175.273 279.155 175.506 278.418L175.535 278.413L175.711 279.411L176.905 279.2L176.168 275.017C175.953 273.799 174.875 273.186 173.404 273.446C171.903 273.71 171.111 274.683 171.235 275.791L172.412 275.584C172.426 275.022 172.815 274.596 173.537 274.469C174.298 274.335 174.825 274.659 174.944 275.334L175.027 275.801L173.382 276.192C171.954 276.527 171.255 277.323 171.443 278.385C171.635 279.475 172.596 280.067 173.785 279.858ZM178.117 278.987L179.364 278.767L178.702 275.016C178.565 274.237 178.988 273.568 179.727 273.437C180.431 273.313 180.954 273.679 181.077 274.377L181.776 278.342L182.999 278.126L182.331 274.335C182.195 273.567 182.612 272.929 183.351 272.798C184.089 272.668 184.59 273.044 184.728 273.829L185.411 277.701L186.663 277.48L185.928 273.308C185.715 272.102 184.79 271.444 183.589 271.655C182.724 271.808 182.088 272.384 181.906 273.178L181.878 273.183C181.502 272.47 180.814 272.145 179.971 272.293C179.152 272.438 178.597 273 178.445 273.723L178.416 273.728L178.236 272.707L177.047 272.916L178.117 278.987ZM189.944 270.541C189.067 270.696 188.447 271.263 188.212 272.024L188.189 272.028L188.005 270.984L186.799 271.197L188.223 279.275L189.47 279.055L188.94 276.049L188.968 276.044C189.434 276.658 190.201 276.963 191.073 276.809C192.596 276.541 193.391 275.145 193.052 273.224C192.714 271.302 191.484 270.269 189.944 270.541ZM190.535 275.815C189.577 275.984 188.797 275.277 188.575 274.013C188.354 272.761 188.848 271.817 189.8 271.649C190.787 271.475 191.548 272.18 191.771 273.449C191.996 274.725 191.521 275.641 190.535 275.815ZM196.519 274.832C195.85 274.95 195.35 274.681 195.256 274.15C195.165 273.631 195.528 273.227 196.263 273.044L197.742 272.688L197.826 273.167C197.965 273.958 197.39 274.678 196.519 274.832ZM196.347 275.879C197.143 275.739 197.835 275.177 198.068 274.439L198.097 274.434L198.273 275.433L199.468 275.222L198.73 271.038C198.515 269.821 197.437 269.208 195.966 269.467C194.466 269.732 193.673 270.704 193.797 271.813L194.974 271.605C194.988 271.044 195.377 270.618 196.099 270.491C196.86 270.357 197.388 270.68 197.507 271.355L197.589 271.823L195.944 272.214C194.516 272.549 193.817 273.345 194.005 274.406C194.197 275.497 195.158 276.089 196.347 275.879ZM200.72 275.001L201.966 274.781L200.896 268.711L199.649 268.931L200.72 275.001ZM200.116 267.932C200.52 267.861 200.787 267.487 200.718 267.094C200.648 266.696 200.268 266.436 199.865 266.507C199.466 266.577 199.199 266.952 199.269 267.35C199.339 267.742 199.718 268.002 200.116 267.932ZM205.648 273.091C204.691 273.26 203.931 272.596 203.707 271.327C203.484 270.063 203.966 269.151 204.924 268.982C205.899 268.81 206.684 269.517 206.904 270.763C207.125 272.015 206.624 272.919 205.648 273.091ZM206.241 276.384C207.972 276.079 208.925 274.935 208.669 273.486L207.618 267.526L206.406 267.739L206.59 268.778L206.567 268.782C206.073 268.143 205.293 267.835 204.433 267.986C202.875 268.261 202.094 269.636 202.431 271.546C202.765 273.439 203.973 274.451 205.496 274.183C206.361 274.03 207.001 273.471 207.225 272.753L207.248 272.749L207.424 273.748C207.571 274.579 207.091 275.234 206.116 275.406C205.406 275.531 204.793 275.294 204.525 274.818L203.273 275.039C203.614 276.062 204.81 276.636 206.241 276.384ZM209.923 273.378L211.17 273.159L210.546 269.621C210.38 268.681 210.836 267.958 211.713 267.803C212.579 267.651 213.094 268.077 213.255 268.989L213.905 272.676L215.157 272.455L214.464 268.526C214.219 267.135 213.301 266.417 211.962 266.653C211.028 266.817 210.457 267.358 210.25 268.109L210.221 268.114L210.042 267.098L208.853 267.308L209.923 273.378ZM215.486 267.911C215.636 268.76 216.291 269.233 217.434 269.305L218.565 269.379C219.229 269.429 219.497 269.602 219.565 269.988C219.652 270.479 219.245 270.872 218.495 271.004C217.733 271.139 217.226 270.895 217.025 270.329L215.79 270.547C216.085 271.643 217.168 272.22 218.605 271.967C220.094 271.704 220.992 270.76 220.797 269.652C220.639 268.758 220.096 268.378 218.821 268.299L217.758 268.243C217.102 268.198 216.757 267.997 216.691 267.622C216.606 267.143 216.998 266.734 217.673 266.615C218.372 266.492 218.876 266.754 219.03 267.292L220.202 267.086C219.971 266.014 218.891 265.425 217.541 265.663C216.122 265.913 215.295 266.826 215.486 267.911ZM223.022 271.134C223.443 271.06 223.719 270.666 223.644 270.245C223.57 269.824 223.176 269.548 222.755 269.622C222.334 269.697 222.058 270.09 222.133 270.512C222.207 270.933 222.601 271.208 223.022 271.134ZM222.28 266.928C222.701 266.853 222.978 266.465 222.903 266.038C222.828 265.617 222.435 265.341 222.014 265.416C221.592 265.49 221.317 265.884 221.391 266.305C221.466 266.732 221.859 267.002 222.28 266.928Z" fill="#98A7C3"/>
<path d="M146.808 309.754L142.815 310.458L142.359 307.873L146.139 307.207L145.95 306.133L142.17 306.8L141.741 304.365L145.734 303.661L145.538 302.547L140.252 303.479L141.72 311.805L147.006 310.873L146.808 309.754ZM148.183 310.666L149.429 310.446L148.768 306.695C148.631 305.916 149.054 305.247 149.793 305.117C150.496 304.992 151.019 305.358 151.142 306.057L151.841 310.021L153.065 309.805L152.396 306.014C152.261 305.247 152.678 304.608 153.416 304.478C154.155 304.347 154.656 304.723 154.794 305.508L155.477 309.38L156.729 309.159L155.993 304.987C155.78 303.781 154.855 303.123 153.655 303.335C152.79 303.487 152.153 304.064 151.972 304.857L151.943 304.862C151.567 304.149 150.88 303.824 150.037 303.973C149.218 304.117 148.662 304.679 148.51 305.402L148.481 305.407L148.301 304.386L147.112 304.595L148.183 310.666ZM159.903 307.689C159.233 307.807 158.734 307.538 158.64 307.007C158.548 306.488 158.912 306.085 159.647 305.902L161.125 305.546L161.21 306.025C161.349 306.815 160.774 307.535 159.903 307.689ZM159.73 308.737C160.527 308.596 161.219 308.034 161.452 307.297L161.481 307.292L161.657 308.29L162.851 308.079L162.113 303.896C161.899 302.678 160.821 302.065 159.349 302.325C157.849 302.589 157.057 303.562 157.181 304.671L158.358 304.463C158.372 303.901 158.761 303.476 159.482 303.348C160.244 303.214 160.771 303.538 160.89 304.213L160.973 304.68L159.328 305.071C157.9 305.407 157.201 306.202 157.388 307.264C157.58 308.354 158.542 308.946 159.73 308.737ZM164.103 307.859L165.35 307.639L164.279 301.569L163.033 301.788L164.103 307.859ZM163.499 300.79C163.903 300.719 164.171 300.344 164.101 299.952C164.031 299.554 163.652 299.293 163.248 299.364C162.85 299.435 162.583 299.809 162.653 300.207C162.722 300.6 163.101 300.86 163.499 300.79ZM166.671 307.406L167.917 307.186L166.449 298.86L165.203 299.079L166.671 307.406ZM175.288 306.029C177.203 305.692 178.329 304.452 178.344 302.676L177.057 302.903C176.974 303.953 176.254 304.693 175.094 304.897C173.565 305.167 172.379 304.109 172.036 302.164C171.696 300.237 172.458 298.823 173.97 298.557C175.101 298.357 176.113 298.899 176.532 299.926L177.813 299.7C177.287 298.002 175.657 297.093 173.771 297.426C171.445 297.836 170.249 299.76 170.714 302.397C171.182 305.052 172.951 306.441 175.288 306.029ZM181.784 303.831C181.114 303.949 180.615 303.68 180.521 303.149C180.43 302.63 180.793 302.227 181.528 302.043L183.006 301.688L183.091 302.166C183.23 302.957 182.655 303.677 181.784 303.831ZM181.612 304.879C182.408 304.738 183.1 304.176 183.333 303.439L183.362 303.434L183.538 304.432L184.732 304.221L183.995 300.038C183.78 298.82 182.702 298.207 181.231 298.467C179.73 298.731 178.938 299.704 179.062 300.812L180.239 300.605C180.253 300.043 180.642 299.617 181.364 299.49C182.125 299.356 182.652 299.679 182.771 300.355L182.854 300.822L181.209 301.213C179.781 301.548 179.082 302.344 179.269 303.406C179.462 304.496 180.423 305.088 181.612 304.879ZM185.944 304.008L187.19 303.788L186.529 300.037C186.392 299.258 186.815 298.588 187.554 298.458C188.258 298.334 188.78 298.7 188.903 299.398L189.602 303.363L190.826 303.147L190.157 299.356C190.022 298.588 190.439 297.949 191.178 297.819C191.916 297.689 192.417 298.065 192.555 298.85L193.238 302.722L194.49 302.501L193.754 298.329C193.542 297.123 192.617 296.465 191.416 296.676C190.551 296.829 189.915 297.405 189.733 298.199L189.704 298.204C189.329 297.491 188.641 297.166 187.798 297.314C186.979 297.459 186.424 298.021 186.271 298.744L186.243 298.749L186.062 297.728L184.874 297.937L185.944 304.008ZM197.77 295.562C196.893 295.717 196.274 296.284 196.039 297.045L196.016 297.049L195.832 296.005L194.626 296.218L196.05 304.296L197.296 304.076L196.766 301.07L196.795 301.065C197.26 301.679 198.028 301.984 198.9 301.83C200.423 301.562 201.218 300.166 200.879 298.245C200.54 296.323 199.311 295.29 197.77 295.562ZM198.361 300.836C197.403 301.005 196.624 300.298 196.401 299.034C196.181 297.782 196.675 296.838 197.627 296.67C198.613 296.496 199.374 297.201 199.598 298.47C199.823 299.746 199.348 300.662 198.361 300.836ZM204.346 299.853C203.677 299.971 203.177 299.702 203.083 299.171C202.992 298.651 203.355 298.248 204.09 298.065L205.568 297.709L205.653 298.188C205.792 298.979 205.217 299.699 204.346 299.853ZM204.174 300.9C204.97 300.76 205.662 300.198 205.895 299.46L205.924 299.455L206.1 300.454L207.294 300.243L206.557 296.059C206.342 294.842 205.264 294.229 203.793 294.488C202.292 294.753 201.5 295.725 201.624 296.834L202.801 296.626C202.815 296.065 203.204 295.639 203.926 295.512C204.687 295.378 205.214 295.701 205.333 296.376L205.416 296.844L203.771 297.235C202.343 297.57 201.644 298.365 201.831 299.427C202.024 300.518 202.985 301.11 204.174 300.9ZM208.547 300.022L209.793 299.802L208.723 293.732L207.476 293.952L208.547 300.022ZM207.943 292.953C208.347 292.882 208.614 292.508 208.545 292.115C208.474 291.717 208.095 291.457 207.691 291.528C207.293 291.598 207.026 291.972 207.096 292.371C207.165 292.763 207.545 293.023 207.943 292.953ZM213.475 298.112C212.517 298.281 211.758 297.617 211.534 296.348C211.311 295.084 211.793 294.172 212.751 294.003C213.726 293.831 214.511 294.538 214.731 295.784C214.952 297.036 214.45 297.94 213.475 298.112ZM214.068 301.405C215.799 301.099 216.752 299.956 216.496 298.507L215.445 292.547L214.233 292.76L214.416 293.799L214.393 293.803C213.9 293.164 213.12 292.856 212.26 293.007C210.702 293.282 209.921 294.657 210.258 296.567C210.591 298.46 211.799 299.472 213.323 299.204C214.188 299.051 214.828 298.492 215.052 297.774L215.075 297.77L215.251 298.769C215.398 299.6 214.918 300.255 213.943 300.427C213.233 300.552 212.62 300.315 212.352 299.839L211.1 300.06C211.441 301.083 212.637 301.657 214.068 301.405ZM217.75 298.399L218.997 298.18L218.373 294.642C218.207 293.702 218.663 292.979 219.54 292.824C220.405 292.672 220.921 293.098 221.082 294.01L221.732 297.697L222.984 297.476L222.291 293.547C222.046 292.156 221.128 291.437 219.789 291.674C218.854 291.838 218.283 292.379 218.077 293.13L218.048 293.135L217.869 292.119L216.68 292.329L217.75 298.399ZM223.313 292.932C223.463 293.781 224.117 294.254 225.261 294.326L226.392 294.4C227.056 294.45 227.324 294.623 227.392 295.009C227.479 295.5 227.072 295.893 226.322 296.025C225.56 296.159 225.053 295.916 224.852 295.35L223.617 295.568C223.912 296.664 224.995 297.241 226.432 296.987C227.921 296.725 228.819 295.781 228.624 294.673C228.466 293.779 227.923 293.399 226.648 293.32L225.585 293.264C224.928 293.219 224.584 293.018 224.518 292.643C224.433 292.164 224.825 291.755 225.5 291.636C226.199 291.513 226.703 291.775 226.857 292.313L228.029 292.107C227.798 291.035 226.718 290.446 225.368 290.684C223.949 290.934 223.122 291.847 223.313 292.932ZM230.849 296.155C231.27 296.081 231.546 295.687 231.471 295.266C231.397 294.845 231.003 294.569 230.582 294.643C230.161 294.718 229.885 295.111 229.959 295.533C230.034 295.954 230.427 296.229 230.849 296.155ZM230.107 291.949C230.528 291.874 230.805 291.486 230.73 291.059C230.655 290.638 230.262 290.362 229.84 290.437C229.419 290.511 229.143 290.905 229.218 291.326C229.293 291.753 229.686 292.023 230.107 291.949Z" fill="#98A7C3"/>
<path d="M127.347 229.044L137.436 227.265L137.029 224.957L130.739 226.066L130.719 225.951L133.155 222.784C135.161 220.16 135.766 218.923 135.47 217.24L135.466 217.22C135.049 214.855 132.734 213.537 129.801 214.054C126.868 214.572 125.018 216.792 125.479 219.408L125.493 219.485L128.186 219.01L128.18 218.922C127.998 217.665 128.795 216.562 130.219 216.311C131.45 216.094 132.458 216.749 132.668 217.882L132.671 217.902C132.84 218.863 132.586 219.612 131.092 221.601L126.996 227.053L127.347 229.044ZM139.139 229.95L141.081 229.607L141.557 224.04L138.903 224.508L139.139 229.95ZM149 225.474C152.241 224.903 154.1 222.85 153.662 220.368L153.659 220.349C153.326 218.464 151.77 217.509 149.678 217.679L149.668 217.622C151.234 216.999 152.305 215.649 151.999 213.918L151.996 213.899C151.611 211.716 149.43 210.593 146.439 211.121C143.525 211.635 141.851 213.556 142.082 215.994L142.093 216.111L144.757 215.642L144.751 215.553C144.677 214.456 145.476 213.591 146.832 213.352C148.198 213.111 149.115 213.644 149.313 214.769L149.317 214.788C149.515 215.913 148.708 216.849 147.256 217.105L145.708 217.378L146.072 219.446L147.659 219.166C149.333 218.871 150.452 219.427 150.686 220.754L150.689 220.773C150.89 221.908 150.069 222.876 148.578 223.139C147.078 223.403 145.966 222.836 145.666 221.867L145.628 221.765L142.859 222.253L142.89 222.377C143.505 224.737 145.855 226.029 149 225.474ZM161.569 223.258C164.743 222.698 166.588 220.34 166.076 217.436L166.073 217.416C165.611 214.801 163.373 213.242 160.738 213.706C159.334 213.954 158.289 214.723 157.877 215.758L157.819 215.768L157.467 211.804L164.017 210.649L163.61 208.341L154.752 209.903L155.554 218.161L158.083 217.715C158.196 217.397 158.369 217.089 158.611 216.828C159.016 216.37 159.585 216.052 160.296 215.926C161.797 215.662 163.046 216.502 163.313 217.963L163.316 217.982C163.578 219.463 162.693 220.69 161.174 220.958C159.837 221.193 158.723 220.557 158.336 219.544L158.305 219.48L155.622 219.953L155.657 220.096C156.239 222.383 158.549 223.79 161.569 223.258ZM168.509 221.786L178.598 220.007L178.191 217.699L171.901 218.808L171.881 218.693L174.317 215.526C176.323 212.902 176.928 211.665 176.631 209.982L176.628 209.962C176.211 207.597 173.896 206.279 170.963 206.797C168.03 207.314 166.18 209.534 166.641 212.15L166.655 212.227L169.348 211.752L169.342 211.664C169.16 210.407 169.957 209.304 171.381 209.053C172.612 208.836 173.62 209.491 173.829 210.624L173.833 210.644C174.002 211.605 173.748 212.354 172.254 214.343L168.158 219.796L168.509 221.786Z" fill="#1F293C"/>
<path d="M190.219 217.958L191.472 210.583L190.323 210.786L189.438 216.847L189.409 216.852L186.509 211.458L185.341 211.664L189.041 218.166L190.219 217.958ZM193.248 217.424L194.287 217.241L193.395 212.182L192.356 212.366L193.248 217.424ZM192.745 211.533C193.082 211.474 193.304 211.162 193.247 210.835C193.188 210.503 192.872 210.286 192.536 210.346C192.204 210.404 191.981 210.716 192.04 211.048C192.098 211.375 192.413 211.592 192.745 211.533ZM196.705 212.367C197.431 212.239 198.017 212.696 198.178 213.466L195.649 213.912C195.567 213.138 195.979 212.495 196.705 212.367ZM198.439 214.977C198.378 215.444 197.993 215.819 197.402 215.923C196.57 216.07 195.938 215.582 195.783 214.702L195.772 214.639L199.345 214.009L199.282 213.653C199.011 212.119 197.962 211.283 196.558 211.531C195.129 211.782 194.402 213.001 194.682 214.588C194.964 216.185 196.04 217.031 197.526 216.769C198.685 216.565 199.444 215.752 199.425 214.803L198.439 214.977ZM206.335 209.901L205.306 210.082L205.085 214.227L205.061 214.231L203.301 210.436L202.301 210.612L201.95 214.779L201.93 214.783L200.305 210.964L199.266 211.147L201.548 215.961L202.62 215.772L203.005 211.797L203.029 211.793L204.76 215.394L205.842 215.204L206.335 209.901ZM209.188 210.166C209.914 210.038 210.501 210.495 210.661 211.265L208.132 211.711C208.05 210.937 208.462 210.294 209.188 210.166ZM210.923 212.776C210.861 213.243 210.476 213.618 209.885 213.722C209.053 213.869 208.421 213.38 208.266 212.5L208.255 212.438L211.828 211.808L211.765 211.452C211.495 209.918 210.445 209.082 209.041 209.329C207.613 209.581 206.885 210.8 207.165 212.387C207.447 213.984 208.523 214.83 210.009 214.568C211.168 214.364 211.927 213.551 211.908 212.602L210.923 212.776ZM214.951 213.687C215.686 213.557 216.198 213.085 216.394 212.455L216.414 212.452L216.566 213.313L217.575 213.135L216.352 206.196L215.308 206.38L215.788 209.102L215.769 209.105C215.387 208.597 214.745 208.334 214.019 208.462C212.75 208.685 212.082 209.849 212.364 211.446C212.645 213.042 213.672 213.912 214.951 213.687ZM214.457 209.287C215.256 209.146 215.911 209.739 216.095 210.788C216.282 211.846 215.868 212.618 215.07 212.759C214.247 212.904 213.615 212.326 213.427 211.258C213.239 210.196 213.635 209.432 214.457 209.287Z" fill="#98A7C3"/>
<rect x="114.038" y="159.296" width="36" height="36" rx="8" transform="rotate(-10 114.038 159.296)" fill="#E4EBFF"/>
<g clip-path="url(#clip0_627_7319)">
<path d="M129.336 171.457C129.12 171.023 128.91 170.588 128.735 170.166C128.027 169.9 127.469 169.287 127.329 168.489C127.117 167.29 127.921 166.143 129.12 165.931C130.319 165.72 131.467 166.523 131.678 167.722C131.707 167.887 131.713 168.05 131.706 168.211C131.994 168.632 132.253 169.118 132.493 169.617C132.81 168.991 132.945 168.267 132.814 167.522C132.491 165.693 130.749 164.473 128.92 164.795C127.091 165.118 125.871 166.86 126.194 168.689C126.471 170.265 127.804 171.382 129.336 171.457Z" fill="#1642C5"/>
<path d="M128.432 179.696C129.092 178.67 130.069 178.854 131.327 178.824C132.409 178.8 133.394 178.322 133.225 177.766C132.953 176.864 132.727 176.48 132.168 175.35C131.722 174.451 130.892 172.835 130.123 171.287C129.093 169.215 128.727 168.233 129.541 167.829C130.418 167.396 131.18 168.617 131.982 170.354C132.895 172.332 133.344 173.197 133.497 173.12C133.767 172.989 133.222 172.17 133.926 171.82C134.807 171.386 135.115 172.08 135.362 171.962C135.609 171.837 135.391 171.118 136.093 170.771C136.8 170.424 137.335 171.275 137.626 171.129C137.914 170.986 137.849 170.656 138.285 170.444C138.721 170.227 140.587 170.696 142.174 173.904C144.167 177.938 142.906 178.976 143.584 180.341L138.409 183.428C137.77 182.427 136.365 182.593 135.013 182.121C133.65 181.642 132.568 180.431 129.349 181.067C128.139 181.306 128.025 180.327 128.432 179.696Z" fill="#1642C5"/>
</g>
<path d="M170.468 172.874C173.309 172.373 174.732 170.13 174.188 167.04L174.185 167.026C173.642 163.943 171.53 162.323 168.696 162.823C165.869 163.321 164.425 165.568 164.969 168.651L164.971 168.665C165.516 171.755 167.627 173.375 170.468 172.874ZM170.203 171.366C168.466 171.672 167.123 170.513 166.742 168.352L166.74 168.339C166.359 166.178 167.232 164.636 168.962 164.331C170.699 164.024 172.042 165.183 172.421 167.337L172.424 167.351C172.801 169.491 171.96 171.056 170.203 171.366ZM176.677 174.035L178.354 173.739L177.726 170.178L177.759 170.172C178.311 170.936 179.215 171.304 180.232 171.124C182.023 170.809 182.918 169.193 182.514 166.904L182.513 166.897C182.107 164.595 180.713 163.383 178.902 163.702C177.879 163.883 177.191 164.546 176.931 165.473L176.897 165.479L176.68 164.247L175.004 164.543L176.677 174.035ZM179.464 169.802C178.428 169.985 177.543 169.218 177.297 167.824L177.296 167.817C177.049 166.417 177.617 165.387 178.654 165.204C179.724 165.015 180.551 165.772 180.803 167.199L180.804 167.206C181.052 168.613 180.535 169.613 179.464 169.802ZM187.381 169.864C189.246 169.535 190.102 168.246 190.13 167.109L190.138 167.031L188.569 167.308L188.564 167.358C188.487 167.864 188.02 168.404 187.185 168.552C186.094 168.744 185.277 168.125 185.029 166.877L190.024 165.996L189.929 165.458C189.55 163.303 188.031 162.093 185.991 162.452C183.951 162.812 182.9 164.525 183.296 166.773L183.298 166.78C183.698 169.049 185.241 170.241 187.381 169.864ZM186.243 163.762C187.132 163.605 187.878 164.056 188.198 165.166L184.852 165.756C184.794 164.635 185.354 163.918 186.243 163.762ZM191.665 168.963L193.341 168.667L192.611 164.527C192.43 163.497 192.919 162.689 193.882 162.519C194.837 162.35 195.41 162.839 195.589 163.856L196.344 168.138L198.02 167.842L197.206 163.224C196.914 161.568 195.84 160.716 194.272 160.992C193.188 161.183 192.549 161.81 192.314 162.643L192.28 162.649L192.083 161.531L190.407 161.827L191.665 168.963ZM202.529 167.193C204.393 166.864 205.249 165.575 205.278 164.438L205.285 164.361L203.716 164.637L203.711 164.687C203.634 165.193 203.167 165.734 202.332 165.881C201.241 166.073 200.424 165.454 200.176 164.206L205.172 163.325L205.077 162.787C204.697 160.633 203.178 159.422 201.138 159.782C199.099 160.141 198.047 161.854 198.444 164.102L198.445 164.109C198.845 166.378 200.388 167.57 202.529 167.193ZM201.39 161.091C202.279 160.934 203.025 161.386 203.345 162.495L200 163.085C199.941 161.964 200.502 161.247 201.39 161.091ZM209.49 165.965C210.52 165.784 211.217 165.133 211.473 164.221L211.513 164.213L211.727 165.425L213.403 165.13L211.69 155.415L210.014 155.711L210.684 159.514L210.644 159.522C210.089 158.738 209.183 158.363 208.174 158.541C206.383 158.857 205.48 160.467 205.886 162.769L205.887 162.776C206.292 165.072 207.685 166.284 209.49 165.965ZM209.745 164.463C208.668 164.653 207.847 163.895 207.597 162.474L207.596 162.468C207.345 161.047 207.864 160.053 208.934 159.865C209.964 159.683 210.851 160.457 211.096 161.85L211.097 161.857C211.344 163.257 210.782 164.28 209.745 164.463Z" fill="#1F293C"/>
<defs>
<filter id="filter0_d_627_7319" x="0.798828" y="0.798828" width="411.703" height="365.467" filterUnits="userSpaceOnUse" color-interpolation-filters="sRGB">
<feFlood flood-opacity="0" result="BackgroundImageFix"/>
<feColorMatrix in="SourceAlpha" type="matrix" values="0 0 0 0 0 0 0 0 0 0 0 0 0 0 0 0 0 0 127 0" result="hardAlpha"/>
<feOffset dx="-29" dy="-32"/>
<feGaussianBlur stdDeviation="32"/>
<feColorMatrix type="matrix" values="0 0 0 0 0.121569 0 0 0 0 0.160784 0 0 0 0 0.235294 0 0 0 0.15 0"/>
<feBlend mode="normal" in2="BackgroundImageFix" result="effect1_dropShadow_627_7319"/>
<feBlend mode="normal" in="SourceGraphic" in2="effect1_dropShadow_627_7319" result="shape"/>
</filter>
<clipPath id="clip0_627_7319">
<rect width="20" height="20" fill="white" transform="translate(123.305 165.785) rotate(-10)"/>
</clipPath>
</defs>
</svg>
