<svg width="122" height="140" viewBox="0 0 122 140" fill="none" xmlns="http://www.w3.org/2000/svg">
<g opacity="0.2">
<path fill-rule="evenodd" clip-rule="evenodd" d="M119.201 -69.3906L1.31465 -137.452C0.662209 -137.829 -0.14164 -137.829 -0.794075 -137.452L-118.68 -69.3906C-119.333 -69.0139 -119.735 -68.3177 -119.735 -67.5643V68.559C-119.735 69.3124 -119.333 70.0086 -118.68 70.3853L-0.794075 138.447C-0.14164 138.824 0.662209 138.824 1.31465 138.447L119.201 70.3853C119.853 70.0086 120.255 69.3124 120.255 68.559V-67.5643C120.255 -68.3177 119.853 -69.0139 119.201 -69.3906ZM1.94727 -138.548C0.903351 -139.151 -0.382797 -139.151 -1.4267 -138.548L-119.313 -70.4863C-120.357 -69.8836 -121 -68.7697 -121 -67.5643V68.559C-121 69.7644 -120.357 70.8783 -119.313 71.481L-1.4267 139.543C-0.382782 140.145 0.903366 140.145 1.94727 139.543L119.834 71.481C120.878 70.8783 121.521 69.7644 121.521 68.559V-67.5643C121.521 -68.7697 120.878 -69.8836 119.834 -70.4863L1.94727 -138.548Z" fill="white"/>
<path fill-rule="evenodd" clip-rule="evenodd" d="M118.805 66.2581L2.69936 -135.569C1.61526 -137.453 -1.09496 -137.453 -2.17905 -135.569L-118.285 66.2581C-119.369 68.1426 -118.014 70.4982 -115.846 70.4982H116.366C118.534 70.4982 119.889 68.1426 118.805 66.2581ZM4.16286 -136.417C2.42832 -139.432 -1.90804 -139.432 -3.64257 -136.417L-119.748 65.4101C-121.483 68.4253 -119.315 72.1942 -115.846 72.1942H116.366C119.835 72.1942 122.003 68.4253 120.269 65.4101L4.16286 -136.417Z" fill="white"/>
<path fill-rule="evenodd" clip-rule="evenodd" d="M-118.285 -65.263L-2.17885 136.564C-1.09476 138.448 1.61546 138.448 2.69956 136.564L118.805 -65.263C119.89 -67.1475 118.534 -69.5031 116.366 -69.5031L-115.845 -69.5031C-118.014 -69.5031 -119.369 -67.1475 -118.285 -65.263ZM-3.64236 137.412C-1.90781 140.427 2.42854 140.427 4.16308 137.412L120.269 -64.415C122.003 -67.4302 119.835 -71.1991 116.366 -71.1991L-115.845 -71.1991C-119.315 -71.1991 -121.483 -67.4302 -119.748 -64.415L-3.64236 137.412Z" fill="white"/>
</g>
</svg>
