<svg width="306" height="264" viewBox="0 0 306 264" fill="none" xmlns="http://www.w3.org/2000/svg">
<g filter="url(#filter0_d_526_3871)">
<rect x="64" y="44" width="200" height="136" rx="24" fill="#EEEFF5"/>
</g>
<path d="M210.977 159.416H211.953V157.785C214.785 157.629 216.787 156.174 216.787 153.703V153.684C216.787 151.564 215.439 150.451 212.725 149.875L211.953 149.719V146.33C213.115 146.467 213.828 147.053 213.975 148.02L213.994 148.107H216.602L216.582 147.941C216.387 145.686 214.658 144.299 211.953 144.133V142.492H210.977V144.123C208.193 144.26 206.309 145.793 206.309 148.078V148.098C206.309 150.168 207.637 151.379 210.244 151.926L210.977 152.082V155.578C209.561 155.451 208.896 154.807 208.73 153.908L208.711 153.801H206.104L206.113 153.947C206.27 156.252 208.174 157.639 210.977 157.785V159.416ZM209.033 147.883V147.863C209.033 147.082 209.688 146.438 210.977 146.32V149.514C209.57 149.201 209.033 148.674 209.033 147.883ZM214.062 153.957V153.977C214.062 154.855 213.418 155.49 211.953 155.598V152.287C213.574 152.639 214.062 153.117 214.062 153.957ZM224.355 158.244C227.578 158.244 229.805 156.242 229.805 153.293V153.273C229.805 150.617 227.871 148.693 225.195 148.693C223.77 148.693 222.607 149.27 222.021 150.217H221.963L222.305 146.252H228.955V143.908H219.961L219.316 152.18H221.885C222.051 151.887 222.275 151.613 222.559 151.398C223.037 151.018 223.652 150.803 224.375 150.803C225.898 150.803 226.982 151.848 226.992 153.332V153.352C226.992 154.855 225.908 155.91 224.365 155.91C223.008 155.91 222.021 155.09 221.816 154.025L221.797 153.957H219.072L219.082 154.104C219.258 156.457 221.289 158.244 224.355 158.244ZM237.129 158.244C240.264 158.244 242.559 156.193 242.559 153.312V153.293C242.559 150.656 240.693 148.723 237.969 148.723C236.064 148.723 234.678 149.68 234.121 150.988H234.062C234.062 150.842 234.072 150.646 234.082 150.451C234.189 147.961 235.088 145.998 237.148 145.998C238.301 145.998 239.082 146.574 239.434 147.424L239.463 147.512H242.373L242.354 147.414C241.934 145.236 239.883 143.664 237.158 143.664C233.486 143.664 231.25 146.438 231.25 151.057V151.076C231.25 155.852 233.73 158.244 237.129 158.244ZM234.512 153.381V153.361C234.512 151.926 235.645 150.9 237.119 150.9C238.584 150.9 239.688 151.936 239.688 153.4V153.42C239.688 154.807 238.525 155.9 237.09 155.9C235.645 155.9 234.512 154.797 234.512 153.381Z" fill="#1642C5"/>
<path d="M84.8203 78H86.8848V73.8438H91.3281V78H93.3926V68.1357H91.3281V72.1416H86.8848V68.1357H84.8203V78ZM96.8926 78.1162C97.8564 78.1162 98.6357 77.6582 99.0527 76.9062H99.0938V78H101.09V72.9756C101.09 71.499 99.8662 70.5215 97.9727 70.5215C96.0381 70.5215 94.876 71.4922 94.7666 72.8457L94.7598 72.9277H96.585L96.5986 72.8662C96.6943 72.3945 97.1455 72.0459 97.8906 72.0459C98.6699 72.0459 99.0938 72.4492 99.0938 73.0986V73.5498L97.2822 73.6592C95.4639 73.7754 94.4316 74.5547 94.4316 75.8877V75.9014C94.4316 77.1934 95.4229 78.1162 96.8926 78.1162ZM96.4072 75.7988V75.7852C96.4072 75.2656 96.8105 74.9375 97.583 74.8896L99.0938 74.7939V75.3203C99.0938 76.0859 98.4375 76.6602 97.542 76.6602C96.8516 76.6602 96.4072 76.3389 96.4072 75.7988ZM103.421 69.7285C104.022 69.7285 104.487 69.2568 104.487 68.6895C104.487 68.1221 104.022 67.6504 103.421 67.6504C102.819 67.6504 102.354 68.1221 102.354 68.6895C102.354 69.2568 102.819 69.7285 103.421 69.7285ZM102.423 78H104.419V70.6719H102.423V78ZM105.759 78H107.755V73.8984C107.755 72.832 108.329 72.2441 109.313 72.2441C109.601 72.2441 109.874 72.2852 110.038 72.3535V70.5967C109.888 70.5557 109.683 70.5215 109.464 70.5215C108.609 70.5215 108.015 71.0479 107.796 71.9502H107.755V70.6719H105.759V78ZM113.805 74.8623H116.642V77.4873H118.385V74.8623H121.229V73.1191H118.385V70.4873H116.642V73.1191H113.805V74.8623ZM125.645 78H130.013C132.118 78 133.424 76.9199 133.424 75.1904V75.1768C133.424 73.8848 132.433 72.9141 131.059 72.8115V72.7705C132.146 72.627 132.966 71.7041 132.966 70.624V70.6104C132.966 69.0928 131.797 68.1357 129.938 68.1357H125.645V78ZM129.404 69.667C130.368 69.667 130.936 70.1182 130.936 70.9043V70.918C130.936 71.7725 130.313 72.2578 129.151 72.2578H127.709V69.667H129.404ZM129.397 73.6592C130.662 73.6592 131.318 74.1445 131.318 75.0469V75.0605C131.318 75.9766 130.669 76.4619 129.486 76.4619H127.709V73.6592H129.397ZM137.765 78.1504C139.856 78.1504 140.868 76.9131 141.094 75.833L141.114 75.7578H139.282L139.269 75.7988C139.125 76.209 138.626 76.6602 137.806 76.6602C136.787 76.6602 136.151 75.9766 136.131 74.8076H141.176V74.1924C141.176 71.9775 139.829 70.5215 137.683 70.5215C135.536 70.5215 134.162 72.0117 134.162 74.3428V74.3496C134.162 76.6943 135.522 78.1504 137.765 78.1504ZM137.717 72.0117C138.544 72.0117 139.139 72.5381 139.262 73.5498H136.151C136.281 72.5586 136.896 72.0117 137.717 72.0117ZM144.389 78.1162C145.353 78.1162 146.132 77.6582 146.549 76.9062H146.59V78H148.586V72.9756C148.586 71.499 147.362 70.5215 145.469 70.5215C143.534 70.5215 142.372 71.4922 142.263 72.8457L142.256 72.9277H144.081L144.095 72.8662C144.19 72.3945 144.642 72.0459 145.387 72.0459C146.166 72.0459 146.59 72.4492 146.59 73.0986V73.5498L144.778 73.6592C142.96 73.7754 141.928 74.5547 141.928 75.8877V75.9014C141.928 77.1934 142.919 78.1162 144.389 78.1162ZM143.903 75.7988V75.7852C143.903 75.2656 144.307 74.9375 145.079 74.8896L146.59 74.7939V75.3203C146.59 76.0859 145.934 76.6602 145.038 76.6602C144.348 76.6602 143.903 76.3389 143.903 75.7988ZM149.878 78H151.874V73.8984C151.874 72.832 152.448 72.2441 153.433 72.2441C153.72 72.2441 153.993 72.2852 154.157 72.3535V70.5967C154.007 70.5557 153.802 70.5215 153.583 70.5215C152.729 70.5215 152.134 71.0479 151.915 71.9502H151.874V70.6719H149.878V78ZM157.445 78.1504C158.505 78.1504 159.312 77.6172 159.701 76.749H159.742V78H161.738V68.1357H159.742V71.9434H159.701C159.305 71.0547 158.484 70.5215 157.445 70.5215C155.6 70.5215 154.465 71.9434 154.465 74.3291V74.3359C154.465 76.7148 155.6 78.1504 157.445 78.1504ZM158.115 76.4961C157.117 76.4961 156.495 75.6689 156.495 74.3359V74.3291C156.495 72.9893 157.124 72.1758 158.115 72.1758C159.079 72.1758 159.749 73.0098 159.749 74.3291V74.3359C159.749 75.6621 159.086 76.4961 158.115 76.4961ZM168.472 80.3926H170.304C169.285 79.1895 168.499 76.585 168.499 74.2607C168.499 71.9297 169.285 69.3252 170.304 68.1357H168.472C167.057 69.8242 166.441 71.7998 166.441 74.2676C166.441 76.7148 167.057 78.6904 168.472 80.3926ZM174.966 78.1709C177.454 78.1709 178.944 76.9678 178.944 75.0742V75.0674C178.944 73.5156 178.015 72.6748 175.95 72.2646L174.904 72.0527C173.77 71.8271 173.264 71.4648 173.264 70.8428V70.8359C173.264 70.1318 173.899 69.6465 174.959 69.6396C175.978 69.6396 176.688 70.1113 176.791 70.8838L176.798 70.9658H178.746L178.739 70.8359C178.644 69.1064 177.242 67.9648 174.959 67.9648C172.771 67.9648 171.199 69.1543 171.199 70.959V70.9658C171.199 72.4492 172.184 73.3789 174.132 73.7686L175.171 73.9736C176.395 74.2266 176.88 74.5615 176.88 75.2314V75.2383C176.88 75.9902 176.162 76.4893 175.021 76.4893C173.893 76.4893 173.079 76.0107 172.949 75.2451L172.936 75.1699H170.987L170.994 75.2793C171.11 77.0977 172.621 78.1709 174.966 78.1709ZM180.086 78H182.082V73.8027C182.082 72.8457 182.649 72.1758 183.531 72.1758C184.44 72.1758 184.946 72.7842 184.946 73.8096V78H186.942V73.3994C186.942 71.6289 185.958 70.5215 184.372 70.5215C183.271 70.5215 182.499 71.0273 182.123 71.9365H182.082V68.1357H180.086V78ZM190.408 78.1162C191.372 78.1162 192.151 77.6582 192.568 76.9062H192.609V78H194.605V72.9756C194.605 71.499 193.382 70.5215 191.488 70.5215C189.554 70.5215 188.392 71.4922 188.282 72.8457L188.275 72.9277H190.101L190.114 72.8662C190.21 72.3945 190.661 72.0459 191.406 72.0459C192.186 72.0459 192.609 72.4492 192.609 73.0986V73.5498L190.798 73.6592C188.979 73.7754 187.947 74.5547 187.947 75.8877V75.9014C187.947 77.1934 188.938 78.1162 190.408 78.1162ZM189.923 75.7988V75.7852C189.923 75.2656 190.326 74.9375 191.099 74.8896L192.609 74.7939V75.3203C192.609 76.0859 191.953 76.6602 191.058 76.6602C190.367 76.6602 189.923 76.3389 189.923 75.7988ZM195.897 78H197.894V73.5771C197.894 72.75 198.406 72.1758 199.165 72.1758C199.903 72.1758 200.348 72.6406 200.348 73.4268V78H202.269V73.543C202.269 72.7295 202.768 72.1758 203.526 72.1758C204.299 72.1758 204.723 72.6406 204.723 73.4883V78H206.719V72.9893C206.719 71.5127 205.755 70.5215 204.319 70.5215C203.246 70.5215 202.371 71.1094 202.043 72.0322H202.002C201.756 71.0684 201.011 70.5215 199.985 70.5215C199.001 70.5215 198.235 71.0684 197.935 71.9023H197.894V70.6719H195.897V78ZM207.983 80.3926H209.979V76.749H210.021C210.417 77.6172 211.244 78.1504 212.29 78.1504C214.122 78.1504 215.257 76.7148 215.257 74.3359V74.3291C215.257 71.9434 214.122 70.5215 212.263 70.5215C211.224 70.5215 210.424 71.0615 210.027 71.9502H209.979V70.6719H207.983V80.3926ZM211.606 76.4961C210.636 76.4961 209.973 75.6621 209.973 74.3428V74.3359C209.973 73.0098 210.636 72.1758 211.606 72.1758C212.598 72.1758 213.227 72.9893 213.227 74.3291V74.3359C213.227 75.6689 212.598 76.4961 211.606 76.4961ZM219.659 78.1504C221.874 78.1504 223.289 76.7285 223.289 74.3359V74.3223C223.289 71.9502 221.847 70.5215 219.652 70.5215C217.465 70.5215 216.029 71.9639 216.029 74.3223V74.3359C216.029 76.7217 217.431 78.1504 219.659 78.1504ZM219.666 76.585C218.682 76.585 218.06 75.7715 218.06 74.3359V74.3223C218.06 72.9072 218.688 72.0869 219.652 72.0869C220.623 72.0869 221.259 72.9072 221.259 74.3223V74.3359C221.259 75.7646 220.637 76.585 219.666 76.585ZM227.685 78.1504C229.899 78.1504 231.314 76.7285 231.314 74.3359V74.3223C231.314 71.9502 229.872 70.5215 227.678 70.5215C225.49 70.5215 224.055 71.9639 224.055 74.3223V74.3359C224.055 76.7217 225.456 78.1504 227.685 78.1504ZM227.691 76.585C226.707 76.585 226.085 75.7715 226.085 74.3359V74.3223C226.085 72.9072 226.714 72.0869 227.678 72.0869C228.648 72.0869 229.284 72.9072 229.284 74.3223V74.3359C229.284 75.7646 228.662 76.585 227.691 76.585ZM87.9033 96.1777C89.1543 96.1777 90.1934 95.8291 91.0068 95.2275L91.7178 96H93.9189V95.9658L92.1006 94.0654C92.6543 93.2178 92.9482 92.1582 92.9482 90.8594V90.4629H91.2871V90.7773C91.2871 91.5977 91.1641 92.2676 90.9248 92.8281L89.0244 90.8389C90.4463 90.0664 91.0547 89.2529 91.0547 88.2686V88.2617C91.0547 86.9287 89.9199 86.0059 88.3203 86.0059C86.6934 86.0059 85.5107 86.9766 85.5107 88.3027V88.3096C85.5107 88.9727 85.8252 89.5469 86.707 90.5518L86.3447 90.75C85.0459 91.4541 84.4648 92.3154 84.4648 93.416V93.4229C84.4648 95.0908 85.8115 96.1777 87.9033 96.1777ZM87.2197 88.3916V88.3848C87.2197 87.7764 87.6846 87.332 88.3135 87.332C88.9492 87.332 89.3936 87.7627 89.3936 88.3848V88.3916C89.3936 88.9795 89.0039 89.4307 88.1357 89.9023C87.4932 89.2051 87.2197 88.8428 87.2197 88.3916ZM86.3311 93.2588V93.252C86.3311 92.6641 86.6387 92.1855 87.4453 91.7207L87.6641 91.5977L89.9678 94.0996C89.4756 94.4824 88.8398 94.7285 88.1084 94.7285C87.0488 94.7285 86.3311 94.1475 86.3311 93.2588ZM101.869 96.1709C104.617 96.1709 106.244 94.5439 106.244 91.8574V90.7227H101.979V92.2607H104.234L104.228 92.4043C104.173 93.6211 103.25 94.4209 101.903 94.4209C100.263 94.4209 99.2236 93.1562 99.2236 91.0166V91.0098C99.2236 88.918 100.201 87.7148 101.828 87.7148C102.942 87.7148 103.729 88.2686 104.057 89.2256L104.084 89.2939H106.155L106.135 89.1982C105.807 87.3457 104.193 85.9648 101.821 85.9648C98.9297 85.9648 97.1182 87.8721 97.1182 91.0303V91.0371C97.1182 94.25 98.9229 96.1709 101.869 96.1709ZM107.44 96H109.437V91.8984C109.437 90.832 110.011 90.2441 110.995 90.2441C111.282 90.2441 111.556 90.2852 111.72 90.3535V88.5967C111.569 88.5557 111.364 88.5215 111.146 88.5215C110.291 88.5215 109.696 89.0479 109.478 89.9502H109.437V88.6719H107.44V96ZM115.657 96.1504C117.872 96.1504 119.287 94.7285 119.287 92.3359V92.3223C119.287 89.9502 117.845 88.5215 115.65 88.5215C113.463 88.5215 112.027 89.9639 112.027 92.3223V92.3359C112.027 94.7217 113.429 96.1504 115.657 96.1504ZM115.664 94.585C114.68 94.585 114.058 93.7715 114.058 92.3359V92.3223C114.058 90.9072 114.687 90.0869 115.65 90.0869C116.621 90.0869 117.257 90.9072 117.257 92.3223V92.3359C117.257 93.7646 116.635 94.585 115.664 94.585ZM123.683 96.1504C125.897 96.1504 127.312 94.7285 127.312 92.3359V92.3223C127.312 89.9502 125.87 88.5215 123.676 88.5215C121.488 88.5215 120.053 89.9639 120.053 92.3223V92.3359C120.053 94.7217 121.454 96.1504 123.683 96.1504ZM123.689 94.585C122.705 94.585 122.083 93.7715 122.083 92.3359V92.3223C122.083 90.9072 122.712 90.0869 123.676 90.0869C124.646 90.0869 125.282 90.9072 125.282 92.3223V92.3359C125.282 93.7646 124.66 94.585 123.689 94.585ZM128.345 96H130.341V91.5771C130.341 90.75 130.854 90.1758 131.612 90.1758C132.351 90.1758 132.795 90.6406 132.795 91.4268V96H134.716V91.543C134.716 90.7295 135.215 90.1758 135.974 90.1758C136.746 90.1758 137.17 90.6406 137.17 91.4883V96H139.166V90.9893C139.166 89.5127 138.202 88.5215 136.767 88.5215C135.693 88.5215 134.818 89.1094 134.49 90.0322H134.449C134.203 89.0684 133.458 88.5215 132.433 88.5215C131.448 88.5215 130.683 89.0684 130.382 89.9023H130.341V88.6719H128.345V96ZM141.47 87.7285C142.071 87.7285 142.536 87.2568 142.536 86.6895C142.536 86.1221 142.071 85.6504 141.47 85.6504C140.868 85.6504 140.403 86.1221 140.403 86.6895C140.403 87.2568 140.868 87.7285 141.47 87.7285ZM140.472 96H142.468V88.6719H140.472V96ZM143.808 96H145.804V91.7891C145.804 90.832 146.371 90.1758 147.267 90.1758C148.162 90.1758 148.613 90.7227 148.613 91.6797V96H150.609V91.2695C150.609 89.5537 149.693 88.5215 148.08 88.5215C146.973 88.5215 146.221 89.0342 145.845 89.875H145.804V88.6719H143.808V96ZM155.299 98.543C157.5 98.543 158.874 97.4287 158.874 95.7949V88.6719H156.878V89.9229H156.837C156.44 89.0684 155.641 88.5215 154.608 88.5215C152.756 88.5215 151.607 89.9092 151.607 92.2471V92.2539C151.607 94.5303 152.742 95.8975 154.574 95.8975C155.634 95.8975 156.454 95.4121 156.837 94.6465H156.878V95.7676C156.878 96.5879 156.331 97.1211 155.299 97.1211C154.465 97.1211 153.932 96.8066 153.774 96.4443L153.754 96.3965H151.812L151.819 96.458C152.011 97.6338 153.282 98.543 155.299 98.543ZM155.265 94.4346C154.267 94.4346 153.638 93.6211 153.638 92.3018V92.2949C153.638 90.9824 154.273 90.1758 155.265 90.1758C156.235 90.1758 156.885 90.9893 156.885 92.2949V92.3018C156.885 93.6143 156.242 94.4346 155.265 94.4346ZM161.615 98.3926C163.023 96.6904 163.639 94.708 163.639 92.2676C163.639 89.7998 163.023 87.8242 161.615 86.1357H159.776C160.795 87.3252 161.581 89.9297 161.581 92.2607C161.581 94.5781 160.795 97.1895 159.776 98.3926H161.615Z" fill="#1F293C"/>
<path d="M86.8418 115H87.8613V106.545H86.8301L84.5801 108.162V109.223L86.8184 107.664H86.8418V115ZM92.4961 115H93.5156V111.443C93.5156 110.406 94.1426 109.691 95.0859 109.691C96.0352 109.691 96.5977 110.342 96.5977 111.443V115H97.6172V111.268C97.6172 109.791 96.7324 108.789 95.4375 108.789C94.5293 108.789 93.8672 109.193 93.5391 109.879H93.5156V106.545H92.4961V115ZM101.438 115.117C103.119 115.117 104.256 113.898 104.256 111.953V111.941C104.256 109.996 103.113 108.789 101.432 108.789C99.75 108.789 98.6133 110.002 98.6133 111.941V111.953C98.6133 113.893 99.7441 115.117 101.438 115.117ZM101.443 114.215C100.365 114.215 99.6562 113.389 99.6562 111.953V111.941C99.6562 110.518 100.371 109.691 101.432 109.691C102.51 109.691 103.213 110.512 103.213 111.941V111.953C103.213 113.383 102.516 114.215 101.443 114.215ZM107.367 115.117C108.293 115.117 108.914 114.701 109.242 114.133H109.266V115H110.285V108.906H109.266V112.492C109.266 113.529 108.639 114.215 107.678 114.215C106.74 114.215 106.277 113.67 106.277 112.68V108.906H105.258V112.861C105.258 114.25 106.031 115.117 107.367 115.117ZM111.615 115H112.635V111.238C112.635 110.312 113.15 109.762 113.941 109.762C114.188 109.762 114.404 109.791 114.486 109.82V108.83C114.404 108.818 114.252 108.789 114.076 108.789C113.391 108.789 112.863 109.234 112.658 109.938H112.635V108.906H111.615V115Z" fill="#98A7C3"/>
<path d="M84.8203 155H85.875V151.982H87.832C89.4199 151.982 90.5449 150.863 90.5449 149.258V149.246C90.5449 147.641 89.4199 146.545 87.832 146.545H84.8203V155ZM87.5625 147.482C88.7695 147.482 89.4668 148.145 89.4668 149.258V149.27C89.4668 150.383 88.7695 151.045 87.5625 151.045H85.875V147.482H87.5625ZM91.5996 155H92.6191V151.238C92.6191 150.312 93.1348 149.762 93.9258 149.762C94.1719 149.762 94.3887 149.791 94.4707 149.82V148.83C94.3887 148.818 94.2363 148.789 94.0605 148.789C93.375 148.789 92.8477 149.234 92.6426 149.938H92.6191V148.906H91.5996V155ZM95.877 147.875C96.2344 147.875 96.5156 147.588 96.5156 147.236C96.5156 146.879 96.2344 146.598 95.877 146.598C95.5254 146.598 95.2383 146.879 95.2383 147.236C95.2383 147.588 95.5254 147.875 95.877 147.875ZM95.3672 155H96.3867V148.906H95.3672V155ZM100.301 155.117C101.678 155.117 102.68 154.221 102.844 153.061L102.85 153.02H101.848L101.836 153.066C101.666 153.746 101.133 154.215 100.301 154.215C99.2461 154.215 98.5195 153.377 98.5195 151.959V151.953C98.5195 150.57 99.2285 149.691 100.289 149.691C101.186 149.691 101.678 150.23 101.83 150.84L101.842 150.887H102.838L102.832 150.84C102.703 149.797 101.807 148.789 100.289 148.789C98.5957 148.789 97.4766 150.02 97.4766 151.941V151.947C97.4766 153.887 98.5723 155.117 100.301 155.117ZM106.295 155.117C107.625 155.117 108.621 154.32 108.82 153.312L108.832 153.254H107.83L107.812 153.307C107.637 153.828 107.092 154.215 106.318 154.215C105.234 154.215 104.543 153.482 104.52 152.229H108.908V151.854C108.908 150.025 107.895 148.789 106.23 148.789C104.566 148.789 103.488 150.084 103.488 151.971V151.977C103.488 153.893 104.543 155.117 106.295 155.117ZM106.225 149.691C107.115 149.691 107.771 150.248 107.871 151.432H104.537C104.648 150.295 105.34 149.691 106.225 149.691ZM112.4 155H113.42V151.18C113.42 150.33 114.006 149.691 114.814 149.691C115.57 149.691 116.062 150.178 116.062 150.916V155H117.082V151.127C117.082 150.295 117.65 149.691 118.459 149.691C119.262 149.691 119.725 150.189 119.725 151.027V155H120.744V150.793C120.744 149.58 119.965 148.789 118.758 148.789C117.902 148.789 117.188 149.229 116.848 149.961H116.824C116.561 149.217 115.945 148.789 115.113 148.789C114.328 148.789 113.719 149.193 113.443 149.797H113.42V148.906H112.4V155ZM123.826 155.117C124.641 155.117 125.373 154.678 125.73 154.01H125.754V155H126.773V150.787C126.773 149.568 125.871 148.789 124.43 148.789C122.994 148.789 122.121 149.598 122.033 150.6L122.027 150.664H123.012L123.023 150.611C123.141 150.066 123.633 149.691 124.418 149.691C125.268 149.691 125.754 150.143 125.754 150.887V151.396L124.008 151.496C122.607 151.578 121.799 152.229 121.799 153.266V153.277C121.799 154.385 122.613 155.117 123.826 155.117ZM122.842 153.277V153.266C122.842 152.697 123.311 152.334 124.125 152.287L125.754 152.188V152.686C125.754 153.57 125.016 154.232 124.055 154.232C123.322 154.232 122.842 153.863 122.842 153.277ZM128.654 157.051C129.756 157.051 130.289 156.547 130.723 155.381L133.102 148.906H132.029L130.342 153.98H130.318L128.637 148.906H127.547L129.809 155.006L129.686 155.352C129.439 156.043 129.082 156.207 128.438 156.207C128.314 156.207 128.197 156.189 128.109 156.172V157.004C128.238 157.027 128.455 157.051 128.654 157.051ZM138.082 155H139.125L141.363 148.906H140.303L138.615 153.916H138.592L136.91 148.906H135.838L138.082 155ZM143.83 155.117C144.645 155.117 145.377 154.678 145.734 154.01H145.758V155H146.777V150.787C146.777 149.568 145.875 148.789 144.434 148.789C142.998 148.789 142.125 149.598 142.037 150.6L142.031 150.664H143.016L143.027 150.611C143.145 150.066 143.637 149.691 144.422 149.691C145.271 149.691 145.758 150.143 145.758 150.887V151.396L144.012 151.496C142.611 151.578 141.803 152.229 141.803 153.266V153.277C141.803 154.385 142.617 155.117 143.83 155.117ZM142.846 153.277V153.266C142.846 152.697 143.314 152.334 144.129 152.287L145.758 152.188V152.686C145.758 153.57 145.02 154.232 144.059 154.232C143.326 154.232 142.846 153.863 142.846 153.277ZM148.072 155H149.092V151.238C149.092 150.312 149.607 149.762 150.398 149.762C150.645 149.762 150.861 149.791 150.943 149.82V148.83C150.861 148.818 150.709 148.789 150.533 148.789C149.848 148.789 149.32 149.234 149.115 149.938H149.092V148.906H148.072V155ZM152.361 157.051C153.463 157.051 153.996 156.547 154.43 155.381L156.809 148.906H155.736L154.049 153.98H154.025L152.344 148.906H151.254L153.516 155.006L153.393 155.352C153.146 156.043 152.789 156.207 152.145 156.207C152.021 156.207 151.904 156.189 151.816 156.172V157.004C151.945 157.027 152.162 157.051 152.361 157.051Z" fill="#98A7C3"/>
<defs>
<filter id="filter0_d_526_3871" x="0" y="0" width="328" height="264" filterUnits="userSpaceOnUse" color-interpolation-filters="sRGB">
<feFlood flood-opacity="0" result="BackgroundImageFix"/>
<feColorMatrix in="SourceAlpha" type="matrix" values="0 0 0 0 0 0 0 0 0 0 0 0 0 0 0 0 0 0 127 0" result="hardAlpha"/>
<feOffset dy="20"/>
<feGaussianBlur stdDeviation="32"/>
<feColorMatrix type="matrix" values="0 0 0 0 0.121569 0 0 0 0 0.160784 0 0 0 0 0.235294 0 0 0 0.15 0"/>
<feBlend mode="normal" in2="BackgroundImageFix" result="effect1_dropShadow_526_3871"/>
<feBlend mode="normal" in="SourceGraphic" in2="effect1_dropShadow_526_3871" result="shape"/>
</filter>
</defs>
</svg>
