<svg width="348" height="284" viewBox="0 0 348 284" fill="none" xmlns="http://www.w3.org/2000/svg">
<g filter="url(#filter0_d_526_3877)">
<rect x="64" y="44" width="220" height="156" rx="24" fill="#EEEFF5"/>
</g>
<rect x="84" y="156" width="70" height="24" rx="6" fill="#D2DAF0"/>
<path d="M98.7935 161.333H93.2068C90.7802 161.333 89.3335 162.78 89.3335 165.207V170.787C89.3335 173.22 90.7802 174.667 93.2068 174.667H98.7868C101.213 174.667 102.66 173.22 102.66 170.793V165.207C102.667 162.78 101.22 161.333 98.7935 161.333ZM99.2535 167.687C99.2535 167.947 99.0468 168.153 98.7868 168.153C98.5268 168.153 98.3202 167.947 98.3202 167.687V167.567L96.5068 169.38C96.4068 169.48 96.2735 169.527 96.1335 169.513C95.9935 169.5 95.8668 169.427 95.7935 169.307L95.1135 168.293L93.5268 169.88C93.4335 169.973 93.3202 170.013 93.2002 170.013C93.0802 170.013 92.9602 169.967 92.8735 169.88C92.6935 169.7 92.6935 169.407 92.8735 169.22L94.8602 167.233C94.9602 167.133 95.0935 167.087 95.2335 167.1C95.3735 167.113 95.5002 167.187 95.5735 167.307L96.2535 168.32L97.6602 166.913H97.5402C97.2802 166.913 97.0735 166.707 97.0735 166.447C97.0735 166.187 97.2802 165.98 97.5402 165.98H98.7802C98.8402 165.98 98.9002 165.993 98.9602 166.013C99.0735 166.06 99.1668 166.153 99.2135 166.267C99.2402 166.327 99.2468 166.387 99.2468 166.447V167.687H99.2535Z" fill="#1642C5"/>
<path d="M110.713 172H112.465V163.545H110.707L108.521 165.062V166.633L110.678 165.168H110.713V172ZM114.363 172H120.51V170.594H116.678V170.523L118.447 168.906C119.906 167.564 120.393 166.896 120.393 165.871V165.859C120.393 164.418 119.162 163.398 117.375 163.398C115.588 163.398 114.264 164.518 114.264 166.111V166.158H115.904L115.91 166.105C115.934 165.344 116.52 164.775 117.387 164.775C118.137 164.775 118.664 165.268 118.67 165.959V165.971C118.67 166.557 118.441 166.973 117.352 167.992L114.363 170.787V172ZM122.455 172.1C122.982 172.1 123.404 171.678 123.404 171.15C123.404 170.617 122.982 170.201 122.455 170.201C121.922 170.201 121.506 170.617 121.506 171.15C121.506 171.678 121.922 172.1 122.455 172.1ZM127.699 172.146C129.633 172.146 130.969 170.945 130.969 169.176V169.164C130.969 167.57 129.809 166.416 128.203 166.416C127.348 166.416 126.65 166.762 126.299 167.33H126.264L126.469 164.951H130.459V163.545H125.062L124.676 168.508H126.217C126.316 168.332 126.451 168.168 126.621 168.039C126.908 167.811 127.277 167.682 127.711 167.682C128.625 167.682 129.275 168.309 129.281 169.199V169.211C129.281 170.113 128.631 170.746 127.705 170.746C126.891 170.746 126.299 170.254 126.176 169.615L126.164 169.574H124.529L124.535 169.662C124.641 171.074 125.859 172.146 127.699 172.146ZM133.811 167.898C135.023 167.898 135.768 167.049 135.768 165.684V165.678C135.768 164.318 135.023 163.469 133.811 163.469C132.592 163.469 131.848 164.318 131.848 165.678V165.684C131.848 167.049 132.592 167.898 133.811 167.898ZM134.684 172L140.021 163.545H138.721L133.377 172H134.684ZM133.811 166.926C133.336 166.926 133.072 166.486 133.072 165.684V165.678C133.072 164.881 133.336 164.441 133.811 164.441C134.279 164.441 134.537 164.881 134.537 165.678V165.684C134.537 166.486 134.279 166.926 133.811 166.926ZM139.594 172.076C140.807 172.076 141.551 171.227 141.551 169.861V169.855C141.551 168.496 140.807 167.646 139.594 167.646C138.375 167.646 137.631 168.496 137.631 169.855V169.861C137.631 171.227 138.375 172.076 139.594 172.076ZM139.594 171.104C139.119 171.104 138.855 170.664 138.855 169.861V169.855C138.855 169.059 139.119 168.619 139.594 168.619C140.062 168.619 140.32 169.059 140.32 169.855V169.861C140.32 170.664 140.062 171.104 139.594 171.104Z" fill="#1642C5"/>
<path d="M166.337 170.037C166.405 171.312 167.46 172.117 169.022 172.117C170.692 172.117 171.742 171.292 171.742 169.974C171.742 168.943 171.142 168.362 169.696 168.021L168.92 167.83C168.012 167.605 167.641 167.312 167.641 166.814C167.641 166.189 168.222 165.76 169.071 165.76C169.921 165.76 170.502 166.185 170.565 166.888H171.63C171.596 165.672 170.575 164.837 169.086 164.837C167.582 164.837 166.522 165.672 166.522 166.888C166.522 167.869 167.123 168.475 168.417 168.787L169.33 169.007C170.243 169.231 170.629 169.559 170.629 170.105C170.629 170.735 169.989 171.194 169.101 171.194C168.173 171.194 167.494 170.735 167.416 170.037H166.337ZM172.631 172H173.686V166.863H172.631V172ZM173.158 166.111C173.5 166.111 173.773 165.843 173.773 165.511C173.773 165.174 173.5 164.905 173.158 164.905C172.821 164.905 172.548 165.174 172.548 165.511C172.548 165.843 172.821 166.111 173.158 166.111ZM174.765 172H175.819V169.007C175.819 168.211 176.298 167.684 177.04 167.684C177.772 167.684 178.134 168.108 178.134 168.88V172H179.193V168.675C179.193 167.498 178.544 166.775 177.411 166.775C176.62 166.775 176.073 167.137 175.795 167.723H175.771V166.863H174.765V172ZM184.623 168.631C184.53 167.62 183.725 166.771 182.401 166.771C180.941 166.771 179.984 167.801 179.984 169.432C179.984 171.092 180.941 172.098 182.411 172.098C183.646 172.098 184.521 171.355 184.633 170.262H183.617C183.495 170.857 183.07 171.214 182.421 171.214C181.601 171.214 181.059 170.56 181.059 169.432C181.059 168.328 181.596 167.649 182.411 167.649C183.1 167.649 183.51 168.084 183.617 168.631H184.623ZM187.528 167.62C188.266 167.62 188.764 168.172 188.788 168.958H186.22C186.273 168.182 186.791 167.62 187.528 167.62ZM188.783 170.491C188.642 170.94 188.197 171.243 187.597 171.243C186.752 171.243 186.215 170.652 186.215 169.759V169.695H189.843V169.334C189.843 167.776 188.954 166.771 187.528 166.771C186.078 166.771 185.15 167.845 185.15 169.456C185.15 171.077 186.063 172.098 187.572 172.098C188.749 172.098 189.638 171.429 189.784 170.491H188.783ZM194.501 172H195.57V164.954H194.491L192.636 166.272V167.347L194.477 166.038H194.501V172ZM199.857 172.132C201.547 172.132 202.538 170.711 202.538 168.465C202.538 166.233 201.542 164.822 199.857 164.822C198.178 164.822 197.167 166.238 197.167 168.47C197.167 170.716 198.168 172.132 199.857 172.132ZM199.857 171.214C198.852 171.214 198.275 170.169 198.275 168.47C198.275 166.795 198.861 165.74 199.857 165.74C200.854 165.74 201.435 166.79 201.435 168.47C201.435 170.174 200.863 171.214 199.857 171.214ZM204.071 172.054C204.428 172.054 204.711 171.771 204.711 171.414C204.711 171.058 204.428 170.774 204.071 170.774C203.715 170.774 203.432 171.058 203.432 171.414C203.432 171.771 203.715 172.054 204.071 172.054ZM208.441 172.132C210.131 172.132 211.122 170.711 211.122 168.465C211.122 166.233 210.126 164.822 208.441 164.822C206.762 164.822 205.751 166.238 205.751 168.47C205.751 170.716 206.752 172.132 208.441 172.132ZM208.441 171.214C207.436 171.214 206.859 170.169 206.859 168.47C206.859 166.795 207.445 165.74 208.441 165.74C209.438 165.74 210.019 166.79 210.019 168.47C210.019 170.174 209.447 171.214 208.441 171.214ZM214.755 172.137C216.249 172.137 217.328 171.111 217.328 169.7C217.328 168.362 216.332 167.371 214.989 167.371C214.11 167.371 213.363 167.83 213.056 168.514H213.036C213.041 166.741 213.686 165.735 214.794 165.735C215.438 165.735 215.966 166.111 216.137 166.688H217.23C217.016 165.564 216.049 164.817 214.804 164.817C213.041 164.817 211.986 166.214 211.986 168.572C211.986 169.397 212.133 170.091 212.421 170.652C212.88 171.604 213.715 172.137 214.755 172.137ZM214.745 171.214C213.905 171.214 213.256 170.55 213.256 169.715C213.256 168.88 213.896 168.265 214.755 168.265C215.619 168.265 216.239 168.88 216.239 169.734C216.239 170.56 215.575 171.214 214.745 171.214ZM218.983 172.054C219.34 172.054 219.623 171.771 219.623 171.414C219.623 171.058 219.34 170.774 218.983 170.774C218.627 170.774 218.344 171.058 218.344 171.414C218.344 171.771 218.627 172.054 218.983 172.054ZM220.785 167.02V167.029H221.82V167.015C221.82 166.282 222.401 165.726 223.173 165.726C223.905 165.726 224.472 166.224 224.472 166.849C224.472 167.4 224.247 167.771 223.388 168.665L220.844 171.258V172H225.663V171.077H222.318V171.053L224.081 169.28C225.111 168.226 225.551 167.615 225.551 166.795C225.551 165.677 224.55 164.822 223.207 164.822C221.806 164.822 220.785 165.75 220.785 167.02ZM229.203 172.132C230.893 172.132 231.884 170.711 231.884 168.465C231.884 166.233 230.888 164.822 229.203 164.822C227.523 164.822 226.513 166.238 226.513 168.47C226.513 170.716 227.514 172.132 229.203 172.132ZM229.203 171.214C228.197 171.214 227.621 170.169 227.621 168.47C227.621 166.795 228.207 165.74 229.203 165.74C230.199 165.74 230.78 166.79 230.78 168.47C230.78 170.174 230.209 171.214 229.203 171.214ZM232.729 167.02V167.029H233.764V167.015C233.764 166.282 234.345 165.726 235.116 165.726C235.849 165.726 236.415 166.224 236.415 166.849C236.415 167.4 236.19 167.771 235.331 168.665L232.787 171.258V172H237.606V171.077H234.262V171.053L236.024 169.28C237.055 168.226 237.494 167.615 237.494 166.795C237.494 165.677 236.493 164.822 235.15 164.822C233.749 164.822 232.729 165.75 232.729 167.02ZM238.52 167.02V167.029H239.555V167.015C239.555 166.282 240.136 165.726 240.907 165.726C241.64 165.726 242.206 166.224 242.206 166.849C242.206 167.4 241.981 167.771 241.122 168.665L238.578 171.258V172H243.397V171.077H240.053V171.053L241.815 169.28C242.846 168.226 243.285 167.615 243.285 166.795C243.285 165.677 242.284 164.822 240.941 164.822C239.54 164.822 238.52 165.75 238.52 167.02Z" fill="#98A7C3"/>
<rect x="84" y="64" width="36" height="36" rx="8" fill="#D2DAF0"/>
<path d="M102.625 85.2667H103.167C103.708 85.2667 104.158 84.7833 104.158 84.2C104.158 83.475 103.9 83.3333 103.475 83.1833L102.633 82.8917V85.2667H102.625Z" fill="#1642C5"/>
<path d="M101.975 73.5833C97.3749 73.6 93.6499 77.3417 93.6666 81.9417C93.6832 86.5417 97.4249 90.2667 102.025 90.25C106.625 90.2333 110.35 86.4917 110.333 81.8917C110.317 77.2917 106.575 73.575 101.975 73.5833ZM103.883 82C104.533 82.225 105.408 82.7083 105.408 84.2C105.408 85.4833 104.4 86.5167 103.167 86.5167H102.625V87C102.625 87.3417 102.342 87.625 102 87.625C101.658 87.625 101.375 87.3417 101.375 87V86.5167H101.075C99.7082 86.5167 98.5999 85.3667 98.5999 83.95C98.5999 83.6083 98.8832 83.325 99.2249 83.325C99.5666 83.325 99.8499 83.6083 99.8499 83.95C99.8499 84.675 100.4 85.2667 101.075 85.2667H101.375V82.45L100.117 82C99.4666 81.775 98.5916 81.2917 98.5916 79.8C98.5916 78.5167 99.5999 77.4833 100.833 77.4833H101.375V77C101.375 76.6583 101.658 76.375 102 76.375C102.342 76.375 102.625 76.6583 102.625 77V77.4833H102.925C104.292 77.4833 105.4 78.6333 105.4 80.05C105.4 80.3917 105.117 80.675 104.775 80.675C104.433 80.675 104.15 80.3917 104.15 80.05C104.15 79.325 103.6 78.7333 102.925 78.7333H102.625V81.55L103.883 82Z" fill="#1642C5"/>
<path d="M99.8501 79.8083C99.8501 80.5333 100.108 80.675 100.533 80.825L101.375 81.1167V78.7333H100.833C100.292 78.7333 99.8501 79.2167 99.8501 79.8083Z" fill="#1642C5"/>
<path d="M89.9766 136.416H90.9531V134.785C93.7852 134.629 95.7871 133.174 95.7871 130.703V130.684C95.7871 128.564 94.4395 127.451 91.7246 126.875L90.9531 126.719V123.33C92.1152 123.467 92.8281 124.053 92.9746 125.02L92.9941 125.107H95.6016L95.582 124.941C95.3867 122.686 93.6582 121.299 90.9531 121.133V119.492H89.9766V121.123C87.1934 121.26 85.3086 122.793 85.3086 125.078V125.098C85.3086 127.168 86.6367 128.379 89.2441 128.926L89.9766 129.082V132.578C88.5605 132.451 87.8965 131.807 87.7305 130.908L87.7109 130.801H85.1035L85.1133 130.947C85.2695 133.252 87.1738 134.639 89.9766 134.785V136.416ZM88.0332 124.883V124.863C88.0332 124.082 88.6875 123.438 89.9766 123.32V126.514C88.5703 126.201 88.0332 125.674 88.0332 124.883ZM93.0625 130.957V130.977C93.0625 131.855 92.418 132.49 90.9531 132.598V129.287C92.5742 129.639 93.0625 130.117 93.0625 130.957ZM101.471 135H104.391V120.908H101.461L97.8184 123.438V126.055L101.412 123.613H101.471V135ZM112.965 135.244C116.188 135.244 118.414 133.242 118.414 130.293V130.273C118.414 127.617 116.48 125.693 113.805 125.693C112.379 125.693 111.217 126.27 110.631 127.217H110.572L110.914 123.252H117.564V120.908H108.57L107.926 129.18H110.494C110.66 128.887 110.885 128.613 111.168 128.398C111.646 128.018 112.262 127.803 112.984 127.803C114.508 127.803 115.592 128.848 115.602 130.332V130.352C115.602 131.855 114.518 132.91 112.975 132.91C111.617 132.91 110.631 132.09 110.426 131.025L110.406 130.957H107.682L107.691 131.104C107.867 133.457 109.898 135.244 112.965 135.244ZM119.342 137.939H121.314L122.75 132.539H120.055L119.342 137.939ZM129.83 135.244C133.121 135.244 135.309 133.545 135.309 131.025V131.006C135.309 129.092 133.941 127.881 131.852 127.686V127.627C133.502 127.285 134.791 126.143 134.791 124.385V124.365C134.791 122.148 132.838 120.664 129.801 120.664C126.842 120.664 124.859 122.266 124.664 124.707L124.654 124.824H127.359L127.369 124.736C127.486 123.643 128.424 122.93 129.801 122.93C131.188 122.93 131.998 123.613 131.998 124.756V124.775C131.998 125.918 131.041 126.699 129.566 126.699H127.994V128.799H129.605C131.305 128.799 132.311 129.541 132.311 130.889V130.908C132.311 132.061 131.334 132.871 129.82 132.871C128.297 132.871 127.301 132.119 127.174 131.113L127.154 131.006H124.342L124.352 131.133C124.547 133.564 126.637 135.244 129.83 135.244ZM142.691 135.244C146.266 135.244 148.434 132.441 148.434 127.959V127.939C148.434 123.457 146.266 120.664 142.691 120.664C139.117 120.664 136.949 123.457 136.949 127.939V127.959C136.949 132.441 139.117 135.244 142.691 135.244ZM142.691 132.881C140.934 132.881 139.928 131.055 139.928 127.959V127.939C139.928 124.844 140.934 123.027 142.691 123.027C144.449 123.027 145.455 124.844 145.455 127.939V127.959C145.455 131.055 144.449 132.881 142.691 132.881ZM150.152 135H160.396V132.656H154.01V132.539L156.959 129.844C159.391 127.607 160.201 126.494 160.201 124.785V124.766C160.201 122.363 158.15 120.664 155.172 120.664C152.193 120.664 149.986 122.529 149.986 125.186V125.264H152.721L152.73 125.176C152.77 123.906 153.746 122.959 155.191 122.959C156.441 122.959 157.32 123.779 157.33 124.932V124.951C157.33 125.928 156.949 126.621 155.133 128.32L150.152 132.979V135ZM163.639 135.166C164.518 135.166 165.221 134.463 165.221 133.584C165.221 132.695 164.518 132.002 163.639 132.002C162.75 132.002 162.057 132.695 162.057 133.584C162.057 134.463 162.75 135.166 163.639 135.166ZM172.32 135.244C175.895 135.244 178.062 132.441 178.062 127.959V127.939C178.062 123.457 175.895 120.664 172.32 120.664C168.746 120.664 166.578 123.457 166.578 127.939V127.959C166.578 132.441 168.746 135.244 172.32 135.244ZM172.32 132.881C170.562 132.881 169.557 131.055 169.557 127.959V127.939C169.557 124.844 170.562 123.027 172.32 123.027C174.078 123.027 175.084 124.844 175.084 127.939V127.959C175.084 131.055 174.078 132.881 172.32 132.881ZM179.781 135H190.025V132.656H183.639V132.539L186.588 129.844C189.02 127.607 189.83 126.494 189.83 124.785V124.766C189.83 122.363 187.779 120.664 184.801 120.664C181.822 120.664 179.615 122.529 179.615 125.186V125.264H182.35L182.359 125.176C182.398 123.906 183.375 122.959 184.82 122.959C186.07 122.959 186.949 123.779 186.959 124.932V124.951C186.959 125.928 186.578 126.621 184.762 128.32L179.781 132.979V135Z" fill="#1F293C"/>
<path d="M135.281 87H137.038V78.6191H139.984V77.1357H132.328V78.6191H135.281V87ZM142.534 87.1436C144.66 87.1436 146.041 85.7285 146.041 83.377V83.3633C146.041 81.0254 144.64 79.6035 142.527 79.6035C140.422 79.6035 139.027 81.0391 139.027 83.3633V83.377C139.027 85.7217 140.401 87.1436 142.534 87.1436ZM142.541 85.7695C141.454 85.7695 140.764 84.9014 140.764 83.377V83.3633C140.764 81.8594 141.468 80.9844 142.527 80.9844C143.607 80.9844 144.305 81.8525 144.305 83.3633V83.377C144.305 84.8945 143.614 85.7695 142.541 85.7695ZM149.828 87.1436C150.17 87.1436 150.471 87.1094 150.669 87.082V85.8037C150.553 85.8105 150.423 85.8311 150.259 85.8311C149.637 85.8311 149.322 85.6055 149.322 84.8945V81.0664H150.669V79.7539H149.322V77.915H147.593V79.7539H146.567V81.0664H147.593V85.0381C147.593 86.5283 148.311 87.1436 149.828 87.1436ZM153.882 87.123C154.839 87.123 155.646 86.6445 156.062 85.8857H156.104V87H157.806V82.0166C157.806 80.5605 156.637 79.6035 154.825 79.6035C152.986 79.6035 151.872 80.5674 151.77 81.8525L151.763 81.9346H153.342L153.355 81.873C153.465 81.3398 153.957 80.9639 154.764 80.9639C155.625 80.9639 156.104 81.4082 156.104 82.1396V82.6387L154.21 82.7549C152.453 82.8643 151.455 83.6367 151.455 84.9219V84.9355C151.455 86.2275 152.433 87.123 153.882 87.123ZM153.15 84.8672V84.8604C153.15 84.2861 153.608 83.9238 154.449 83.8691L156.104 83.7666V84.3135C156.104 85.1748 155.365 85.8242 154.388 85.8242C153.643 85.8242 153.15 85.4619 153.15 84.8672ZM159.228 87H160.93V77.1357H159.228V87ZM168.818 87.1709C171.225 87.1709 172.674 86.002 172.674 84.1631V84.1562C172.674 82.6182 171.778 81.7842 169.728 81.3604L168.661 81.1416C167.472 80.8955 166.932 80.4854 166.932 79.7881V79.7812C166.932 78.9951 167.649 78.4551 168.805 78.4482C169.912 78.4482 170.671 78.9609 170.787 79.8223L170.801 79.9043H172.489L172.482 79.7881C172.38 78.0996 170.972 76.9648 168.818 76.9648C166.692 76.9648 165.168 78.1406 165.161 79.877V79.8838C165.161 81.3535 166.118 82.2559 168.06 82.6592L169.119 82.8779C170.391 83.1445 170.903 83.541 170.903 84.2793V84.2861C170.903 85.1338 170.124 85.6875 168.88 85.6875C167.643 85.6875 166.774 85.1611 166.645 84.3135L166.631 84.2314H164.942L164.949 84.334C165.065 86.1045 166.556 87.1709 168.818 87.1709ZM175.962 87.123C176.919 87.123 177.726 86.6445 178.143 85.8857H178.184V87H179.886V82.0166C179.886 80.5605 178.717 79.6035 176.905 79.6035C175.066 79.6035 173.952 80.5674 173.85 81.8525L173.843 81.9346H175.422L175.436 81.873C175.545 81.3398 176.037 80.9639 176.844 80.9639C177.705 80.9639 178.184 81.4082 178.184 82.1396V82.6387L176.29 82.7549C174.533 82.8643 173.535 83.6367 173.535 84.9219V84.9355C173.535 86.2275 174.513 87.123 175.962 87.123ZM175.23 84.8672V84.8604C175.23 84.2861 175.688 83.9238 176.529 83.8691L178.184 83.7666V84.3135C178.184 85.1748 177.445 85.8242 176.468 85.8242C175.723 85.8242 175.23 85.4619 175.23 84.8672ZM181.308 87H183.01V77.1357H181.308V87ZM187.645 87.1436C189.538 87.1436 190.604 86.0225 190.83 84.9082L190.851 84.833H189.258L189.244 84.8809C189.08 85.3662 188.526 85.8174 187.679 85.8174C186.571 85.8174 185.874 85.0654 185.847 83.7939H190.919V83.2471C190.919 81.0596 189.634 79.6035 187.562 79.6035C185.491 79.6035 184.158 81.1074 184.158 83.3906V83.3975C184.158 85.7012 185.471 87.1436 187.645 87.1436ZM187.583 80.9365C188.485 80.9365 189.142 81.5107 189.265 82.6592H185.867C186.004 81.5449 186.681 80.9365 187.583 80.9365ZM194.85 87.1436C196.627 87.1436 197.892 86.2275 197.892 84.8604V84.8535C197.892 83.8008 197.311 83.2129 195.813 82.8779L194.604 82.6113C193.852 82.4404 193.571 82.167 193.571 81.75V81.7432C193.571 81.21 194.043 80.8613 194.795 80.8613C195.588 80.8613 196.053 81.2852 196.128 81.8662L196.135 81.9209H197.721L197.714 81.8457C197.652 80.5947 196.6 79.6035 194.795 79.6035C193.045 79.6035 191.89 80.499 191.89 81.8252V81.832C191.89 82.9053 192.587 83.582 193.975 83.8896L195.178 84.1562C195.93 84.3271 196.183 84.5732 196.183 85.0107V85.0176C196.183 85.5508 195.684 85.8857 194.856 85.8857C193.995 85.8857 193.523 85.5166 193.394 84.8945L193.38 84.833H191.705L191.712 84.8945C191.862 86.2412 192.949 87.1436 194.85 87.1436Z" fill="#1F293C"/>
<defs>
<filter id="filter0_d_526_3877" x="0" y="0" width="348" height="284" filterUnits="userSpaceOnUse" color-interpolation-filters="sRGB">
<feFlood flood-opacity="0" result="BackgroundImageFix"/>
<feColorMatrix in="SourceAlpha" type="matrix" values="0 0 0 0 0 0 0 0 0 0 0 0 0 0 0 0 0 0 127 0" result="hardAlpha"/>
<feOffset dy="20"/>
<feGaussianBlur stdDeviation="32"/>
<feColorMatrix type="matrix" values="0 0 0 0 0.121569 0 0 0 0 0.160784 0 0 0 0 0.235294 0 0 0 0.15 0"/>
<feBlend mode="normal" in2="BackgroundImageFix" result="effect1_dropShadow_526_3877"/>
<feBlend mode="normal" in="SourceGraphic" in2="effect1_dropShadow_526_3877" result="shape"/>
</filter>
</defs>
</svg>
