<svg width="160" height="172" viewBox="0 0 160 172" fill="none" xmlns="http://www.w3.org/2000/svg">
<g opacity="0.2">
<path fill-rule="evenodd" clip-rule="evenodd" d="M240.201 70.5883L122.315 2.52663C121.662 2.14994 120.858 2.14994 120.206 2.52663L2.3196 70.5883C1.66716 70.965 1.26523 71.6612 1.26523 72.4145V208.538C1.26523 209.291 1.66716 209.987 2.3196 210.364L120.206 278.426C120.858 278.802 121.662 278.802 122.315 278.426L240.201 210.364C240.853 209.987 241.255 209.291 241.255 208.538V72.4145C241.255 71.6612 240.853 70.965 240.201 70.5883ZM122.947 1.43091C121.903 0.828206 120.617 0.828208 119.573 1.43091L1.68698 69.4926C0.643073 70.0953 0 71.2091 0 72.4145V208.538C0 209.743 0.643076 210.857 1.68698 211.46L119.573 279.522C120.617 280.124 121.903 280.124 122.947 279.522L240.834 211.46C241.878 210.857 242.521 209.743 242.521 208.538V72.4145C242.521 71.2091 241.878 70.0953 240.834 69.4926L122.947 1.43091Z" fill="white"/>
<path fill-rule="evenodd" clip-rule="evenodd" d="M239.805 206.237L123.699 4.40985C122.615 2.52538 119.905 2.52538 118.821 4.40986L2.71511 206.237C1.63102 208.121 2.98613 210.477 5.1543 210.477H237.366C239.534 210.477 240.889 208.121 239.805 206.237ZM125.163 3.56184C123.428 0.546682 119.092 0.546692 117.357 3.56185L1.25159 205.389C-0.482951 208.404 1.68522 212.173 5.1543 212.173H237.366C240.835 212.173 243.003 208.404 241.269 205.389L125.163 3.56184Z" fill="white"/>
<path fill-rule="evenodd" clip-rule="evenodd" d="M2.71533 74.7157L118.821 276.543C119.905 278.427 122.615 278.427 123.7 276.543L239.805 74.7157C240.89 72.8312 239.534 70.4756 237.366 70.4756L5.15454 70.4756C2.98638 70.4756 1.63126 72.8312 2.71533 74.7157ZM117.358 277.391C119.092 280.406 123.429 280.406 125.163 277.391L241.269 75.5637C243.003 72.5486 240.835 68.7796 237.366 68.7796L5.15454 68.7796C1.68546 68.7796 -0.482724 72.5485 1.25183 75.5637L117.358 277.391Z" fill="white"/>
</g>
</svg>
