<svg width="40" height="40" viewBox="0 0 40 40" fill="none" xmlns="http://www.w3.org/2000/svg">
<g opacity="0.5">
<path d="M20.0002 3.3335C10.8168 3.3335 3.3335 10.8168 3.3335 20.0002C3.3335 29.1835 10.8168 36.6668 20.0002 36.6668C29.1835 36.6668 36.6668 29.1835 36.6668 20.0002C36.6668 10.8168 29.1835 3.3335 20.0002 3.3335ZM22.9835 25.0002C23.4668 25.4835 23.4668 26.2835 22.9835 26.7668C22.7335 27.0168 22.4168 27.1335 22.1002 27.1335C21.7835 27.1335 21.4668 27.0168 21.2168 26.7668L15.3335 20.8835C14.8502 20.4002 14.8502 19.6002 15.3335 19.1168L21.2168 13.2335C21.7002 12.7502 22.5002 12.7502 22.9835 13.2335C23.4668 13.7168 23.4668 14.5168 22.9835 15.0002L17.9835 20.0002L22.9835 25.0002Z" fill="white"/>
</g>
</svg>
