<svg width="40" height="40" viewBox="0 0 40 40" fill="none" xmlns="http://www.w3.org/2000/svg">
<path d="M20.0002 3.3335C10.8168 3.3335 3.3335 10.8168 3.3335 20.0002C3.3335 29.1835 10.8168 36.6668 20.0002 36.6668C29.1835 36.6668 36.6668 29.1835 36.6668 20.0002C36.6668 10.8168 29.1835 3.3335 20.0002 3.3335ZM24.6502 20.8835L18.7668 26.7668C18.5168 27.0168 18.2002 27.1335 17.8835 27.1335C17.5668 27.1335 17.2502 27.0168 17.0002 26.7668C16.5168 26.2835 16.5168 25.4835 17.0002 25.0002L22.0002 20.0002L17.0002 15.0002C16.5168 14.5168 16.5168 13.7168 17.0002 13.2335C17.4835 12.7502 18.2835 12.7502 18.7668 13.2335L24.6502 19.1168C25.1502 19.6002 25.1502 20.4002 24.6502 20.8835Z" fill="white"/>
</svg>
