<svg width="16" height="16" viewBox="0 0 16 16" fill="none" xmlns="http://www.w3.org/2000/svg">
<path d="M5.10004 13.9402C5.08004 13.9402 5.05337 13.9536 5.03337 13.9536C3.74004 13.3136 2.68671 12.2536 2.04004 10.9602C2.04004 10.9402 2.05337 10.9136 2.05337 10.8936C2.86671 11.1336 3.70671 11.3136 4.54004 11.4536C4.68671 12.2936 4.86004 13.1269 5.10004 13.9402Z" fill="white"/>
<path d="M13.9599 10.9669C13.2999 12.2936 12.1999 13.3669 10.8599 14.0136C11.1132 13.1669 11.3265 12.3136 11.4665 11.4536C12.3065 11.3136 13.1332 11.1336 13.9465 10.8936C13.9399 10.9202 13.9599 10.9469 13.9599 10.9669Z" fill="white"/>
<path d="M14.0132 5.14015C13.1732 4.88682 12.3265 4.68015 11.4665 4.53348C11.3265 3.67348 11.1199 2.82015 10.8599 1.98682C12.2399 2.64682 13.3532 3.76015 14.0132 5.14015Z" fill="white"/>
<path d="M5.10015 2.06004C4.86015 2.87337 4.68682 3.70004 4.54682 4.54004C3.68682 4.67337 2.83348 4.88671 1.98682 5.14004C2.63348 3.80004 3.70682 2.70004 5.03348 2.04004C5.05348 2.04004 5.08015 2.06004 5.10015 2.06004Z" fill="white"/>
<path d="M10.3267 4.3935C8.78001 4.22016 7.22001 4.22016 5.67334 4.3935C5.84001 3.48016 6.05334 2.56683 6.35334 1.68683C6.36667 1.6335 6.36001 1.5935 6.36667 1.54016C6.89334 1.4135 7.43334 1.3335 8.00001 1.3335C8.56001 1.3335 9.10667 1.4135 9.62667 1.54016C9.63334 1.5935 9.63334 1.6335 9.64667 1.68683C9.94667 2.5735 10.16 3.48016 10.3267 4.3935Z" fill="white"/>
<path d="M4.3935 10.3267C3.4735 10.16 2.56683 9.94667 1.68683 9.64667C1.6335 9.63334 1.5935 9.64001 1.54016 9.63334C1.4135 9.10667 1.3335 8.56667 1.3335 8.00001C1.3335 7.44001 1.4135 6.89334 1.54016 6.37334C1.5935 6.36667 1.6335 6.36667 1.68683 6.35334C2.5735 6.06001 3.4735 5.84001 4.3935 5.67334C4.22683 7.22001 4.22683 8.78001 4.3935 10.3267Z" fill="white"/>
<path d="M14.6664 8.00001C14.6664 8.56667 14.5864 9.10667 14.4598 9.63334C14.4064 9.64001 14.3664 9.63334 14.3131 9.64667C13.4264 9.94001 12.5198 10.16 11.6064 10.3267C11.7798 8.78001 11.7798 7.22001 11.6064 5.67334C12.5198 5.84001 13.4331 6.05334 14.3131 6.35334C14.3664 6.36667 14.4064 6.37334 14.4598 6.37334C14.5864 6.90001 14.6664 7.44001 14.6664 8.00001Z" fill="white"/>
<path d="M10.3267 11.6064C10.16 12.5264 9.94667 13.4331 9.64667 14.3131C9.63334 14.3664 9.63334 14.4064 9.62667 14.4598C9.10667 14.5864 8.56001 14.6664 8.00001 14.6664C7.43334 14.6664 6.89334 14.5864 6.36667 14.4598C6.36001 14.4064 6.36667 14.3664 6.35334 14.3131C6.06001 13.4264 5.84001 12.5264 5.67334 11.6064C6.44667 11.6931 7.22001 11.7531 8.00001 11.7531C8.78001 11.7531 9.56001 11.6931 10.3267 11.6064Z" fill="white"/>
<path d="M10.509 10.509C8.84165 10.7194 7.15867 10.7194 5.49128 10.509C5.2809 8.84165 5.2809 7.15867 5.49128 5.49128C7.15867 5.2809 8.84165 5.2809 10.509 5.49128C10.7194 7.15867 10.7194 8.84165 10.509 10.509Z" fill="white"/>
</svg>
